<svg xmlns="http://www.w3.org/2000/svg" viewBox="0 0 36.09 36.11">
  <defs>
    <style>
      .cls-1 {
        fill: #1d1d1b;
      }

      .cls-2, .cls-3 {
        fill: #fff;
      }

      .cls-2 {
        fill-rule: evenodd;
      }
    </style>
  </defs>
  <g id="Capa_2" data-name="Capa 2">
    <g id="Capa_1-2" data-name="Capa 1">
      <circle class="cls-1" cx="18.04" cy="18.04" r="18.04"/>
      <g>
        <path class="cls-2" d="M31.71,15.16c-.19.3-.44.52-.18,1a.7.7,0,0,0,.95.22c.48-.25.59-1.51-.77-1.2"/>
        <path class="cls-2" d="M2.49,20.84l.19,1.5,4.67-.08c-.42-2.92-.23-1.15-.15-3.57A10.86,10.86,0,0,0,26.39,25c1.77-2.13,2.57-4.26,2.47-8l.09.13a8,8,0,0,1,.4,3.1l4.6-.83-.1-1.61c.71-.24.78.16.61-1.4a16.52,16.52,0,0,0-25-12.41A16.35,16.35,0,0,0,4.86,8.16,13.65,13.65,0,0,0,3.23,10.8,16.36,16.36,0,0,0,1.6,19.49c.15,1.7.14,1.24.89,1.35m-.35-.41c-.59-1.87,0-5.56.51-7.15a16.14,16.14,0,0,1,29.56-2.91,15.72,15.72,0,0,1,1.92,6.85,21.1,21.1,0,0,1-3.39.74,13.34,13.34,0,0,0-1.42-5.71,13,13,0,0,0-3.84-4.48,13.29,13.29,0,0,0-3.2-1.66A12.75,12.75,0,0,0,8.7,9.46c-.26.27-.43.59-.69.87a12.07,12.07,0,0,0-2.17,4.3,13.1,13.1,0,0,0-.26,5.81Zm8.36-12a11.79,11.79,0,0,1,5.7-2.47,12.12,12.12,0,0,1,6.53.78c3.32,1.25,6.69,5,7.27,8.51l-1.43.23a10.84,10.84,0,0,0-6.36-7.38l-2.39-.91a13.84,13.84,0,0,0-3.21.07A35.14,35.14,0,0,0,10.5,8.38ZM5.77,17.47A11.54,11.54,0,0,1,7,12.63a9.48,9.48,0,0,1,1.22-2A8.57,8.57,0,0,1,9.72,9.05c-.05.3,0,1.06-.1,1.26s-.36.35-.49.86c-.21.85.19.19-.34,1.06-.16.26-.25.61-.43.92a11,11,0,0,0-1.15,4.31Zm4.12-6.92c-.09-1.71,0-1.81,1.64-2.23a34.7,34.7,0,0,1,7.23-1c1.53,0,1.95.05,2.18,1.58a.69.69,0,0,1,.61.47c.28.51,0,.27.57.54A2.07,2.07,0,0,1,23.18,11c.48,1,1.06,1.87,1.5,2.91a6.12,6.12,0,0,1,.39,1.89,9.82,9.82,0,0,0,.55,1.69c.64,1.59.45,2.27,1.44,2.92,0-.39-.16-.4-.4-.68a1.69,1.69,0,0,1-.32-.86,12.47,12.47,0,0,0-.57-1.66c-1-2.61.26-1.7-2.53-6.59-.42-.73-.52-.59-1.15-1-.42-.25-.16-.29-.49-.64s-.39-.17-.49-.51c1.41.13,3.55,1.87,4.52,2.91a10.1,10.1,0,1,1-17.55,5,7,7,0,0,1,.15-.72L8.5,15c.07.19.36.74.36.74.05.22-.14.44-.15.75,0,.93.61,1.11.51,1.51-.55,2.27.41,1.37.15,2.48-.41,1.73,2.78,3.23,3.1,4.17.18.53.25,1.17.44,1.72,1.2.54,3.24,0,4.65.1.8.08,4,.33,4.62.06a37.36,37.36,0,0,0-4.44-.27c-1.57-.14-3,.17-4.62,0a8,8,0,0,0-.61-2c0-.05-.25-.17-.37-.27l-.91-.85c-1-1-2.13-1.77-1.45-2.89-.72-1.09-.61-1.28-.19-2.42a1.43,1.43,0,0,1-.32-2.08c-.58-.55-.83-1-.37-2.08.25-.59-.32-.66.08-1.28.27-.42.25,0,.33-.58S9.37,10.78,9.89,10.55ZM5.74,17.89l.84,0c0,.25-.27.47-.4.77s-.19.57-.35.88Zm24.54-.69c-.18-.26-.28-.54-.48-.81-.37-.52-.48-.37-.52-.68l.84-.1ZM6.88,21.84,3,21.94l-.13-1.12H6c.17-.54.2-2.06.87-2.62A10.81,10.81,0,0,0,6.88,21.84Zm22.19-5.71c.78.43.9,1.54,1.35,2.28l3-.6L33.57,19l-3.82.69a10.72,10.72,0,0,0-.19-1.89C29.43,17.19,29.2,16.7,29.07,16.13Z"/>
        <path class="cls-2" d="M12.41,21.58l1,4.23c1.37.27,7.18-.25,8.13-1a17.24,17.24,0,0,0-.53-5.57l.14,5.11c-.16.48-3.27.83-3.56.87a16.73,16.73,0,0,1-3.78.16l-.79-3.27Z"/>
        <path class="cls-2" d="M21.61,10.08c-.06.43-.09.81-.48,1A1.17,1.17,0,0,1,20,10.85c-1.47-1-.71-.92-.82-1.77-1-.18-.72,1.38-.65,1.59.28.84,1.84,1.54,2.53,2.09.51.41.74.74,1.19,1.05l-.65-.19a12.16,12.16,0,0,1,.32,1.74,4.51,4.51,0,0,0,.75,2.94,3.36,3.36,0,0,0,.82,1,1.58,1.58,0,0,1-1.41.23c.31,2.4.35,1.27,1.87,2.54l-1.7-.15a9.75,9.75,0,0,1,.14,2.34c-.14.93-.4.86-1,1.28l.12.07.13.06.22.05c.87.13,2-1.4,2.42-2l-.13.52.59.23a8.67,8.67,0,0,0,1.54-2.19,3,3,0,0,0-.71-.67c.14-.54.46-.71.38-1.52-.25-2.55-1.05-2.69-1.25-4.89a9.36,9.36,0,0,0-1.22-3c-.54-1-.77-1.87-1.84-2.12"/>
        <path class="cls-2" d="M10.36,9.22l0,1.52c-.44.48-.55.2-.58,1.09s-.65.38-.4,1.26c1-.27-.73-.25,1.77-1A63.66,63.66,0,0,1,17.9,11s-.06.17.3-.15c-.2-.31.17-.17-.41-.18l-.56.07L14,11.15a37.55,37.55,0,0,0-3.93.94c-.05-1.09.26-.93,1.26-1.22a36.88,36.88,0,0,1,6.71-1.12L18.39,9c.23-.44.14-.31.09-.93a4.37,4.37,0,0,1,.81,0c.1,0,.32,0,.4,0,.83.19,0,.93.85,1.16-.16-1.46-.2-1.53-1.65-1.54a26.87,26.87,0,0,0-8.53,1.46M16,8.3l.13,1.29L13,10.12l0-1.35Zm-5.28,2.4a5.45,5.45,0,0,1,0-1.14c.1-.27.46-.32.77-.4l.09,1.31Z"/>
        <path class="cls-2" d="M13.29,16.91a1,1,0,0,0-.2-2,4.13,4.13,0,0,0-2.94.53c-1.39.62-.76,2.13-.17,2s1.66-.44,3.31-.61m.32-.83c-.11.64-.48.91-1.23.75-.47-.1-1.05-.48-1-1.08S13.92,14.39,13.61,16.08Z"/>
        <path class="cls-2" d="M13,17.36c1.43,0,1.34.15,1.06,1.59a2.35,2.35,0,0,1-1.76-.11,1,1,0,0,1-.24-.92c.07-.3.66-.41.88-.56l-1,0A4.11,4.11,0,0,0,9.89,18a1.46,1.46,0,0,0,.1,1.8c1.39-.7,2.17-.53,3.72-.64,1.16.14,2.06-2.33-.67-1.84"/>
        <path class="cls-2" d="M11.29,20.39a.83.83,0,0,0,1,.14c.3-.17.22-.51.34-.81a1.09,1.09,0,0,1-.05,1c-1,.17-2.1.09-1.16-.9a1.49,1.49,0,0,0-1.49.88c0,.9,1.81,2.42,2.33,2.54A2.94,2.94,0,0,0,12,21.87c-.58-.07-.85,0-.9-.55,1,.44,2.45-.51,1.88-1.55-.54-.31-1.55,0-1.65.62"/>
        <path class="cls-2" d="M11,14.79c.62-2.26-2.71-2-1.79.47A4.12,4.12,0,0,0,11,14.79M9.33,14c.48-.82,1.56-.18,1,.65a1.2,1.2,0,0,1-1,.37l-.1-.67.27.48c.61-.12.92-.36.6-.94A1.23,1.23,0,0,0,9.33,14Z"/>
        <path class="cls-2" d="M21.36,9.92c-.51-.08-1.62-.65-1.91-.6-.22.67,0,.88.72,1.32s1.1.13,1.19-.72"/>
        <path class="cls-2" d="M11.63,15.8c.17,1.09,2.24,1.25,1.67-.41a1.44,1.44,0,0,0-1.67.41"/>
        <path class="cls-2" d="M14,17.71a2.16,2.16,0,0,0-1.58.07c-.36.94.65,1.23,1.41.95Z"/>
        <path class="cls-2" d="M3.15,18.22a.69.69,0,0,0,1.34-.31.69.69,0,1,0-1.34.31"/>
        <path class="cls-2" d="M11,11.6a6,6,0,0,0,2.22-.54A3.4,3.4,0,0,0,11,11.6"/>
        <path class="cls-2" d="M16,10.61c.4,0,1.77.07,2.07-.26-.12-.1,0-.16-.46-.11a5.67,5.67,0,0,0-1.61.37"/>
        <path class="cls-2" d="M16,10.29l1.69-.12a2,2,0,0,0,.26-.06c.2-.07.08,0,.19-.13a.31.31,0,0,0-.21-.07l-1.44.18a.91.91,0,0,0-.49.2"/>
        <path class="cls-2" d="M26.2,20.91l.54.35.19-.47-.49-.43Z"/>
        <path class="cls-2" d="M11.14,11.09A8,8,0,0,0,12.25,11c.48-.09.84-.1,1.08-.36a9,9,0,0,0-2.19.49"/>
        <path class="cls-2" d="M23,26a10.34,10.34,0,0,0,1-.83L23.7,25A5.5,5.5,0,0,0,23,26"/>
        <path class="cls-2" d="M21.21,14.11c.44,0,.44,1.23.47,1.41a6.32,6.32,0,0,1,.13,1.77,32.43,32.43,0,0,0-6.76.67c.09-1.16-.85-.82-.89-.87l-.27-.35c.72.06.48-1.75.1-2,.29-.43,5.7-.5,7.22-.66"/>
        <path class="cls-2" d="M15,.3A18,18,0,1,0,35.81,14.92,18,18,0,0,0,15,.3M1,20.76A17.27,17.27,0,1,1,20.74,35.13,17.28,17.28,0,0,1,1,20.76Z"/>
        <path class="cls-3" d="M30.14,12.52l.14.29L32.11,12,32,11.73l-1.1.49,1-.79-.16-.36-1.84.83.12.26,1.33-.6ZM31,9.18l-.37,0,.13.17.43,0Zm-1.88.73a.45.45,0,0,0-.13.69.45.45,0,0,0,.69.09l.85-.61a.45.45,0,0,0,.13-.69A.44.44,0,0,0,30,9.3Zm1.05-.36c.12-.09.2-.07.26,0s.05.17-.07.25l-.88.64c-.11.08-.2.06-.25,0s-.06-.16.06-.25Zm-2.3-.43.2.24,1.54-1.3-.2-.24ZM27.45,7.6l-.19.22c-.1.11-.18.1-.26,0s-.08-.15,0-.26l.72-.81c.1-.11.18-.11.26,0s.08.15,0,.25l-.15.17.23.19.13-.14a.48.48,0,1,0-.71-.63l-.69.79a.43.43,0,0,0,0,.69A.44.44,0,0,0,27.49,8l.18-.2ZM26.11,5.45l-.42.93-.26-.16Zm.4-.17L26.12,5,24.76,6.54,25,6.7l.25-.27.32.21L25.42,7l.27.18Zm-2.83-1c-.24.53.3.85.13,1.23,0,.13-.13.15-.23.11s-.12-.11-.07-.25l.06-.13-.27-.12-.05.12a.47.47,0,1,0,.86.38c.23-.53-.3-.85-.14-1.23.06-.13.14-.16.23-.12s.12.12.06.25l0,.07.27.12,0,0A.45.45,0,0,0,24.31,4,.44.44,0,0,0,23.68,4.31Zm-1.91,1,.31.09.54-1.94-.27-.08L22,4.49V3.25l-.39-.11-.54,1.94.28.07.39-1.4ZM19.71,3.11l.55.05,0-.28-.86-.09-.21,2,.86.09,0-.29-.55,0L19.63,4l.43,0,0-.28-.44,0Zm-2.51.12c0,.57.64.63.65,1.05,0,.14-.06.2-.16.2s-.16-.05-.17-.19V4.14h-.3v.13a.48.48,0,1,0,1,0c0-.58-.64-.64-.65-1,0-.14.05-.2.15-.2s.16,0,.16.19v.08h.29V3.2c0-.32-.17-.5-.48-.49A.44.44,0,0,0,17.2,3.23ZM14.59,4.74l-.05-.18c0-.18,0-.26.14-.3l.12,0,.11.45c0,.13,0,.19-.11.21S14.62,4.88,14.59,4.74Zm-.35-.09,0,.19c.07.29.23.42.45.37A.3.3,0,0,0,15,5a.35.35,0,0,0,.07.14L15.36,5a.58.58,0,0,1-.09-.23l-.16-.64.08,0-.07-.28-.08,0L15,3.66l-.31.08.06.21-.14,0c-.11,0-.19,0-.23-.16l0-.12c0-.14,0-.21.11-.23l.34-.09-.07-.28-.35.09a.43.43,0,0,0-.33.6v0c.06.2.16.32.32.34A.41.41,0,0,0,14.24,4.65Zm-2.89,0,.59.84-.27.13Zm.06-.43L11,4.47l.62,1.94.26-.13-.12-.35.35-.18.21.3.28-.14ZM9.31,5v.38l.18-.12.07-.43ZM10.5,7.11l.26-.17L9.65,5.26l-.26.17ZM8.77,7.4l.11-.09.24.28c.09.11.08.19,0,.26s-.16.06-.25,0L8.17,7c-.09-.11-.08-.19,0-.25s.16-.07.25,0l.14.17.23-.2-.13-.14a.47.47,0,1,0-.72.6l.68.8a.43.43,0,0,0,.68.09.44.44,0,0,0,0-.69L8.93,6.9l-.34.28ZM6.6,8.33c.07-.08.15-.08.26,0L7,8.48c.12.11.11.2,0,.28L7,8.86l-.47-.41Zm1.63.76A.64.64,0,0,1,8,9l-.23-.2c-.16-.14-.31-.2-.46-.13a.39.39,0,0,0-.17-.42L7,8.09a.4.4,0,0,0-.65.05l-.32.35L7.58,9.83l.21-.24-.62-.54L7.25,9c.09-.11.18-.11.32,0l.24.21A.54.54,0,0,0,8,9.33Zm-3,1.15.29-.46-.25-.15-.45.73,1.71,1.06L7,10.69l-.24-.15L6.43,11l-.5-.31.23-.37-.25-.15-.22.37Zm.67,2.44.13-.3-1.85-.8-.11.26,1.1.48-1.23-.19-.16.37,1.85.8L5.72,13l-1.34-.58ZM3.46,14.43l.12-.53-.28-.07-.2.84,2,.47.2-.84L5,14.23l-.13.53-.57-.13.1-.43-.28-.06-.1.42Z"/>
        <path class="cls-2" d="M26.52,30.39a.59.59,0,0,0,.86.09.49.49,0,0,0,.07-.79c-.26-.3-.52-.61-.79-.91a.57.57,0,0,0-.85-.08.49.49,0,0,0-.09.79l.8.9M26,29.24c-.11-.13-.09-.22,0-.29s.2-.08.31.05l.82.94c.11.12.09.22,0,.29a.21.21,0,0,1-.31-.05C26.56,29.87,26.29,29.55,26,29.24Zm0,2.12.34-.19-.64-1c-.21-.32-.41-.65-.61-1l-.3.17.36.58.38.58-1.09-1-.43.24q.3.48.63,1l.64,1,.3-.17-.47-.7c-.15-.23-.31-.46-.45-.69l.66.58Zm-2.69-.75.66,1-.34.14-.16-.56C23.43,31,23.38,30.8,23.32,30.61Zm.12-.48-.53.21c.09.37.2.74.3,1.11l.3,1.11a3.24,3.24,0,0,1,.33-.13L23.72,32l.45-.17.23.35.37-.15-.67-1C23.88,30.77,23.65,30.45,23.44,30.13Zm-.87,2.73.37-.12c-.13-.35-.26-.71-.38-1.07s-.25-.71-.38-1.06l-.37.11.38,1.07C22.31,32.15,22.44,32.5,22.57,32.86Zm-1.41-.61.18,0c0,.14.06.27.1.41s0,.23-.15.25-.21,0-.25-.17-.1-.39-.14-.59l-.15-.59c0-.16,0-.23.15-.26s.21,0,.25.17,0,.16.05.24l.36-.08a1.6,1.6,0,0,0,0-.21.53.53,0,0,0-.7-.43.51.51,0,0,0-.44.68c.05.19.1.38.14.57l.15.57a.52.52,0,0,0,.7.42.5.5,0,0,0,.43-.67c-.05-.24-.11-.47-.17-.7l-.53.12C21.11,32,21.14,32.15,21.16,32.25Zm-1.82-.65.15.56.15.56-.37,0,0-.57C19.31,32,19.33,31.8,19.34,31.6Zm.27-.42-.57.05L19,32.37l-.09,1.14.36,0,0-.42.47,0c0,.13.08.26.11.4l.4,0c-.11-.37-.21-.74-.31-1.1S19.71,31.54,19.61,31.18Zm-2.35.06h-.54c0,.37,0,.75,0,1.13s0,.75-.05,1.13H17c0-.27,0-.54,0-.8l0-.8c0,.27.08.53.11.8s.08.54.11.8h.37c.06-.27.11-.54.17-.8s.11-.54.17-.81l0,.81c0,.27,0,.54,0,.81h.37c0-.38,0-.76,0-1.13s0-.75.05-1.13h-.54c-.06.26-.12.53-.17.8s-.12.53-.17.79c0-.26-.08-.53-.11-.8S17.3,31.51,17.26,31.24Zm-2.32,1,.69.14.08-.32-.7-.14C15,32,15,32.1,14.94,32.21Zm-2.28.35,1,.33.13-.31-.6-.21c.12-.3.24-.61.37-.92s.25-.61.38-.92l-.36-.13-.45,1.08Zm-.19-2.2c-.15.37-.3.74-.44,1.11l-.33-.16C12,31,12.21,30.68,12.47,30.36Zm.48-.22-.51-.25c-.26.31-.52.61-.77.93l-.77.93.32.16.27-.35.42.21-.15.4.35.18c.14-.37.28-.74.41-1.11S12.8,30.51,13,30.14ZM31.8,21c.76-.51,1.49.71.76,1.15A.69.69,0,1,1,31.8,21ZM4.43,23.68a.67.67,0,1,1,.73,1.13A.67.67,0,1,1,4.43,23.68Zm-1.26,1a16.52,16.52,0,0,0,2.75,4c7.59,7.87,20.74,6.76,26.31-2.94.42-.73,1.92-3.5,1.64-4.65A1.59,1.59,0,0,0,31.75,20c-.86.33-.94,1.17-1.25,2A13.75,13.75,0,0,1,27.26,27a13.45,13.45,0,0,1-17.87.66c-3.47-3-3-5.4-5.06-5A1.59,1.59,0,0,0,3.17,24.64Z"/>
      </g>
    </g>
  </g>
</svg>
