<?xml version="1.0" encoding="utf-8"?>
<!-- Generator: Adobe Illustrator 26.3.1, SVG Export Plug-In . SVG Version: 6.00 Build 0)  -->
<svg version="1.1" id="Capa_1" xmlns="http://www.w3.org/2000/svg" xmlns:xlink="http://www.w3.org/1999/xlink" x="0px" y="0px"
	 viewBox="0 0 143.5 140.2" style="enable-background:new 0 0 143.5 140.2;" xml:space="preserve">
<style type="text/css">
	.st0{opacity:0.16;}
	.st1{fill-rule:evenodd;clip-rule:evenodd;fill:#201E20;}
	.st2{fill:#201E20;}
</style>
<g id="Capa_2_00000177478582547856615890000012832796851599549827_" class="st0">
	<g id="Capa_1-2">
		<g>
			<path class="st1" d="M126.4,58.8c-0.7,1.2-1.7,2-0.7,3.8c0.8,1.2,2.4,1.6,3.7,0.9C131.3,62.5,131.7,57.6,126.4,58.8"/>
			<path class="st1" d="M12.9,80.9l0.7,5.8l18.1-0.3c-1.6-11.3-0.9-4.4-0.6-13.9c1.2,10,3.3,16.7,9.4,24.2
				c14.7,18,41.2,20.8,59.3,6.1c2.1-1.7,4.1-3.7,5.9-5.8c6.9-8.3,10-16.6,9.6-31.2l0.3,0.5c1.1,2.2,1.6,6.6,1.6,12l17.8-3.2
				l-0.4-6.2c2.8-0.9,3,0.6,2.4-5.5c-4.8-45.7-55.4-72.7-97-48.2c-7,4.3-13.1,9.8-18,16.4c-2.7,3.9-4,5.3-6.3,10.2
				c-5.1,10.9-7.4,21.4-6.3,33.8C10,82.2,10,80.4,12.9,80.9 M11.5,79.3c-2.3-7.2,0-21.6,2-27.8C30.1-1,101.4-8.5,128.4,40.2
				c3.7,6.6,7.6,17.9,7.4,26.6c-1.7,1-10.5,2.4-13.2,2.9c-0.4-8.4-2-15.4-5.5-22.2c-5.7-11.2-15.5-19.7-27.4-23.9
				C70.6,17,50.7,22.4,37,36.7c-1,1-1.7,2.3-2.7,3.4c-3.3,3.7-6.7,10.7-8.4,16.7c-2,7.4-2.4,15.1-1,22.6L11.5,79.3z M44,32.5
				c5.1-4.5,13.7-8.4,22.1-9.6c9.8-1.5,17.5,0.1,25.4,3c12.9,4.9,26,19.3,28.2,33.1l-5.6,0.9c-3.1-14.2-14.6-24.8-24.7-28.7
				l-9.3-3.5c-3.5-0.6-8.8-0.1-12.5,0.3C59.7,28.8,51.8,30.3,44,32.5z M25.7,67.8C25.5,61.3,28,53.9,30.5,49
				c1.3-2.7,2.9-5.2,4.7-7.6c1.4-1.6,3.9-5.3,5.8-6.3c-0.2,1.2-0.2,4.1-0.4,4.9c-0.3,1.1-1.4,1.4-1.9,3.3c-0.8,3.3,0.7,0.8-1.3,4.2
				c-0.6,1-1,2.3-1.6,3.6c-2.6,5.2-4.2,10.9-4.5,16.7L25.7,67.8z M41.7,40.9c-0.4-6.6,0.1-7,6.3-8.7c9.2-2.3,18.6-3.6,28.1-3.9
				c5.9,0,7.6,0.2,8.5,6.1c1.1,0.1,2.1,0.8,2.4,1.8c1.1,2,0.1,1,2.2,2.1c1.8,0.9,3.3,2.3,4.1,4.2c1.9,3.7,4.1,7.3,5.8,11.3
				c1.3,3.2,1,4,1.5,7.3c0.5,2.3,1.2,4.5,2.1,6.6c2.5,6.2,1.7,8.8,5.6,11.3c0.1-1.5-0.6-1.5-1.6-2.7s-0.8-1.7-1.2-3.3
				c-0.6-2.2-1.4-4.3-2.2-6.4c-4-10.2,1-6.6-9.8-25.6c-1.6-2.8-2-2.3-4.5-3.8c-1.6-1-0.6-1.1-1.9-2.5c-0.9-0.9-1.5-0.7-1.9-2
				c5.5,0.5,13.8,7.3,17.5,11.3c15.8,17,12.3,46.7-9.2,59.5c-28.7,17.1-64.2-6.8-58.9-40.2c0.2-1,0.4-1.9,0.6-2.8l1-2.6
				c0.3,0.7,1.4,2.8,1.4,2.9c0.2,0.8-0.5,1.7-0.6,2.9c-0.1,3.6,2.3,4.3,2,5.9c-2.2,8.8,1.6,5.3,0.6,9.6C38,86.2,50.4,92,51.7,95.7
				c0.7,2,1,4.6,1.7,6.7c4.7,2.1,12.6-0.1,18,0.4c3.1,0.3,15.5,1.3,18,0.2c-1.6-0.8-14-0.8-17.2-1c-6.1-0.5-11.6,0.7-18-0.1
				c-0.7-2-1.2-6.7-2.3-7.9c-0.2-0.2-1-0.7-1.4-1l-3.5-3.3c-3.9-3.9-8.3-6.9-5.6-11.2c-2.8-4.2-2.4-5-0.8-9.4
				c-2.2-1.1-3.4-4.6-1.2-8.1c-2.2-2.2-3.2-3.8-1.3-8.1c1-2.3-1.2-2.6,0.3-5c1-1.6,1,0,1.3-2.2C39.7,42.9,39.7,41.8,41.7,40.9
				L41.7,40.9z M25.5,69.4l3.3-0.2c-0.1,1-1,1.8-1.6,3s-0.7,2.2-1.3,3.4L25.5,69.4z M120.9,66.8c-0.7-1-1.1-2.1-1.9-3.1
				c-1.5-2-1.9-1.5-2-2.7l3.3-0.4L120.9,66.8z M30,84.8l-15,0.4l-0.5-4.3h12c0.7-2.1,0.8-8,3.4-10.2C29.4,76.2,29,78.8,30,84.8
				L30,84.8z M116.2,62.6c3,1.7,3.5,6,5.2,8.9l11.8-2.3l0.5,4.8l-14.8,2.7c0-2.5-0.3-4.9-0.7-7.4C117.6,66.7,116.7,64.8,116.2,62.6
				L116.2,62.6z"/>
			<path class="st1" d="M51.4,83.8l4,16.4c5.3,1,27.9-1,31.6-4c0.8-1-0.3-18-2.1-21.6l0.6,19.9c-0.6,1.8-12.7,3.2-13.8,3.4
				c-3.8,0.4-11.3,1.3-14.7,0.7l-3-12.8L51.4,83.8z"/>
			<path class="st1" d="M87.2,39.1c-0.2,1.7-0.3,3.1-1.9,3.8c-1.5,0.6-3.2,0.3-4.4-0.8c-5.7-4-2.8-3.6-3.2-6.9
				c-3.7-0.7-2.8,5.4-2.5,6.2c1.1,3.3,7.2,6,9.8,8.1c2,1.6,2.9,2.9,4.7,4.1l-2.5-0.8c0.6,2.2,1,4.5,1.2,6.8
				c0.3,4.5-0.4,6.1,2.9,11.4c0.8,1.5,1.9,2.8,3.2,3.8c-1.8,1.2-3.2,1.3-5.5,0.9c1.2,9.3,1.3,4.9,7.3,9.9L89.6,85
				c0.3,2.9,1,6.2,0.5,9.1c-0.6,3.6-1.6,3.3-4,5l0.5,0.3l0.5,0.2l0.8,0.2c3.4,0.5,7.9-5.4,9.4-7.8l-0.5,2l2.3,0.9
				c2-2.2,4.7-5.4,6-8.5c-0.8-1-1.7-1.9-2.8-2.6c0.6-2.1,1.8-2.8,1.5-5.9c-1-9.9-4.1-10.4-4.8-19c-0.3-3.7-3.2-8.6-4.8-11.6
				C92.2,43.4,91.3,40,87.2,39.1"/>
			<path class="st1" d="M43.5,35.8l-0.2,5.9c-1.7,1.9-2.1,0.8-2.2,4.2c-0.1,3.7-2.5,1.5-1.5,4.9c3.7-1.1-2.8-1,6.9-3.8
				c9.2-2.6,25.3-4.3,26.3-4.5c0,0-0.2,0.6,1.2-0.6c-0.8-1.2,0.7-0.7-1.6-0.7c-0.3,0-1.8,0.2-2.2,0.3l-12.5,1.8
				c-5.1,0.9-10.2,2.2-15.3,3.6c-0.2-4.2,1-3.6,4.9-4.7c8.9-2.5,16.8-3.5,26.1-4.4l1.2-2.8c0.9-1.7,0.6-1.2,0.4-3.6
				c1-0.1,2.1-0.1,3.1,0c0.5,0,1,0.1,1.6,0.1c3.2,0.7,0,3.6,3.3,4.5c-0.6-5.6-0.8-5.9-6.4-6C67.7,30,50.9,32.4,43.5,35.8 M65.3,32.2
				l0.5,5l-12.2,2.1L53.4,34L65.3,32.2z M44.8,41.5c-0.2-1.5-0.2-3,0-4.5c0.4-1,1.8-1.2,3-1.5l0.2,5.1L44.8,41.5z"/>
			<path class="st1" d="M54.9,65.7c3.6-0.5,4.7-7-0.8-7.7s-6.8,0-11.4,2.1c-5.4,2.4-3,8.3-0.7,8C44.8,67.7,48.5,66.3,54.9,65.7
				 M56.1,62.4c-0.5,2.5-1.9,3.5-4.8,2.9c-1.8-0.4-4.1-1.8-3.8-4.2C48,58.4,57.3,55.8,56.1,62.4L56.1,62.4z"/>
			<path class="st1" d="M53.9,67.4c5.5,0.1,5.2,0.6,4.1,6.2c-2,0.6-5.4,0.7-6.9-0.4c-0.9-1-1.2-2.3-0.9-3.6c0.3-1.2,2.6-1.6,3.4-2.2
				l-3.8,0.2c-2.7,0.3-6.5,0.8-8.2,2.5s-1.2,5.2,0.4,7c5.4-2.7,8.4-2,14.5-2.5C61,75.1,64.5,65.6,53.9,67.4"/>
			<path class="st1" d="M47.1,79.2c1,1.1,2.7,1.3,3.9,0.5c1.2-0.7,0.8-2,1.3-3.2c0.8,1.5,0.3,2.6-0.2,3.9c-3.8,0.7-8.1,0.3-4.5-3.5
				c-2.5-0.2-4.8,1.2-5.8,3.4c0.1,3.5,7,9.4,9,9.9c0.1-1.9-0.3-3.7-1.2-5.4c-2.3-0.2-3.3-0.1-3.5-2.1c3.8,1.7,9.5-2,7.3-6
				C51.4,75.6,47.5,76.8,47.1,79.2"/>
			<path class="st1" d="M45.9,57.4c2.4-8.8-10.5-7.7-6.9,1.8C41.1,59.6,43.8,58.1,45.9,57.4 M39.5,54.2c1.9-3.2,6.1-0.7,4,2.5
				c-0.7,1.1-2.4,1.4-4,1.4l-0.4-2.6l1,1.9c2.4-0.5,3.6-1.4,2.3-3.6C41.4,53.6,40.4,53.7,39.5,54.2z"/>
			<path class="st1" d="M86.2,38.5c-2-0.3-6.3-2.5-7.4-2.3c-0.8,2.6,0.1,3.4,2.8,5.1C84.9,43.3,85.9,41.8,86.2,38.5"/>
			<path class="st1" d="M48.4,61.3c0.7,4.2,8.7,4.8,6.5-1.6C52.6,58.8,50,59.4,48.4,61.3"/>
			<path class="st1" d="M57.7,68.7c-1.7-0.8-4.4-0.4-6.1,0.3c-1.4,3.7,2.5,4.8,5.5,3.7L57.7,68.7z"/>
			<path class="st1" d="M15.5,70.7c0.6,3.1,5.9,2.4,5.2-1.2C20.1,66.3,14.7,66.9,15.5,70.7"/>
			<path class="st1" d="M46,45c2.1,0,7.2-1.1,8.6-2.1C52.1,42.8,47.5,43.2,46,45"/>
			<path class="st1" d="M65.5,41.2c1.6,0.2,6.9,0.3,8-1c-0.4-0.4,0.1-0.6-1.8-0.4C70.2,39.8,66.6,40.5,65.5,41.2"/>
			<path class="st1" d="M65.2,39.9l6.6-0.5c0.3,0,0.7-0.1,1-0.2c0.8-0.3,0.3-0.1,0.8-0.5c-0.2-0.2-0.5-0.3-0.8-0.2l-5.6,0.7
				C66.4,39.2,65.7,39.5,65.2,39.9"/>
			<path class="st1" d="M105,81.2c0.7,0.4,1.4,0.9,2.1,1.4l0.8-1.8l-1.9-1.7L105,81.2z"/>
			<path class="st1" d="M46.5,43c1.4-0.1,2.9-0.2,4.3-0.5c1.9-0.3,3.3-0.4,4.2-1.4C52.1,41.4,49.3,42,46.5,43"/>
			<path class="st1" d="M92.7,100.8c1.3-1,2.6-2.1,3.7-3.2l-1.2-0.6C94.3,98.1,93.5,99.4,92.7,100.8"/>
			<path class="st1" d="M85.6,54.8c1.7-0.2,1.7,4.8,1.8,5.5c0.3,2.3,0.9,6.9,0.5,6.9c-8.8-0.1-17.6,0.8-26.3,2.6
				c0.4-4.5-3.3-3.2-3.4-3.4l-1-1.4c2.8,0.2,1.9-6.8,0.4-7.6C58.8,55.6,79.8,55.4,85.6,54.8"/>
			<path class="st1" d="M61.4,1.1c-36.5,6.5-64,41.1-57,81.2c6.3,36.3,41.3,63.8,81.2,56.8c36.4-6.4,63.8-41.4,56.8-81.2
				C136,21.8,101.1-6,61.4,1.1 M7,80.6C1.3,43.9,26.3,9.6,62.9,3.9c0,0,0,0,0,0H63c37.8-5.9,71,20.6,76.5,55.8
				c6.1,36.5-18.5,71.1-55.1,77.3c-36.1,6.1-70.5-18-77.1-54C7.3,82.1,7.1,81.3,7,80.6z"/>
			<path class="st2" d="M120.3,48.6l0.5,1.2l7.1-3.2l-0.4-1l-4.3,1.9l3.7-3.1l-0.6-1.4l-7.1,3.2l0.4,1l5.2-2.3L120.3,48.6z
				 M123.8,35.6l-1.4,0.1l0.5,0.7l1.7,0.2L123.8,35.6z M116.5,38.4c-0.9,0.5-1.2,1.6-0.8,2.5s1.6,1.2,2.5,0.8l0,0
				c0.1-0.1,0.3-0.2,0.4-0.3l3.3-2.3c0.9-0.5,1.3-1.6,0.8-2.5c-0.5-0.9-1.6-1.3-2.5-0.8c-0.1,0-0.1,0.1-0.2,0.1
				c-0.1,0.1-0.2,0.2-0.4,0.2L116.5,38.4z M120.6,37c0.5-0.3,0.8-0.2,1,0.1s0.2,0.6-0.2,1l-3.4,2.5c-0.4,0.3-0.8,0.2-1-0.1
				s-0.2-0.6,0.2-1L120.6,37z M111.6,35.3l0.8,0.9l6-5l-0.8-0.9L111.6,35.3z M109.9,29.5l-0.7,0.8c-0.4,0.4-0.7,0.4-1,0.1
				s-0.4-0.6,0-1l2.8-3.2c0.4-0.4,0.7-0.4,1-0.1s0.3,0.6,0,1l-0.6,0.6l0.9,0.8l0.5-0.6c0.8-0.6,1-1.7,0.4-2.6
				c-0.6-0.8-1.7-1-2.6-0.4c-0.1,0-0.1,0.1-0.2,0.1c-0.2,0.1-0.3,0.3-0.4,0.5l-2.7,3c-0.8,0.6-1,1.8-0.4,2.6s1.8,1,2.6,0.4
				c0.2-0.2,0.3-0.3,0.5-0.6l0.7-0.8L109.9,29.5z M104.7,21.1l-1.7,3.7l-1-0.6L104.7,21.1z M106.2,20.4l-1.5-1l-5.3,5.9l0.9,0.6
				l0.9-1.1l1.3,0.8L102,27l1,0.7L106.2,20.4z M95.2,16.7c-0.9,2,1.2,3.3,0.5,4.8c-0.2,0.5-0.5,0.6-0.9,0.4s-0.5-0.4-0.3-1l0.2-0.5
				L93.7,20l-0.2,0.4c-0.5,0.9-0.1,2,0.7,2.5c0.9,0.5,2,0.1,2.5-0.7c0.1-0.1,0.1-0.2,0.1-0.3c0.9-2-1.2-3.3-0.5-4.8
				c0.2-0.5,0.5-0.6,0.9-0.5s0.5,0.4,0.2,1l-0.1,0.3l1.1,0.5l0.1-0.2c0.4-0.9,0-2-0.9-2.4c-0.8-0.4-1.8,0-2.3,0.7
				C95.3,16.6,95.2,16.7,95.2,16.7L95.2,16.7z M87.8,20.4l1.2,0.3l2.1-7.5l-1-0.3l-1.3,4.5v-4.8l-1.5-0.4l-2.1,7.5l1.1,0.3l1.5-5.4
				L87.8,20.4z M79.8,12l2.1,0.2l0.1-1.1l-3.3-0.3l-0.8,7.8l3.3,0.4l0.1-1.1l-2.1-0.2l0.2-2.3l1.7,0.2l0.1-1.1l-1.7-0.2L79.8,12z
				 M70,12.5c0.1,2.2,2.5,2.5,2.5,4.1c0,0.6-0.2,0.8-0.6,0.8s-0.6-0.2-0.7-0.7v-0.6h-1.2v0.5c0,1.2,0.7,2,1.9,1.9
				c0.9,0,1.8-0.7,1.8-1.6c0-0.1,0-0.2,0-0.4c-0.1-2.2-2.5-2.5-2.5-4.1c0-0.6,0.2-0.8,0.6-0.8s0.6,0.2,0.6,0.8v0.3h1.2v-0.3
				c0-1.2-0.7-2-1.9-1.9S70,11.2,70,12.5z M59.9,18.4l-0.2-0.7c-0.2-0.7,0-1,0.5-1.2l0.5-0.1l0.4,1.8c0.1,0.5-0.1,0.7-0.4,0.8
				S60,18.9,59.9,18.4z M58.6,18l0.2,0.8c0.3,1.1,0.9,1.6,1.8,1.4c0.5-0.1,0.9-0.5,0.9-1c0.1,0.2,0.1,0.4,0.3,0.6l1.2-0.3
				c-0.2-0.3-0.3-0.6-0.4-0.9l-0.6-2.5l0.3,0L62,14.9L61.7,15l-0.2-0.9l-1.2,0.3l0.2,0.9L60,15.4c-0.4,0.1-0.8,0-0.9-0.6l-0.1-0.5
				c-0.1-0.5,0-0.8,0.4-0.9l1.3-0.3L60.4,12L59,12.4c-0.9,0.1-1.5,1-1.4,1.9c0,0.1,0.1,0.3,0.1,0.4v0.1c0.2,0.8,0.6,1.3,1.2,1.3
				C58.4,16.7,58.3,17.4,58.6,18z M47.3,18.1l2.3,3.3L48.6,22L47.3,18.1z M47.6,16.5L46,17.3l2.4,7.5l1-0.5L48.9,23l1.3-0.7l0.8,1.2
				l1.1-0.6L47.6,16.5z M39.4,19.3v1.5l0.7-0.5l0.3-1.7L39.4,19.3z M44,27.6l1-0.7l-4.3-6.5l-1,0.7L44,27.6z M37.3,28.7l0.4-0.4
				l0.9,1.1c0.4,0.4,0.3,0.7,0,1s-0.6,0.2-1-0.2L35,27c-0.4-0.4-0.3-0.8,0-1s0.6-0.2,1,0.2l0.5,0.6l0.9-0.8L37,25.5
				c-0.5-0.9-1.6-1.2-2.5-0.7c-0.9,0.5-1.2,1.6-0.7,2.5c0.1,0.1,0.1,0.2,0.2,0.3c0.1,0.1,0.1,0.2,0.2,0.3l2.5,3.1
				c0.5,0.9,1.6,1.3,2.5,0.8c0.9-0.5,1.3-1.6,0.8-2.5c-0.1-0.1-0.2-0.3-0.3-0.4c-0.1-0.1-0.2-0.2-0.2-0.3l-1.6-1.9l-1.3,1.1
				L37.3,28.7z M28.8,32.3c0.3-0.3,0.6-0.3,1,0.1l0.6,0.5c0.5,0.4,0.4,0.8,0.1,1.1l-0.3,0.4l-1.8-1.6L28.8,32.3z M35.2,35.3
				c-0.3-0.1-0.6-0.3-0.8-0.5l-0.9-0.8c-0.6-0.5-1.2-0.8-1.8-0.5c0.1-0.6-0.1-1.3-0.7-1.6l-0.5-0.4c-0.6-0.7-1.5-0.8-2.2-0.2
				c-0.1,0.1-0.2,0.2-0.3,0.4l-1.2,1.4l5.9,5.2l0.8-0.9L31,35.1l0.3-0.3c0.4-0.4,0.7-0.4,1.3,0.1l0.9,0.8c0.2,0.2,0.5,0.4,0.8,0.6
				L35.2,35.3z M23.5,39.7l1.1-1.8l-0.9-0.6l-1.8,2.8l6.6,4.1l1.8-2.8l-1-0.6l-1.1,1.8l-1.9-1.2l0.9-1.5l-1-0.6l-0.9,1.4L23.5,39.7z
				 M26,49.2l0.5-1.2l-7.2-3.1l-0.4,1l4.3,1.9l-4.8-0.7l-0.6,1.4l7.2,3.2l0.5-1l-5.2-2.3L26,49.2z M16.7,56l0.5-2.1l-1.1-0.3
				l-0.8,3.3l7.6,1.8l0.8-3.3l-1.1-0.3l-0.5,2.1l-2.2-0.5l0.4-1.6l-1.1-0.3l-0.4,1.6L16.7,56z"/>
			<path class="st1" d="M106.3,118c0.7,1,2.1,1.2,3.1,0.5c0,0,0,0,0,0l0.2-0.2c0.9-0.5,1.2-1.7,0.7-2.6c-0.1-0.2-0.2-0.3-0.4-0.5
				c-1-1.2-2-2.4-3.1-3.5c-0.7-1-2.1-1.2-3.1-0.5l-0.2,0.2c-0.9,0.5-1.2,1.7-0.7,2.6c0.1,0.2,0.2,0.3,0.4,0.5
				C104.2,115.7,105.2,116.8,106.3,118 M104.3,113.5c-0.4-0.5-0.4-0.8,0-1.1s0.8-0.3,1.2,0.2c1.1,1.2,2.1,2.4,3.2,3.7
				c0.4,0.5,0.4,0.8,0,1.1s-0.8,0.3-1.2-0.2C106.5,116,105.4,114.7,104.3,113.5L104.3,113.5z M104.3,121.8l1.3-0.8
				c-0.8-1.2-1.7-2.5-2.5-3.8s-1.6-2.5-2.4-3.8l-1.2,0.7c0.5,0.8,0.9,1.5,1.4,2.2s1,1.5,1.5,2.2c-1.4-1.2-2.8-2.5-4.2-3.7l-1.7,0.9
				c0.8,1.2,1.6,2.5,2.4,3.7s1.7,2.5,2.5,3.7l1.2-0.7l-1.8-2.7c-0.6-0.9-1.2-1.8-1.8-2.7c0.9,0.8,1.7,1.5,2.6,2.2L104.3,121.8z
				 M93.8,118.8c0.9,1.3,1.7,2.5,2.6,3.8l-1.4,0.5c-0.2-0.7-0.4-1.4-0.6-2.2S94,119.6,93.8,118.8L93.8,118.8z M94.3,117l-2.1,0.8
				c0.4,1.4,0.8,2.9,1.2,4.3l1.2,4.3l1.3-0.5c-0.1-0.5-0.3-1-0.4-1.6l1.7-0.7L98,125l1.4-0.6c-0.9-1.2-1.7-2.5-2.6-3.7L94.3,117
				L94.3,117z M90.9,127.6l1.4-0.4c-0.5-1.4-1-2.8-1.5-4.2s-1-2.8-1.5-4.2l-1.4,0.4c0.5,1.4,1,2.8,1.5,4.2S90.4,126.2,90.9,127.6
				L90.9,127.6z M85.4,125.2l0.7-0.2c0.1,0.5,0.3,1,0.4,1.6s-0.1,0.9-0.6,1c-0.4,0.2-0.8,0-1-0.4c0,0,0,0,0,0c0-0.1,0-0.1,0-0.2
				c-0.2-0.8-0.4-1.5-0.6-2.3s-0.4-1.5-0.6-2.3c-0.2-0.6,0.1-0.9,0.6-1c0.4-0.1,0.8,0.1,1,0.5c0,0,0,0.1,0,0.1
				c0.1,0.3,0.2,0.6,0.2,0.9l1.4-0.3c-0.1-0.3-0.1-0.6-0.2-0.8c-0.1-1.1-1.1-1.9-2.2-1.8c0,0-0.1,0-0.1,0c-0.1,0-0.3,0-0.4,0.1
				c-1.1,0.1-1.9,1.1-1.8,2.2c0,0,0,0,0,0c0,0.1,0,0.3,0.1,0.4c0.2,0.7,0.4,1.5,0.6,2.2l0.5,2.2c0.2,1.1,1.2,1.9,2.3,1.8
				c0,0,0,0,0,0c0.1,0,0.3-0.1,0.4-0.1c1.1-0.1,1.9-1.1,1.8-2.2c0-0.1,0-0.3-0.1-0.4l-0.7-2.7l-2.1,0.4L85.4,125.2z M78.4,122.7
				c0.2,0.7,0.4,1.4,0.6,2.2s0.4,1.4,0.6,2.2l-1.4,0.1c0-0.7,0.1-1.5,0.1-2.2L78.4,122.7L78.4,122.7z M79.4,121l-2.2,0.2
				c-0.1,1.5-0.2,3-0.3,4.4s-0.2,3-0.3,4.4l1.4-0.1c0-0.5,0.1-1.1,0.1-1.6l1.8-0.2l0.4,1.6l1.5-0.1c-0.4-1.4-0.8-2.8-1.2-4.3
				S79.8,122.5,79.4,121L79.4,121z M70.3,121.3l-2.1-0.1c-0.1,1.5-0.1,2.9-0.2,4.4s-0.1,2.9-0.2,4.4h1.3c0-1,0.1-2.1,0.1-3.1
				s0.1-2.1,0.1-3.1c0.2,1,0.3,2.1,0.4,3.1s0.3,2.1,0.4,3.1h1.4c0.2-1,0.4-2.1,0.7-3.1s0.4-2.1,0.7-3.1c0,1-0.1,2.1-0.1,3.1
				s-0.1,2.1-0.1,3.1h1.4c0.1-1.4,0.1-2.9,0.2-4.4s0.1-2.9,0.2-4.4h-2.1c-0.2,1-0.4,2.1-0.7,3.1s-0.4,2.1-0.7,3.1
				c-0.2-1-0.3-2.1-0.4-3.1S70.4,122.3,70.3,121.3L70.3,121.3z M61.3,125l2.7,0.5l0.3-1.2l-2.7-0.5C61.5,124.2,61.4,124.6,61.3,125
				L61.3,125z M52.4,126.4c1.2,0.4,2.5,0.9,3.8,1.3c0.2-0.4,0.3-0.8,0.5-1.2l-2.3-0.8c0.5-1.2,1-2.4,1.4-3.6s1-2.4,1.5-3.6l-1.4-0.5
				c-0.6,1.4-1.2,2.8-1.7,4.2L52.4,126.4z M51.7,117.9c-0.6,1.4-1.1,2.9-1.7,4.3l-1.3-0.6C49.7,120.3,50.7,119.1,51.7,117.9
				L51.7,117.9z M53.5,117l-2-1l-3,3.6l-3,3.6l1.2,0.6c0.3-0.4,0.7-0.9,1.1-1.3l1.6,0.8l-0.6,1.6l1.3,0.7c0.6-1.4,1.1-2.9,1.6-4.3
				S53,118.4,53.5,117z M126.8,81.4c2.9-2,5.8,2.7,2.9,4.5c-1.1,0.9-2.8,0.8-3.8-0.3c-0.9-1.1-0.8-2.8,0.3-3.8c0,0,0.1-0.1,0.1-0.1
				C126.5,81.6,126.7,81.5,126.8,81.4L126.8,81.4z M20.5,91.9c2.8-2.1,5.9,2.6,2.8,4.4C20.5,98.1,17.3,94.2,20.5,91.9z M15.6,95.7
				c1.1,3.9,8.3,13.1,10.7,15.6c29.5,30.6,80.6,26.3,102.2-11.4c1.6-2.8,7.5-13.6,6.4-18.1c-0.9-3.3-4.3-5.2-7.6-4.3
				c-0.2,0.1-0.4,0.1-0.6,0.2c-3.3,1.3-3.7,4.6-4.9,7.8c-2.7,7.2-7,13.8-12.6,19.2c-19.4,18.6-50.1,19.2-69.4,2.6
				C26.2,95.7,28.1,86.2,20,88c-3.3,0.8-5.3,4.1-4.5,7.4L15.6,95.7z"/>
		</g>
	</g>
</g>
</svg>
