<?xml version="1.0" encoding="utf-8"?>
<!-- Generator: Adobe Illustrator 26.3.1, SVG Export Plug-In . SVG Version: 6.00 Build 0)  -->
<svg version="1.1" id="Capa_1" xmlns="http://www.w3.org/2000/svg" xmlns:xlink="http://www.w3.org/1999/xlink" x="0px" y="0px"
	 viewBox="0 0 247.7 247.7" style="enable-background:new 0 0 247.7 247.7;" xml:space="preserve">
<style type="text/css">
	.st0{opacity:0.16;}
</style>
<g id="Capa_2_00000159444149030595162100000001795753494119457974_" class="st0">
	<g id="Capa_1-2">
		<g>
			<path d="M27.5,0c0,0.1,0.1,0.2,0.1,0.3c4.5,7.6,8,15.7,11.5,23.8c2.8,6.5,5.7,13.1,9.2,19.3c4.2,7.8,9.7,14.9,16.2,20.9
				c5.7,5.1,12.1,9.4,19,12.8c6.8,3.3,13.7,6.4,20.6,9.5c6.9,3,13.7,6.4,20.2,10.1c11.8,7,21.4,17,28,29c3.6,6.7,6.9,13.6,9.9,20.6
				c2.9,6.8,5.9,13.5,9.4,20c4.3,8.3,10,15.7,16.9,22c5.6,4.9,11.8,9.1,18.5,12.5c6.8,3.6,14,6.6,21,9.7c6.6,2.8,13,5.9,19.2,9.5
				c0.1,0.1,0.3,0.1,0.5,0.1v6.4c-3.9-2.6-8-5-12.2-7c-5-2.4-10.1-4.7-15.2-6.9c-7.2-3-14.2-6.4-21-10.1c-0.3-0.1-0.5-0.3-1-0.5
				l2.6,4.8c0.6,1.1,1,2.5,1.9,3.4c1.1,0.8,2.2,1.4,3.5,1.8c7,3.1,14,6.2,21,9.4c7,3.1,13.7,6.9,19.9,11.4c0.2,0.1,0.4,0.2,0.6,0.2
				v7c-0.2-0.1-0.4-0.2-0.6-0.3c-5.7-4.8-12-8.8-18.7-12c-7.2-3.4-14.5-6.6-21.8-9.9c-0.2,0-0.3-0.1-0.5-0.1l0.4,1
				c0.7,1.5,1.4,3.1,2,4.6c0.3,0.7,0.8,1.3,1.6,1.6c6,2.6,12,5.2,17.8,8.4c6.9,3.6,13.2,8.1,18.8,13.4c0.3,0.3,0.6,0.7,0.8,1h-7.9
				c-1.6-1.3-3.2-2.7-5-3.9c-6.9-4.8-14.2-8.8-21.9-12.1c-0.1,0-0.2,0-0.4,0c0.2,0.4,0.3,0.7,0.4,1.1c0.7,1.5,1.5,3,2.1,4.6
				c0.4,0.9,1,1.6,1.9,2c4.5,2.2,8.8,4.7,12.9,7.5c0.4,0.3,0.7,0.6,1,0.9h-16.3c-0.2-0.4-0.5-0.9-0.7-1.3
				c-2.6-5.5-5.2-10.9-7.7-16.5c-3.1-6.9-6.1-13.9-9.6-20.6c-7.4-14.3-19-26.1-33.3-33.6c-5.3-2.8-10.8-5.4-16.3-7.8
				c-7-3.1-14.1-6.1-20.9-9.6c-15.7-7.7-28.5-20.4-36.2-36.2c-2.4-4.9-4.8-9.9-7-14.9c-3.1-7-6.1-14.1-9.7-20.9
				c-3.4-6.6-7.6-12.8-12.6-18.4C54.1,61.5,46.9,56,38.9,51.8c-6.7-3.6-13.6-6.6-20.6-9.7C12.1,39.4,5.9,36.7,0,33.4V17.1
				c0.3,0.4,0.7,0.8,1,1.2c2.8,4.1,5.4,8.5,7.6,13c0.3,0.6,0.7,1.1,1.3,1.3c1.8,0.8,3.6,1.7,5.4,2.5c0.3,0.1,0.6,0.2,0.9,0.2
				l-0.8-1.8c-3.1-7.1-6.9-13.9-11.3-20.2C2.8,11.5,1.4,9.9,0,8.2V0.2c0.3,0.2,0.6,0.4,0.9,0.6c1.4,1.5,2.7,3,4,4.5
				c5,6.3,9.3,13.2,12.6,20.6c1.8,3.9,3.5,7.8,5.3,11.7c0.2,0.4,0.4,0.9,0.7,1.1c2.1,1,4.2,1.9,6.5,2.9c-0.1-0.2-0.1-0.4-0.2-0.6
				c-3-6.6-5.8-13.3-8.9-19.8c-3.4-7.4-7.8-14.4-13-20.7C7.8,0.4,7.7,0.2,7.7,0h6.9c0.2,0.3,0.4,0.6,0.6,0.9C16.5,3,18,5.1,19.3,7.2
				c3.6,6.1,6.9,12.5,9.7,19.1c2.7,6,5.3,11.9,8,17.8c0.3,0.6,0.8,1.2,1.4,1.5c2.1,1.1,4.2,2.2,6.2,3.3l0.9,0.5
				c-1.7-3.3-3.4-6.3-4.9-9.6c-3.2-6.9-6.2-13.9-9.4-20.9C28.4,12.3,25,6,21,0H27.5z M169.3,173.2c-0.1-0.2-0.1-0.4-0.2-0.5
				c-3.4-6-6.4-12.2-9.1-18.5c-3.1-7.1-6.1-14.2-9.7-21.1c-3.5-6.8-7.9-13.2-13-18.9c-6.2-6.5-13.4-12-21.4-16.1
				c-6.5-3.5-13.3-6.5-20-9.4c-7-2.9-13.8-6.2-20.5-9.8l-1.1-0.6c0.2,0.4,0.3,0.7,0.4,0.9c1.1,2.1,2.3,4.2,3.4,6.3
				c0.3,0.7,0.9,1.2,1.5,1.5c4.4,2,8.8,4,13.2,5.9c6.9,3,13.7,6.1,20.3,9.7c13.5,7.2,24.6,18.3,31.8,31.8c2.8,5.2,5.4,10.6,7.8,16
				c2.6,5.9,5.3,11.7,7.9,17.6c0.3,0.7,0.8,1.2,1.5,1.5c2.1,1.1,4.1,2.2,6.2,3.3L169.3,173.2z M153.9,165.5
				c-0.2-0.5-0.3-0.8-0.4-1.1l-2.1-4.9c-3.1-7.1-6.1-14.1-9.9-20.9c-4.2-7.9-9.7-15-16.2-21.1c-5.9-5.3-12.6-9.8-19.8-13.2
				c-7.5-3.6-15.2-7-22.8-10.4c-0.1,0-0.1,0-0.3,0.1c0.8,1.8,1.7,3.7,2.4,5.5c0.3,0.7,0.9,1.3,1.6,1.6c6,2.6,11.9,5.2,17.7,8.3
				c5.5,2.9,10.7,6.4,15.5,10.4c7.1,6.1,13,13.4,17.5,21.6c3.3,6,6.3,12.2,8.9,18.5c0.6,1.8,2,3.3,3.9,3.8
				C151.1,164.2,152.5,164.8,153.9,165.5z M88.4,107.6c0,0.2,0,0.4,0.1,0.5c0.9,2,1.8,4,2.8,6c0.2,0.4,0.6,0.8,1,1
				c2.6,1.4,5.2,2.7,7.7,4.2c9.1,5.2,17,12.2,23.2,20.5c3.5,4.8,6.5,9.9,9.1,15.3c0.3,0.6,0.7,1.1,1.4,1.4c1.8,0.8,3.6,1.7,5.4,2.5
				c0.3,0.1,0.7,0.2,1,0.3c-1.8-3.7-3.4-7.1-5.2-10.6c-4.5-9-10.5-17-17.9-23.8C108.6,117.4,98.8,112.3,88.4,107.6z M96.4,123.5
				c3.1,8.1,19.6,24.6,27.7,27.7C120.4,142.5,105.3,127.3,96.4,123.5L96.4,123.5z"/>
			<path d="M247.7,123.6v8.2c-0.2-0.1-0.4-0.3-0.6-0.5c-5.7-6.4-12.4-11.9-19.9-16.1c-6.4-3.6-13-6.8-19.8-9.7
				c-6.8-3-13.7-5.9-20.3-9.4c-7.3-3.7-14-8.4-19.9-14.1c-6-5.9-11-12.7-14.9-20.1c-3.3-6.1-6.1-12.5-8.9-18.9
				c-2.9-6.8-5.9-13.5-9.4-20c-4.5-8.6-10.5-16.3-17.8-22.7c-0.1-0.1-0.2-0.2-0.3-0.4h8.2c0.4,0.5,0.8,0.9,1.2,1.4
				c4.5,4.2,9.5,7.9,14.9,11c6.4,3.6,13,6.8,19.8,9.7c7,3.1,14,6.1,20.8,9.6c15.1,7.6,27.4,19.8,35.1,34.9
				c2.9,5.7,5.6,11.5,8.1,17.3c3,6.9,6,13.8,9.6,20.5c3.5,6.7,7.9,12.9,13.1,18.4C247,123.1,247.3,123.3,247.7,123.6z M136.4,16.5
				l0.5,0.9c1.1,2,2.2,4,3.2,6.1c0.3,0.7,0.8,1.2,1.5,1.5c4.4,2,8.8,4,13.2,5.9c7,3.1,14,6.2,20.8,9.9c13.2,7.2,24,18,31.2,31.2
				c2.8,5.1,5.3,10.4,7.7,15.8c2.7,6.1,5.5,12.3,8.2,18.4c0.3,0.6,0.7,1.1,1.3,1.4c2.2,1.1,4.3,2.3,6.4,3.4c0.2,0.1,0.5,0.2,0.9,0.3
				c-3.9-7-7.4-14.2-10.4-21.5c-2.9-6.8-5.9-13.4-9.3-19.8c-7.4-14.4-19.1-26.2-33.5-33.7c-5.6-3-11.4-5.6-17.2-8.2
				c-8.2-3.6-16.4-7.1-24.2-11.5C136.6,16.5,136.5,16.5,136.4,16.5z M144.2,32.1c0.8,1.9,1.7,3.7,2.4,5.6c0.3,0.6,0.8,1.2,1.4,1.4
				c5.5,2.5,11,5,16.4,7.6c15.8,7.6,28.5,20.3,36.2,36c2.4,4.8,4.6,9.8,6.9,14.6c0.5,1,0.7,2.3,1.5,3.1c1,0.7,2,1.2,3.2,1.6
				c1.1,0.5,2.2,1,3.6,1.6l-2.1-4.7c-3-6.9-6-13.8-9.4-20.4c-7.1-14.1-18.2-25.7-32-33.4C163.3,40,153.7,36.2,144.2,32.1z
				 M201.9,97.5c-2.3-5.3-4.8-10.5-7.7-15.4c-5.5-9.8-13.2-18.2-22.4-24.6c-6.7-4.5-13.8-8.4-21.3-11.6c-0.1,0-0.1,0-0.2,0.1
				c0,0.1,0,0.2,0,0.3c0.9,2,1.9,4,2.8,6c0.2,0.4,0.6,0.8,1.1,1c2.3,1.3,4.7,2.4,7,3.8c7.2,4.1,13.8,9.3,19.4,15.4
				c5,5.7,9.3,12,12.6,18.9c0.9,2.1,2.5,3.6,4.6,4.4C199.2,96.1,200.4,96.8,201.9,97.5z M158.3,61.6c6.5,11.6,16.1,21.2,27.7,27.7
				C179.5,77.7,169.9,68.1,158.3,61.6z"/>
			<path d="M0,123.8c8.6,8.6,19,14.4,29.9,19.3c6.7,3,13.4,5.9,20.1,9c6.4,2.9,12.5,6.3,18.2,10.4c8.3,6,15.2,13.5,20.5,22.2
				c3.9,6.7,7.4,13.6,10.4,20.8c3,6.9,6,13.9,9.4,20.6c3.9,8,9.1,15.3,15.3,21.6h-8.2c-0.2-0.2-0.5-0.5-0.7-0.7
				c-5.2-4.3-10.9-7.9-16.9-10.9c-6.3-3-12.6-5.9-19-8.7c-6.9-2.9-13.6-6.2-20.2-9.9c-8.4-4.8-15.7-11.1-21.8-18.6
				c-4.6-5.8-8.4-12.2-11.5-18.9c-3.3-7-6.3-14-9.5-21.1c-3-7-6.6-13.7-10.8-20.1c-1.6-2.4-3.5-4.6-5.2-6.9V123.8z M107.5,235.2
				l-1.6-2.9c-3.7-6.8-6.7-13.9-9.8-20.9c-3-7.2-6.4-14.1-10.2-20.9c-5.9-10.3-14-19.1-23.9-25.7c-5.4-3.5-11-6.6-16.8-9.2
				c-6.6-3-13.4-5.9-20-8.9c-4.2-2-8.4-4.1-12.6-6.2c0,0.1,0,0.2,0,0.2c1.3,2.4,2.5,4.7,3.8,7.1c0.3,0.4,0.7,0.8,1.1,1
				c2.8,1.3,5.5,2.6,8.3,3.8c7,3.2,14.2,6.3,21.1,9.7c6.8,3.2,13.1,7.4,18.8,12.3c6.9,6.1,12.6,13.3,17,21.4
				c3.7,6.5,6.7,13.4,9.7,20.2c2,4.6,4.2,9.3,6.3,13.9c0.2,0.5,0.6,0.9,1,1.2C102.3,232.5,104.8,233.7,107.5,235.2z M20.4,155.9
				c0.8,1.8,1.6,3.7,2.4,5.5c0.3,0.7,0.9,1.3,1.6,1.6c5.6,2.6,11.3,5.1,16.8,7.9c5.8,2.9,11.3,6.5,16.3,10.7
				c7,6,12.9,13.2,17.4,21.3c3.4,6.1,6.5,12.4,9.1,18.9c0.6,1.8,2,3.3,3.9,3.9c1.4,0.5,2.8,1.1,4.2,1.8c-0.4-0.8-0.6-1.4-0.8-1.9
				c-3.2-7.1-6.3-14.2-9.7-21.2c-3.3-6.9-7.5-13.3-12.5-19.1c-5.9-6.6-12.8-12.1-20.5-16.3C39.4,163.8,29.9,160,20.4,155.9z
				 M26.7,169.6l-0.2,0.2c0.9,2,1.9,4,2.8,6c0.3,0.6,0.8,1.1,1.4,1.3c2.3,1.2,4.5,2.4,6.8,3.6c8.7,4.9,16.4,11.4,22.7,19.2
				c4.1,5.3,7.6,10.9,10.4,16.9c0.3,0.7,0.9,1.3,1.7,1.6c1.6,0.7,3.2,1.5,4.8,2.2c0.3,0.1,0.7,0.2,1.2,0.4c-0.2-0.4-0.2-0.6-0.3-0.8
				c-2.4-5.3-5-10.5-8-15.5c-4.1-7-9.3-13.3-15.5-18.7c-5.9-5-12.4-9.2-19.3-12.6C32.2,172.2,29.5,170.9,26.7,169.6L26.7,169.6z
				 M62.2,213.1c-3.2-5.8-7.3-11.1-11.9-15.8c-4.7-4.7-10-8.7-15.8-12C41,197,50.6,206.6,62.2,213.1z"/>
			<path d="M0,39.4c10,4.5,20,9,29.9,13.7c6.8,3.1,13.2,7.1,19,11.8c7.1,6,13.2,13.2,17.7,21.2c3.8,6.7,7.1,13.7,10.1,20.8
				c2.9,6.7,5.8,13.4,9.2,19.8c3.9,7.6,8.9,14.5,14.9,20.6c5.9,5.6,12.5,10.4,19.7,14.2c6.7,3.6,13.7,6.6,20.6,9.6
				c6.5,2.7,12.9,5.8,19.2,9.2c7.9,4.3,14.9,10,20.9,16.7c4.6,5.3,8.5,11.1,11.6,17.3c2.7,5.4,5.2,10.9,7.7,16.3
				c2.6,5.6,5.1,11.3,7.7,17h-5.7c-0.9-1.9-1.8-3.9-2.7-5.8c-3.1-6.8-6-13.6-9.2-20.4c-3.2-6.9-7.3-13.3-12.1-19.2
				c-6.2-7.3-13.6-13.4-22-18c-6.1-3.4-12.5-6.4-18.9-9.1c-7-3.1-14-6.1-20.8-9.6c-15-7.6-27.2-19.8-34.7-34.8
				c-2.8-5.5-5.3-11.1-7.9-16.7c-3.1-6.8-6-13.7-9.5-20.4c-7.5-14.9-19.6-26.9-34.4-34.4c-5.1-2.6-10.2-5-15.4-7.3
				c-5-2.3-10-4.5-15-6.7V39.4z"/>
			<path d="M0,50.8c8.6,3.9,17.5,7.4,25.8,11.9c6.7,3.4,12.9,7.7,18.5,12.7c6.9,6.5,12.6,14.2,16.9,22.6c3.7,6.9,6.6,14.2,9.9,21.3
				c2.3,5.1,4.7,10.2,7.2,15.2c7.6,15.1,19.9,27.4,35,35c7,3.6,14.2,6.7,21.3,9.9c5.6,2.4,11.1,5,16.5,7.9
				c14.2,7.4,25.8,19,33.2,33.2c3.6,6.9,6.7,13.9,9.9,21c0.9,2.1,1.8,4.1,2.8,6.2h-5.7c-0.2-0.5-0.3-0.9-0.5-1.4
				c-3.2-7.3-6.3-14.6-10.1-21.6c-6.8-12.8-16.2-23.3-28.7-30.9c-6-3.5-12.3-6.7-18.7-9.5c-7-3.1-13.9-6.2-20.8-9.5
				c-6.6-3.1-12.7-7-18.3-11.6c-7-5.9-12.9-13-17.5-21c-3.4-6-6.4-12.2-9.1-18.5c-3-6.9-6-13.9-9.4-20.6c-3.5-7-7.9-13.6-13.1-19.4
				c-6.1-6.6-13.3-12.1-21.2-16.3C16.1,63.3,8.2,60,0.4,56.5c-0.1,0-0.2,0-0.4,0V50.8z"/>
			<path d="M247.7,198.1c-0.2-0.4-0.5-0.8-0.7-1.3c-2.9-6.5-5.8-13-8.7-19.5c-3-6.7-6.8-13.1-11.2-19c-6.3-8.2-14.2-15-23.3-20.1
				c-6.5-3.6-13.2-6.8-20-9.7c-6.5-2.9-12.9-5.8-19.3-8.9c-7.3-3.6-14-8.2-19.9-13.7c-6.4-6.2-11.7-13.4-15.8-21.3
				c-3.6-6.7-6.6-13.7-9.6-20.6c-2.7-6.2-5.5-12.4-8.7-18.3c-4.3-8.2-10.1-15.5-16.9-21.7c-5.7-4.9-12-9.1-18.7-12.4
				C68,8.4,61.1,5.3,54.2,2.2c-1.6-0.7-3.1-1.5-4.7-2.2h12.6c0.4,0.2,0.7,0.4,1.1,0.6c5.6,2.6,11.2,5.1,16.7,7.9
				c15.1,7.4,27.3,19.4,34.9,34.4c2.8,5.3,5.3,10.8,7.8,16.3c3.2,7,6.1,14,9.7,20.9c7.5,14.5,18.1,25.9,32.5,33.8
				c6.1,3.3,12.4,6.2,18.7,9c7,3.1,14.1,6.1,20.9,9.7c14.6,7.3,26.5,19,34,33.4c3.3,6,6.1,12.3,8.8,18.5c0.2,0.4,0.4,0.7,0.6,1.1
				L247.7,198.1z"/>
			<path d="M0,61.9c7.3,3,14.4,6.4,21.3,10.2c7.9,4.3,14.9,10,20.9,16.7c4.9,5.7,9.1,12.1,12.3,18.9c3.3,7,6.5,14.1,9.7,21.1
				c2.8,6.5,6,12.8,9.5,18.9c7,11.7,17,21.3,29,27.9c6.6,3.7,13.6,6.8,20.5,9.8c7.1,3.1,14.2,6.2,21,9.9c8.1,4.4,15.4,10.1,21.6,17
				c4.8,5.5,8.8,11.6,12.1,18.2c2.8,5.6,5.3,11.4,7.9,17H180c0-0.1,0-0.2-0.1-0.4c-3.1-7.3-6.7-14.5-10.9-21.3
				c-6.6-10.5-15.7-19.2-26.5-25.3c-6.7-3.8-13.7-7.2-20.8-10.2c-6.5-2.8-13-5.6-19.3-8.9c-6.3-3.2-12.1-7.1-17.5-11.6
				c-6.4-5.6-11.8-12.2-16-19.5c-3.7-6.5-7-13.2-9.9-20.1c-2.7-6-5.3-12.1-8.2-18c-3.2-6.7-7.1-12.9-11.8-18.6
				C33.6,87.2,27,81.6,19.5,77.2c-6.1-3.5-12.4-6.7-18.9-9.5c-0.2-0.1-0.4-0.1-0.6-0.1V61.9z"/>
			<path d="M247.7,172.9c-0.2-0.4-0.5-0.8-0.7-1.1c-2.1-4.5-4.3-8.9-6.9-13.1c-6.9-11.8-16.8-21.5-28.8-28.1
				c-6.8-3.7-13.8-7.1-20.9-10.1c-6.9-3-13.8-6-20.4-9.6c-8.4-4.4-15.9-10.2-22.2-17.2c-4.8-5.6-8.9-11.7-12.2-18.3
				c-3.5-6.8-6.5-13.9-9.6-20.9c-2.4-5.4-4.9-10.8-7.7-16c-7.4-14.1-18.8-25.6-32.9-33c-3.2-1.7-6.4-3.2-9.6-4.8
				c-0.4-0.2-0.7-0.4-1-0.6h11.8c0.9,0.5,1.8,1.1,2.7,1.5c14,7.3,25.4,18.7,32.8,32.6c2.8,5.2,5.3,10.5,7.7,15.9
				c3.1,7.1,6.1,14.2,9.7,21.1c3.4,6.9,7.7,13.2,12.8,19c6.4,7,14,12.8,22.4,17.1c6.6,3.5,13.4,6.4,20.2,9.4
				c7,2.9,13.8,6.2,20.5,9.9c7.9,4.4,15,10.2,20.9,17.1c4.2,5,7.8,10.5,10.8,16.3c0.2,0.4,0.5,0.7,0.7,1.1L247.7,172.9z"/>
			<path d="M247.7,150.3c-0.2-0.2-0.3-0.4-0.5-0.6c-7.6-12.6-18.1-21.9-31-28.7c-6.7-3.6-13.7-6.6-20.6-9.6
				c-6.8-2.9-13.5-6.1-19.9-9.7c-8.5-4.7-16-11-22.2-18.5c-4.8-6.1-8.9-12.7-12.1-19.8c-3.2-6.9-6.2-13.9-9.4-20.9
				c-2.8-6.3-6-12.4-9.6-18.2c-6.1-9.5-14.2-17.6-23.9-23.5c-0.4-0.3-0.8-0.5-1.2-0.8h9.9c0.2,0.2,0.4,0.5,0.7,0.7
				c1,0.8,2,1.6,3,2.4c7.3,6.1,13.5,13.6,18.1,22c3.6,6.5,6.8,13.2,9.7,20c3.1,7.1,6.2,14.3,9.9,21.2c7.3,13.9,18.6,25.2,32.4,32.6
				c5.6,3,11.4,5.7,17.2,8.2c7.2,3.2,14.5,6.2,21.4,9.9c7.7,4.1,14.9,8.9,20.9,15.3c2.6,2.7,4.8,5.6,7.2,8.5L247.7,150.3z"/>
			<path d="M0,140.9c0.4,0.5,0.8,0.9,1.1,1.4c3.9,5.8,7.2,11.8,10,18.2c3.1,6.8,6.1,13.7,9.2,20.5c1.8,3.8,3.7,7.5,5.8,11.2
				c7.1,12.7,17.6,23,30.3,29.9c6.7,3.7,13.6,6.8,20.6,9.9c7.3,3,14.4,6.4,21.3,10.2c2.5,1.5,5,3.1,7.4,4.6c0.3,0.2,0.6,0.5,0.9,0.8
				h-9.7c-0.7-0.4-1.3-0.9-2-1.2c-6.1-3.4-12.4-6.4-18.8-9.1c-7.1-3.1-14.2-6.1-21-9.7c-7.2-3.7-13.8-8.4-19.7-14
				c-5.9-5.9-10.9-12.6-14.8-20c-3.4-6.3-6.3-12.8-9.1-19.3c-3-6.9-6-13.8-9.7-20.4c-0.6-1.1-1.3-2.2-2-3.3L0,140.9z"/>
			<path d="M37.6,0c0.1,0.1,0.3,0.3,0.5,0.3c1.4,0.5,2.4,1.6,2.9,3c3.1,7.1,6.3,14.2,9.5,21.3c2.2,5,4.7,9.8,7.5,14.5
				c7,11.8,17,21.5,29,28c6.6,3.7,13.5,6.8,20.4,9.8c4.7,2.1,9.4,4.2,14.1,6.3c0.7,0.3,1.2,0.8,1.5,1.4c1.2,2.3,2.4,4.7,3.7,7
				c-0.1,0-0.2,0.1-0.3,0c-7.8-4.5-16.1-8-24.3-11.6c-5.6-2.5-11.2-5-16.7-7.9C70.8,64.8,59,52.9,51.5,38.4
				c-3.5-6.8-6.6-13.8-9.7-20.7c-2.5-5.4-5.1-10.8-7.6-16.2C34,0.9,33.7,0.5,33.4,0H37.6z"/>
			<path d="M247.7,214.2c-7-3.8-14.4-6.9-21.7-10.2c-5.6-2.5-11.1-5.1-16.5-7.9c-14.7-7.4-26.6-19.3-34.1-33.9
				c-3.4-6.5-6.4-13.2-9.3-19.9c-3-7.2-6.4-14.2-10.2-21c0-0.1-0.1-0.3-0.1-0.4c2.6,1.4,5.2,2.7,7.7,4.1c0.4,0.3,0.7,0.7,0.8,1.2
				c2.4,5.2,4.8,10.5,7.1,15.8c2.9,6.6,5.9,13.1,9.4,19.3c7.6,13.4,18.9,24.2,32.6,31.2c6.9,3.6,14.1,6.7,21.2,9.9
				c3.5,1.5,6.9,3.1,10.4,4.7c0.9,0.4,1.6,1.1,2,2c0.2,0.4,0.4,0.7,0.6,1L247.7,214.2z"/>
			<path d="M0,161.5c0.3,0.4,0.5,0.8,0.8,1.2c3,6.6,5.9,13.2,9,19.7c2.3,4.9,4.6,9.9,7.1,14.7c7.4,14.5,19.1,26.3,33.6,33.7
				c6.7,3.5,13.6,6.5,20.5,9.6c4.8,2.1,9.4,4.3,14.2,6.5c0.4,0.2,0.8,0.4,1.2,0.7H74.3c-0.3-0.2-0.6-0.4-1-0.5l-8.9-3.9
				c-7.1-3-14.1-6.3-20.8-10.1c-8.9-5-16.7-11.8-23-19.9c-4.4-5.9-8.2-12.3-11.2-19c-2.9-6.3-5.6-12.6-8.4-18.9
				c-0.3-0.7-0.7-1.3-1-2V161.5z"/>
			<path d="M247.7,67.4c-0.2,0-0.4-0.1-0.6-0.1c-7-3-14-6-20.8-9.5c-7.3-3.7-14-8.3-19.9-13.9c-6.2-6.1-11.4-13-15.5-20.7
				c-3.6-6.6-6.6-13.6-9.6-20.5c-0.4-0.9-0.7-1.8-1-2.6h5.4c2.7,5.9,5.4,11.9,8.3,17.7c3.5,7,7.9,13.6,13.3,19.3
				c5.9,6.2,12.8,11.4,20.4,15.5c6.5,3.6,13.2,6.5,20,9.5L247.7,67.4z"/>
			<path d="M0,186c0.2,0.4,0.5,0.9,0.7,1.3c2.8,6.5,5.8,13.1,9.2,19.3c4.4,8,10.1,15.2,17,21.3c5.3,4.6,11.2,8.5,17.5,11.6
				c5.3,2.7,10.8,5.1,16.2,7.6c0.4,0.2,0.7,0.4,1.1,0.6H49c-0.4-0.2-0.8-0.5-1.3-0.7c-4-2.1-8.1-4-12-6.3
				c-11.1-6.2-20.3-15.1-27-25.9c-3-4.8-5.6-9.8-8-14.9c-0.2-0.4-0.5-0.9-0.7-1.3V186z"/>
			<path d="M247.7,56.2c-0.2,0-0.4-0.1-0.6-0.1c-7.5-3.1-14.7-6.8-21.6-11.1c-10.6-6.8-19.3-16.2-25.4-27.2
				c-3.1-5.5-5.9-11.2-8.4-17.1c-0.1-0.2-0.1-0.5-0.2-0.7h5.4c2,4,3.9,8.1,6,12.1c6.7,12.9,17,23.7,29.6,31c4.9,2.9,10,5.4,15.2,7.7
				L247.7,56.2z"/>
			<path d="M131.8,247.7l-2-1.9c-6.5-6.1-11.9-13.3-16.1-21.2c-3.5-6.4-6.4-13.2-9.4-19.9c-3-7.3-6.5-14.5-10.3-21.5
				c0-0.1-0.1-0.3-0.1-0.4l0.9,0.4c2,1,3.9,2.2,5.9,3.1c0.9,0.4,1.5,1.1,1.9,1.9c2.6,5.9,5.3,11.8,7.9,17.7
				c2.7,6.2,5.7,12.3,9.1,18.2c5.1,8.9,12,16.6,20.3,22.8c0.2,0.2,0.4,0.4,0.6,0.6H131.8z"/>
			<path d="M0,107.2c0.2,0.1,0.4,0.3,0.5,0.4c7.2,9.9,16.5,17.2,27.2,22.9c6.5,3.5,13.3,6.4,20,9.4c4,1.8,7.9,3.6,11.8,5.4
				c0.6,0.3,1.2,0.8,1.5,1.4c1.2,2.3,2.4,4.7,3.7,7c-0.1,0-0.2,0-0.4,0c-7.3-4-14.8-7.6-22.5-10.8c-6.6-2.9-13.2-5.8-19.5-9.3
				c-8.3-4.4-15.8-10.3-22-17.4c-0.1-0.1-0.2-0.2-0.4-0.3L0,107.2z"/>
			<path d="M150.1,247.7c-0.2-0.2-0.4-0.4-0.6-0.6c-12.9-7.8-22.3-18.9-29.2-32.2c-3.4-6.7-6.4-13.6-9.4-20.4l-1.7-3.9
				c0.4,0.2,0.7,0.3,1,0.4c1.6,0.7,3.2,1.5,4.9,2.1c0.6,0.3,1.2,0.8,1.4,1.4c2.5,5.4,4.9,10.9,7.6,16.2c3,6,6.7,11.7,11,16.9
				c5.6,6.6,12.4,12.3,19.9,16.6c1.7,1,3.4,1.9,5.1,2.9c0.3,0.2,0.6,0.4,0.9,0.6H150.1z"/>
			<path d="M0,86.7c0.3,0.5,0.7,1,1,1.5c3.3,6.4,7.4,12.3,12.2,17.7c6.1,6.5,13.2,12,21.1,16.2c6,3.3,12.3,6.1,18.6,8.9
				c0.9,0.3,1.6,1,1.9,1.9c0.7,1.8,1.5,3.6,2.4,5.5c-0.5-0.2-0.7-0.3-1-0.4c-7.3-3.3-14.7-6.5-21.9-10c-6.3-3-12.3-6.8-17.7-11.3
				C10.3,111.5,5,105.3,0.7,98.3c-0.2-0.3-0.5-0.7-0.7-1V86.7z"/>
			<path d="M0,73.1c1.8,0.8,3.6,1.7,5.4,2.5c0.7,0.3,1.3,0.9,1.6,1.6c2.9,6,6.4,11.6,10.4,16.9c6.2,7.8,13.8,14.3,22.5,19.1
				c2.2,1.3,4.5,2.5,6.9,3.7c0.7,0.3,1.2,0.9,1.5,1.5c0.9,2,1.8,4,2.8,6c-0.2,0-0.3,0-0.4,0c-7.6-3.2-14.8-7.2-21.6-11.8
				C19.5,105.9,11.7,97,6.2,86.7c-2-3.6-3.8-7.3-5.6-11c-0.2-0.3-0.4-0.6-0.6-0.9V73.1z"/>
			<path d="M172.9,247.7c-0.4-0.2-0.9-0.5-1.3-0.7c-6.9-3.1-13.5-6.8-19.6-11.2c-8.9-6.5-16.3-14.9-21.6-24.6
				c-2.5-4.5-4.7-9.2-7-13.8c-0.1-0.2-0.2-0.5-0.3-0.8c0.4,0.2,0.7,0.3,1,0.4c1.6,0.7,3.1,1.5,4.7,2.2c1,0.4,1.8,1.2,2.2,2.1
				c2.6,5.4,5.8,10.6,9.4,15.4c6.2,8.2,14,15,23,20c2.4,1.4,4.8,2.7,7.3,3.9c0.6,0.3,1.1,0.8,1.4,1.4c0.8,1.8,1.7,3.7,2.6,5.5
				L172.9,247.7z"/>
			<path d="M247.7,45.1c-18-7.9-32.3-19.9-41.4-37.7C205,5,203.8,2.5,202.6,0h5.7c1.1,2,2.1,4,3.2,6c5.5,10,13.2,18.7,22.6,25.4
				c4.3,3,8.9,5.7,13.6,8.1V45.1z"/>
			<path d="M247.7,115.7c-0.9-1-1.8-2-2.6-3.1c-4.5-6.1-8.4-12.6-11.5-19.6c-3.1-6.7-5.9-13.4-9-20.1c-2.1-4.5-4.5-8.9-6.7-13.4
				l-0.3-0.6l1.1,0.6c1.9,1,3.8,2.1,5.8,3.1c0.9,0.4,1.6,1.1,1.9,1.9c2.7,6.2,5.5,12.3,8.2,18.4c3,7.1,6.5,13.9,10.6,20.4
				c0.8,1.2,1.7,2.3,2.5,3.5L247.7,115.7z"/>
			<path d="M140.9,0c0.4,0.3,0.8,0.7,1.2,1c6.1,4.1,12.6,7.7,19.4,10.6c7,3.2,14,6.3,21.1,9.4c1.2,0.5,2.2,1.4,2.7,2.6
				c1,2.1,2.2,4.1,3.3,6.3c-0.1,0-0.2,0-0.3,0c-7.3-4-14.9-7.7-22.6-10.9c-6.2-2.7-12.5-5.4-18.4-8.7c-5.2-2.7-10.1-6-14.6-9.7
				c-0.2-0.2-0.5-0.5-0.7-0.7H140.9z"/>
			<path d="M247.7,33.4c-14.4-7.4-26.1-19.1-33.4-33.4h6.2c0.2,0.4,0.3,0.7,0.5,1.1c6.3,10.5,15.2,19.4,25.7,25.7
				c0.3,0.2,0.7,0.3,1,0.5L247.7,33.4z"/>
			<path d="M0,220.4c0.3,0.1,0.7,0.3,1,0.5c10.6,6.3,19.4,15.2,25.8,25.8c0.2,0.3,0.3,0.7,0.5,1H21c-5.5-8.4-12.6-15.5-21-21
				L0,220.4z"/>
			<path d="M247.7,16.8v9.7c-0.3-0.4-0.5-0.7-0.8-1.1c-6-9.9-14.3-18.2-24.1-24.3c-0.6-0.4-1.1-0.7-1.6-1.1h9.9
				c0.2,0.3,0.5,0.5,0.7,0.8c4,2.9,7.6,6.3,10.9,10C244.4,12.7,246,14.8,247.7,16.8z"/>
			<path d="M247.7,97.1c-0.3-0.4-0.6-0.8-0.8-1.2c-3.5-6.2-6.7-12.6-9.4-19.2l-4-9.2c-0.1-0.2-0.2-0.4-0.3-0.9
				c1.4,0.7,2.9,1.3,4.4,1.9c1.7,0.5,3.1,1.9,3.6,3.6c1.8,4.4,3.9,8.6,5.9,12.9c0.2,0.4,0.4,0.8,0.7,1.1L247.7,97.1z"/>
			<path d="M161.5,0c0.4,0.3,0.7,0.5,1.1,0.7c4.8,2.2,9.5,4.4,14.3,6.5c0.8,0.3,1.4,0.9,1.6,1.7c0.7,1.6,1.4,3.2,2.1,4.9
				c0.1,0.2,0.2,0.4,0.3,0.8l-2.3-1c-7-3.2-14.1-6.4-21.1-9.7c-2.4-1.1-4.6-2.6-7-3.9L161.5,0z"/>
			<path d="M0,233.3c1.7,1.4,3.5,2.7,5.2,4.2c3.2,2.9,6.2,6,8.8,9.5c0.2,0.2,0.3,0.5,0.4,0.7H7.4c-2.2-2.7-4.7-5.2-7.4-7.4V233.3z"
				/>
			<path d="M247.7,7.9c-0.1,0-0.1-0.1-0.2-0.1l-7.6-7.6c0-0.1-0.1-0.1-0.1-0.2h7.9L247.7,7.9z"/>
			<path d="M0,210.5c0.5,0.8,1,1.6,1.4,2.4c0.5,0.9,1,1.9,1.4,2.8L0,214.2V210.5z"/>
			<path d="M33.4,247.7l-1.4-2.8l0.1-0.2l5.1,2.9H33.4z"/>
			<path d="M171.1,128.6c1.4,0.6,2.7,1.2,3.9,1.7c1,0.3,2,0.8,2.9,1.4c0.6,0.9,1.1,1.8,1.4,2.9c2.7,6.4,5.8,12.8,9.2,18.9
				c7.7,13.7,19.3,24.7,33.4,31.6c5.5,2.8,11.2,5.3,16.9,7.9c0.8,0.3,1.4,1,1.7,1.8c0.7,1.8,1.6,3.6,2.4,5.6
				c-0.5-0.2-0.8-0.3-1.2-0.5c-7-3.2-14-6.2-20.9-9.5c-6.6-3.1-12.8-7-18.5-11.7c-7.1-6-13.1-13.1-17.6-21.2
				c-3.7-6.6-7-13.4-9.9-20.3l-3.3-7.6L171.1,128.6z"/>
			<path d="M47.3,4.7c2.3,1,4.4,1.9,6.5,2.9c0.4,0.3,0.7,0.7,0.8,1.1c2,4.3,3.8,8.6,5.9,12.8c3.1,6.7,7,13,11.5,18.8
				c6.2,7.7,13.8,14,22.4,18.8c6.6,3.6,13.4,6.9,20.4,9.8c0.9,0.3,1.7,1.1,2,2c0.7,1.8,1.5,3.5,2.3,5.3c-0.2,0-0.3,0.1-0.3,0
				c-7.6-3.4-15.2-6.8-22.7-10.4c-6.4-3-12.4-6.9-17.9-11.4C70.9,48.4,64.9,41,60.4,32.7c-3.7-6.9-7.1-13.9-10.1-21.2L47.3,4.7z"/>
			<path d="M185,134.7c0.4,0.2,0.7,0.3,0.9,0.4c1.8,0.8,3.6,1.7,5.4,2.5c0.6,0.3,1.1,0.7,1.4,1.3c2.4,4.9,5.1,9.6,8.2,14
				c6.5,9.2,14.9,16.8,24.8,22.2c2.3,1.3,4.6,2.5,7,3.7c0.6,0.3,1.1,0.8,1.3,1.4c0.8,1.8,1.7,3.6,2.5,5.4c0.1,0.2,0.2,0.5,0.4,0.9
				c-0.2,0-0.3-0.1-0.5-0.1c-7.5-3.2-14.6-7.1-21.4-11.6c-9.4-6.6-17.2-15.3-22.7-25.4c-2.5-4.5-4.6-9.2-7-13.8
				C185.2,135.2,185.1,135.1,185,134.7z"/>
			<path d="M61.4,10.9c2.2,1,4.3,2,6.5,3.1c0.4,0.3,0.8,0.7,1,1.2c2.3,4.6,4.9,9,7.7,13.2c6.7,9.7,15.6,17.7,26,23.3
				c2,1.2,4.1,2.2,6.2,3.3c0.6,0.3,1,0.7,1.2,1.3c0.9,2.1,1.9,4.1,3,6.4l-1.1-0.5c-5-2.2-9.8-4.6-14.5-7.3
				C85,47.8,74.7,37.2,67.8,24.5C65.4,20.1,63.3,15.6,61.4,10.9z"/>
			<path d="M76.9,18.8c11.5,6.5,23.7,18.8,28,28C96.5,43.5,81.1,28,76.9,18.8z"/>
			<path d="M228.7,170.6c-11.7-6.5-21.3-16.2-27.9-27.9C212.5,149.3,222.1,159,228.7,170.6z"/>
			<path d="M43.1,108.8c-9-3.9-23.1-18-28.2-28.2C20.8,84,26.2,88.1,31,92.9C35.7,97.7,39.8,103,43.1,108.8z"/>
			<path d="M166.8,232.6c-11.7-6.6-21.3-16.2-27.9-27.9C150.6,211.3,160.2,220.9,166.8,232.6z"/>
		</g>
	</g>
</g>
</svg>
