<svg xmlns="http://www.w3.org/2000/svg" viewBox="0 0 251.55 158.11">
  <defs>
    <style>
      .cls-1 {
        fill: #fff;
      }

      .cls-2 {
        fill: #201e20;
      }
    </style>
  </defs>
  <g id="Capa_2" data-name="Capa 2">
    <g id="Capa_1-2" data-name="Capa 1">
      <g>
        <path class="cls-1" d="M3.31,22.66V6.58c0-4.1,2.27-6.58,6-6.58s6.13,2.48,6.13,6.58V9.46H13.7v-3c0-3-1.66-4.79-4.3-4.79S5.18,3.45,5.18,6.5V22.74c0,3,1.62,4.79,4.22,4.79s4.3-1.75,4.3-4.79V19h1.79v3.7c0,4.1-2.23,6.57-6.13,6.57S3.31,26.76,3.31,22.66Z"/>
        <path class="cls-1" d="M28.44,28.83a17.76,17.76,0,0,1-.29-3.09A5.1,5.1,0,0,1,23,29.23c-2.89,0-4.59-1.82-4.59-4.87s1.38-4.79,5.16-6.45A20.91,20.91,0,0,0,27.22,16,2.39,2.39,0,0,0,28,14.17V13.6c0-2.31-1.3-3.69-3.53-3.69a3.52,3.52,0,0,0-3.78,3.86v.44h-1.7v-.36c0-3.58,2.11-5.57,5.52-5.57s5.28,2,5.28,5.57v9.82a23,23,0,0,0,.4,5.16Zm-.49-7V17.09c-.32.53-1.58,1.3-3.82,2.28-2.75,1.18-3.85,2.6-3.85,4.83s1.14,3.41,3.21,3.41C26.2,27.61,28,25.38,28,21.81Z"/>
        <path class="cls-1" d="M37.33,4.38V8.69h4.26v1.58H37.33V28.83H35.5V10.27H32.7V8.69h2.8V4.26Q35.5,0,39.4,0a5.07,5.07,0,0,1,2.19.41V2a4.33,4.33,0,0,0-2-.4C38,1.63,37.33,2.39,37.33,4.38Z"/>
        <path class="cls-1" d="M55.27,14.74V18.8H45.69v4.14c0,3.13,1.3,4.67,3.85,4.67s3.94-1.54,3.94-4.67v-.49h1.79v.33c0,4.18-2,6.45-5.73,6.45S43.86,27,43.86,22.78v-8c0-4.18,2-6.46,5.68-6.46S55.27,10.56,55.27,14.74Zm-9.58,2.44h7.79v-2.6c0-3.13-1.3-4.67-3.94-4.67s-3.85,1.54-3.85,4.67ZM53,.93,49.58,5.81H48L50.85.93Z"/>
        <path class="cls-1" d="M65.82,28.83V.41h2.6L76.78,24V.41h1.79V28.83H76.5L67.61,3.41V28.83Z"/>
        <path class="cls-1" d="M92,28.83a18.08,18.08,0,0,1-.28-3.09,5.11,5.11,0,0,1-5.12,3.49c-2.88,0-4.58-1.82-4.58-4.87s1.38-4.79,5.15-6.45A21.15,21.15,0,0,0,90.83,16a2.39,2.39,0,0,0,.73-1.87V13.6c0-2.31-1.3-3.69-3.54-3.69a3.52,3.52,0,0,0-3.77,3.86v.44H82.54v-.36c0-3.58,2.11-5.57,5.52-5.57s5.29,2,5.29,5.57v9.82a23,23,0,0,0,.4,5.16Zm-.48-7V17.09c-.33.53-1.59,1.3-3.82,2.28C85,20.55,83.88,22,83.88,24.2s1.14,3.41,3.21,3.41C89.81,27.61,91.56,25.38,91.56,21.81Z"/>
        <path class="cls-1" d="M97.28,22.86v-8.2c0-4.19,2-6.38,5.64-6.38s5.52,2.11,5.52,6.38v.53H106.7v-.7c0-3-1.26-4.58-3.78-4.58s-3.81,1.54-3.81,4.58V23c0,3.05,1.25,4.59,3.81,4.59s3.78-1.54,3.78-4.59V21.89h1.74v1c0,4.26-1.82,6.37-5.52,6.37S97.28,27,97.28,22.86Z"/>
        <path class="cls-1" d="M112.06,5.4V1.34h1.82V5.4Zm0,23.43V8.69h1.82V28.83Z"/>
        <path class="cls-1" d="M117.86,14.74c0-4.18,2-6.46,5.68-6.46s5.69,2.28,5.69,6.46v8c0,4.18-2,6.45-5.69,6.45s-5.68-2.27-5.68-6.45Zm9.54-.16c0-3.13-1.3-4.67-3.86-4.67s-3.85,1.54-3.85,4.67v8.36c0,3.13,1.3,4.67,3.85,4.67s3.86-1.54,3.86-4.67Z"/>
        <path class="cls-1" d="M144.41,14.05V28.83h-1.83V14.33c0-3-1.09-4.42-3.32-4.42-2.56,0-4.23,2.19-4.23,5.76V28.83h-1.82V8.69h1.58l0,2.92a4.84,4.84,0,0,1,4.83-3.33C142.83,8.28,144.41,10.19,144.41,14.05Z"/>
        <path class="cls-1" d="M157.72,28.83a18.08,18.08,0,0,1-.28-3.09,5.11,5.11,0,0,1-5.12,3.49c-2.88,0-4.59-1.82-4.59-4.87s1.38-4.79,5.16-6.45A21.15,21.15,0,0,0,156.51,16a2.42,2.42,0,0,0,.72-1.87V13.6c0-2.31-1.29-3.69-3.53-3.69a3.52,3.52,0,0,0-3.77,3.86v.44h-1.71v-.36c0-3.58,2.12-5.57,5.52-5.57s5.28,2,5.28,5.57v9.82a22.31,22.31,0,0,0,.41,5.16Zm-.49-7V17.09c-.32.53-1.58,1.3-3.81,2.28-2.76,1.18-3.86,2.6-3.86,4.83s1.14,3.41,3.21,3.41C155.49,27.61,157.23,25.38,157.23,21.81Z"/>
        <path class="cls-1" d="M163.33,28.83V.41h1.82V28.83Z"/>
      </g>
      <g>
        <path class="cls-1" d="M14,46H10.37v13.9c0,1.52.57,2.09,2,2.09A5.86,5.86,0,0,0,14,61.67V66a7.37,7.37,0,0,1-2.76.47c-3.95,0-5.95-1.94-5.95-5.9V46H2.57V41.68h3L6,35.11h4.33v6.57H14Z"/>
        <path class="cls-1" d="M16.33,49.1c0-5.09,2.66-7.9,7.43-7.9s7.42,2.81,7.42,7.9v9.42c0,5.1-2.67,7.9-7.42,7.9s-7.43-2.8-7.43-7.9Zm9.81-.47c0-2-.81-3-2.38-3s-2.38,1-2.38,3V59c0,2,.8,3,2.38,3s2.38-1,2.38-3Z"/>
        <path class="cls-1" d="M33.67,59v-.76h4.85v.9c0,2,.76,3,2.24,3S43,61.24,43,59.48a2.41,2.41,0,0,0-.58-1.57c-.71-1-1.28-1.33-2.95-2.29a21.24,21.24,0,0,1-2-1.23c-.43-.34-1-.77-1.66-1.39a6.75,6.75,0,0,1-1.86-5.09c0-4.14,2.43-6.71,6.81-6.71,4.19,0,6.8,2.71,6.8,7.09v.53H42.76v-.67c0-1.76-.67-2.62-2-2.62s-2,.76-2,2.29c0,1.76,1.24,2.81,3.72,4.14a13.23,13.23,0,0,1,3.61,2.57,6.2,6.2,0,0,1,1.81,4.85c0,4.38-2.43,7-6.95,7S33.67,63.71,33.67,59Z"/>
        <path class="cls-1" d="M60.8,46H57.13v13.9c0,1.52.58,2.09,2,2.09a5.86,5.86,0,0,0,1.71-.28V66a7.37,7.37,0,0,1-2.76.47c-3.95,0-5.95-1.94-5.95-5.9V46H49.33V41.68h3l.47-6.57h4.33v6.57H60.8Z"/>
        <path class="cls-1" d="M73.42,66A7.74,7.74,0,0,1,73,63.09a5.14,5.14,0,0,1-5.14,3.33c-3.24,0-5.28-2.33-5.28-6.09s1.61-6,5.85-8.08a18,18,0,0,0,3.28-1.86,2.19,2.19,0,0,0,.67-1.62v-.48c0-1.85-.67-2.76-2-2.76s-2.28.95-2.28,2.81v.91H63.33v-.62c0-4.76,2.47-7.43,7.09-7.43,5,0,7,2.53,7,8V59A31.18,31.18,0,0,0,78,66Zm-1-7.9V53.91A17,17,0,0,1,70,55.72a4.26,4.26,0,0,0-2.29,3.76c0,1.76.71,2.61,2.14,2.61C71.56,62.09,72.42,60.76,72.42,58.05Z"/>
        <path class="cls-1" d="M91.8,66a9.87,9.87,0,0,1-.43-2.86,4.9,4.9,0,0,1-4.9,3.33c-3.67,0-5.48-2.37-5.48-7.09v-11c0-4.71,1.81-7.09,5.48-7.09a5,5,0,0,1,4.33,2.24V32.64h5V59a31.92,31.92,0,0,0,.57,7Zm-1-7.9V49.58c0-2.62-.86-3.9-2.62-3.9-1.43,0-2.14,1-2.14,3V59c0,2,.71,3,2.14,3C89.94,62,90.8,60.67,90.8,58.05Z"/>
        <path class="cls-1" d="M99.28,49.1c0-5.09,2.66-7.9,7.42-7.9s7.43,2.81,7.43,7.9v9.42c0,5.1-2.67,7.9-7.43,7.9s-7.42-2.8-7.42-7.9Zm9.8-.47c0-2-.8-3-2.38-3s-2.38,1-2.38,3V59c0,2,.81,3,2.38,3s2.38-1,2.38-3Z"/>
        <path class="cls-1" d="M139.74,41.68,135,65l-.66,3c-.91,4.15-2.81,5.76-6.67,5.76a6.33,6.33,0,0,1-2.71-.48V69a5.85,5.85,0,0,0,1.86.29c1.71,0,2.33-.48,2.66-2l.1-.33-5.85-25.27h5.13l3.24,16.7,2.9-16.7Z"/>
        <path class="cls-1" d="M174.16,48.29V66h-5V48.63c0-2-.67-3-2.05-3-1.66,0-2.52,1.28-2.52,3.9V66h-5V48.63c0-2-.67-3-2-3-1.67,0-2.53,1.28-2.53,3.9V66h-5V41.68h4.38l.1,2.81a5.17,5.17,0,0,1,9.61-.05,5,5,0,0,1,4.76-3.24C172.35,41.2,174.16,43.58,174.16,48.29Z"/>
        <path class="cls-1" d="M177.46,49.1c0-5.09,2.66-7.9,7.43-7.9s7.42,2.81,7.42,7.9v9.42c0,5.1-2.67,7.9-7.42,7.9s-7.43-2.8-7.43-7.9Zm9.81-.47c0-2-.81-3-2.38-3s-2.39,1-2.39,3V59c0,2,.81,3,2.39,3s2.38-1,2.38-3Z"/>
        <path class="cls-1" d="M195.75,66V32.64h5V66Z"/>
        <path class="cls-1" d="M204.7,38.68V33.16h5v5.52Zm0,27.27V41.68h5V66Z"/>
        <path class="cls-1" d="M224.12,66a9.87,9.87,0,0,1-.43-2.86,4.9,4.9,0,0,1-4.9,3.33c-3.67,0-5.47-2.37-5.47-7.09v-11c0-4.71,1.8-7.09,5.47-7.09a5,5,0,0,1,4.33,2.24V32.64h5V59a31.18,31.18,0,0,0,.58,7Zm-1-7.9V49.58c0-2.62-.86-3.9-2.62-3.9-1.43,0-2.14,1-2.14,3V59c0,2,.71,3,2.14,3C222.26,62,223.12,60.67,223.12,58.05Z"/>
        <path class="cls-1" d="M231.6,49.1c0-5.09,2.66-7.9,7.43-7.9s7.42,2.81,7.42,7.9v9.42c0,5.1-2.67,7.9-7.42,7.9s-7.43-2.8-7.43-7.9Zm9.81-.47c0-2-.81-3-2.38-3s-2.38,1-2.38,3V59c0,2,.8,3,2.38,3s2.38-1,2.38-3Z"/>
        <path class="cls-1" d="M15.92,108a10.43,10.43,0,0,1-.48-3.2A5.5,5.5,0,0,1,10,108.48c-4.11,0-6.14-2.67-6.14-7.94V88.16c0-5.27,2-7.94,6.14-7.94a5.65,5.65,0,0,1,4.85,2.5V70.62h5.65v29.49a35.52,35.52,0,0,0,.64,7.84ZM14.8,99.1V89.6c0-2.93-1-4.37-2.93-4.37-1.6,0-2.4,1.12-2.4,3.3v11.63c0,2.19.8,3.31,2.4,3.31C13.84,103.47,14.8,102,14.8,99.1Z"/>
        <path class="cls-1" d="M41,95.58H29.94v4.58c0,2.19,1,3.31,2.83,3.31s2.82-1.12,2.82-3.31v-1H41v.48c0,5.71-3,8.85-8.38,8.85s-8.37-3.14-8.37-8.85V89.07c0-5.71,3-8.85,8.37-8.85S41,83.36,41,89.07ZM29.94,91.1h5.55V88.53c0-2.18-.91-3.3-2.77-3.3s-2.78,1.12-2.78,3.3Z"/>
        <path class="cls-1" d="M64.29,108a8.73,8.73,0,0,1-.43-3.2,5.75,5.75,0,0,1-5.76,3.73c-3.63,0-5.92-2.61-5.92-6.82s1.81-6.72,6.56-9.07a21,21,0,0,0,3.68-2.08,2.46,2.46,0,0,0,.75-1.81v-.54c0-2.08-.75-3.09-2.3-3.09s-2.56,1.07-2.56,3.15v1H53v-.7c0-5.32,2.77-8.31,7.94-8.31,5.55,0,7.9,2.82,7.9,9v10.93a35.52,35.52,0,0,0,.64,7.84ZM63.17,99.1V94.45a17.37,17.37,0,0,1-2.78,2,4.81,4.81,0,0,0-2.56,4.21c0,2,.8,2.94,2.4,2.94C62.21,103.63,63.17,102.14,63.17,99.1Z"/>
        <path class="cls-1" d="M73.13,108V70.62h5.66V108Z"/>
        <path class="cls-1" d="M94.47,85.55H90.36v15.57c0,1.71.64,2.35,2.19,2.35a6.75,6.75,0,0,0,1.92-.32V108a8.31,8.31,0,0,1-3.1.53c-4.42,0-6.66-2.19-6.66-6.61V85.55H81.62v-4.8H85l.54-7.36h4.85v7.36h4.11Z"/>
        <path class="cls-1" d="M108.6,108a8.73,8.73,0,0,1-.43-3.2,5.73,5.73,0,0,1-5.76,3.73c-3.62,0-5.92-2.61-5.92-6.82s1.82-6.72,6.56-9.07a20.56,20.56,0,0,0,3.68-2.08,2.42,2.42,0,0,0,.75-1.81v-.54c0-2.08-.75-3.09-2.29-3.09-1.71,0-2.56,1.07-2.56,3.15v1H97.29v-.7c0-5.32,2.78-8.31,7.95-8.31,5.55,0,7.89,2.82,7.89,9v10.93a36.15,36.15,0,0,0,.64,7.84Zm-1.12-8.85V94.45a17.08,17.08,0,0,1-2.77,2,4.79,4.79,0,0,0-2.56,4.21c0,2,.8,2.94,2.4,2.94C106.52,103.63,107.48,102.14,107.48,99.1Z"/>
        <path class="cls-1" d="M125.45,89c0-5.6,2.93-8.74,8.27-8.74s8.05,3.25,8.05,8.74v1.66h-5.44V88.43c0-2.13-.85-3.2-2.61-3.2s-2.62,1.07-2.62,3.2v11.84c0,2.13.86,3.2,2.62,3.2s2.61-1.07,2.61-3.2V97.55h5.44v2.19c0,5.49-2.72,8.74-8.05,8.74s-8.27-3.14-8.27-8.74Z"/>
        <path class="cls-1" d="M156.28,108a9,9,0,0,1-.43-3.2,5.74,5.74,0,0,1-5.76,3.73c-3.62,0-5.92-2.61-5.92-6.82s1.81-6.72,6.56-9.07a21,21,0,0,0,3.68-2.08,2.46,2.46,0,0,0,.75-1.81v-.54c0-2.08-.75-3.09-2.3-3.09-1.7,0-2.56,1.07-2.56,3.15v1H145v-.7c0-5.32,2.78-8.31,7.95-8.31,5.54,0,7.89,2.82,7.89,9v10.93a35.52,35.52,0,0,0,.64,7.84Zm-1.12-8.85V94.45a17.6,17.6,0,0,1-2.77,2,4.8,4.8,0,0,0-2.57,4.21c0,2,.8,2.94,2.4,2.94C154.19,103.63,155.16,102.14,155.16,99.1Z"/>
        <path class="cls-1" d="M165.13,108V70.62h5.65V108Z"/>
        <path class="cls-1" d="M175.15,77.39V71.2h5.66v6.19Zm0,30.56V80.75h5.66V108Z"/>
        <path class="cls-1" d="M196.91,108a11.13,11.13,0,0,1-.48-3.2,5.49,5.49,0,0,1-5.49,3.73c-4.11,0-6.13-2.67-6.13-7.94V88.16c0-5.27,2-7.94,6.13-7.94a5.62,5.62,0,0,1,4.85,2.5V70.62h5.65v29.49a35.4,35.4,0,0,0,.65,7.84Zm-1.12-8.85V89.6c0-2.93-1-4.37-2.93-4.37-1.6,0-2.4,1.12-2.4,3.3v11.63c0,2.19.8,3.31,2.4,3.31C194.83,103.47,195.79,102,195.79,99.1Z"/>
        <path class="cls-1" d="M216.8,108a8.81,8.81,0,0,1-.42-3.2,5.75,5.75,0,0,1-5.77,3.73c-3.62,0-5.92-2.61-5.92-6.82s1.82-6.72,6.57-9.07a20.33,20.33,0,0,0,3.67-2.08,2.42,2.42,0,0,0,.75-1.81v-.54c0-2.08-.75-3.09-2.29-3.09-1.71,0-2.56,1.07-2.56,3.15v1h-5.34v-.7c0-5.32,2.78-8.31,7.95-8.31,5.55,0,7.9,2.82,7.9,9v10.93A36.28,36.28,0,0,0,222,108Zm-1.12-8.85V94.45a16.59,16.59,0,0,1-2.77,2,4.79,4.79,0,0,0-2.56,4.21c0,2,.8,2.94,2.4,2.94C214.72,103.63,215.68,102.14,215.68,99.1Z"/>
        <path class="cls-1" d="M237.38,108a10.9,10.9,0,0,1-.47-3.2,5.51,5.51,0,0,1-5.5,3.73c-4.1,0-6.13-2.67-6.13-7.94V88.16c0-5.27,2-7.94,6.13-7.94a5.65,5.65,0,0,1,4.86,2.5V70.62h5.65v29.49a35.52,35.52,0,0,0,.64,7.84Zm-1.11-8.85V89.6c0-2.93-1-4.37-2.94-4.37-1.6,0-2.4,1.12-2.4,3.3v11.63c0,2.19.8,3.31,2.4,3.31C235.31,103.47,236.27,102,236.27,99.1Z"/>
        <path class="cls-1" d="M245.68,108.5v-5.87h5.87v5.87Z"/>
      </g>
      <g>
        <path class="cls-1" d="M92.83,131.66H13.24a13.23,13.23,0,1,0,0,26.45H92.83a13.2,13.2,0,0,0,9.35-3.86,13.06,13.06,0,0,0,3.89-9.35A13.23,13.23,0,0,0,92.83,131.66ZM15,152.74a7.86,7.86,0,1,1,7.87-7.84A7.86,7.86,0,0,1,15,152.74Z"/>
        <g>
          <path class="cls-2" d="M27.05,141.1c0-2,1-3.09,2.91-3.09s2.9,1.13,2.9,3.09v1.33H31V141c0-.77-.33-1.16-1-1.16s-1,.39-1,1.16v7c0,.77.33,1.15,1,1.15s1-.38,1-1.15v-1.83h1.86v1.69c0,2-1,3.09-2.9,3.09s-2.91-1.14-2.91-3.09Z"/>
          <path class="cls-2" d="M33.85,144.4c0-1.92,1-3,2.8-3s2.8,1.06,2.8,3V148c0,1.92-1,3-2.8,3s-2.8-1.06-2.8-3Zm3.7-.18c0-.73-.31-1.11-.9-1.11s-.9.38-.9,1.11v3.92c0,.73.31,1.11.9,1.11s.9-.38.9-1.11Z"/>
          <path class="cls-2" d="M46.31,144.1v6.66h-1.9v-6.45c0-.81-.27-1.2-.79-1.2s-1,.48-1,1.47v6.18H40.74V141.6H42.4l0,1.06a1.83,1.83,0,0,1,1.83-1.24C45.63,141.42,46.31,142.32,46.31,144.1Z"/>
          <path class="cls-2" d="M47.55,144.4c0-1.92,1-3,2.8-3s2.8,1.06,2.8,3V148c0,1.92-1,3-2.8,3s-2.8-1.06-2.8-3Zm3.69-.18c0-.73-.3-1.11-.89-1.11s-.9.38-.9,1.11v3.92c0,.73.3,1.11.9,1.11s.89-.38.89-1.11Z"/>
          <path class="cls-2" d="M54.26,144.37c0-1.89,1-3,2.78-3s2.71,1.1,2.71,3v.55H57.92v-.73c0-.72-.29-1.08-.88-1.08s-.88.36-.88,1.08v4c0,.72.29,1.08.88,1.08s.88-.36.88-1.08v-.91h1.83V148c0,1.85-.91,2.95-2.71,2.95s-2.78-1.06-2.78-2.95Z"/>
          <path class="cls-2" d="M66.43,146.59H62.7v1.55c0,.73.32,1.11.95,1.11s.95-.38.95-1.11v-.35h1.83V148c0,1.92-1,3-2.82,3s-2.82-1.06-2.82-3V144.4c0-1.92,1-3,2.82-3s2.82,1.06,2.82,3Zm-3.73-1.51h1.86v-.86c0-.73-.3-1.11-.93-1.11s-.93.38-.93,1.11Z"/>
          <path class="cls-2" d="M79.71,144.1v6.66h-1.9v-6.54c0-.73-.25-1.11-.77-1.11s-1,.48-1,1.47v6.18H74.18v-6.54c0-.73-.25-1.11-.77-1.11s-1,.48-1,1.47v6.18h-1.9V141.6h1.65l0,1.06a1.82,1.82,0,0,1,1.8-1.24,1.77,1.77,0,0,1,1.83,1.22,1.89,1.89,0,0,1,1.8-1.22C79,141.42,79.71,142.32,79.71,144.1Z"/>
          <path class="cls-2" d="M84.83,150.76a3.08,3.08,0,0,1-.15-1.08,1.93,1.93,0,0,1-1.94,1.26c-1.21,0-2-.88-2-2.3s.61-2.26,2.21-3a7.78,7.78,0,0,0,1.24-.7.85.85,0,0,0,.25-.61v-.18c0-.7-.25-1-.77-1s-.86.35-.86,1.06v.33H81v-.23a2.47,2.47,0,0,1,2.68-2.8c1.86,0,2.65,1,2.65,3v3.68a11.69,11.69,0,0,0,.22,2.64ZM86,138.23l-1.92,2.42H82.57l1.25-2.42Zm-1.53,9.55v-1.57a5.66,5.66,0,0,1-.93.69,1.59,1.59,0,0,0-.86,1.41c0,.67.26,1,.8,1S84.45,148.8,84.45,147.78Z"/>
          <path class="cls-2" d="M87.45,148.14v-.29h1.83v.34c0,.73.29,1.11.84,1.11s.83-.32.83-1a.9.9,0,0,0-.22-.59,2.86,2.86,0,0,0-1.11-.86,7,7,0,0,1-.75-.47,5.27,5.27,0,0,1-.63-.52,2.53,2.53,0,0,1-.7-1.92,2.33,2.33,0,0,1,2.56-2.53,2.44,2.44,0,0,1,2.57,2.68v.19H90.88V144c0-.66-.26-1-.76-1s-.73.28-.73.86.46,1.06,1.4,1.56a5.09,5.09,0,0,1,1.36,1,2.36,2.36,0,0,1,.68,1.83,2.4,2.4,0,0,1-2.62,2.66A2.54,2.54,0,0,1,87.45,148.14Z"/>
        </g>
      </g>
    </g>
  </g>
</svg>
