<svg xmlns="http://www.w3.org/2000/svg" viewBox="0 0 198.7 164.1">
  <defs>
    <style>
      .cls-1, .cls-2 {
        fill: #fff;
      }

      .cls-1 {
        fill-rule: evenodd;
      }

      .cls-3 {
        fill: #201e20;
      }

      .cls-4 {
        fill: #541f10;
      }
    </style>
  </defs>
  <g id="Capa_2" data-name="Capa 2">
    <g id="Capa_1-2" data-name="Capa 1">
      <g>
        <path class="cls-1" d="M117.79,30.47c-.37.6-.88,1-.36,2a1.41,1.41,0,0,0,1.91.44c1-.5,1.19-3-1.55-2.4"/>
        <path class="cls-1" d="M59,41.89l.38,3,9.38-.16c-.84-5.87-.45-2.3-.3-7.17.63,5.16,1.72,8.64,4.89,12.52a21.82,21.82,0,0,0,33.71.15c3.56-4.28,5.17-8.57,5-16.15l.18.27c.57,1.14.81,3.4.81,6.23l9.24-1.68-.21-3.22c1.43-.49,1.57.31,1.24-2.83A33.14,33.14,0,0,0,63.79,16.39a27.69,27.69,0,0,0-3.27,5.3,32.86,32.86,0,0,0-3.27,17.47c.29,3.42.27,2.5,1.79,2.73m-.72-.83c-1.18-3.76,0-11.17,1-14.39,8.59-27.17,45.5-31.09,59.46-5.84,1.9,3.43,3.92,9.26,3.85,13.77-.9.54-5.41,1.25-6.81,1.5A26.5,26.5,0,0,0,113,24.61a26.23,26.23,0,0,0-7.72-9,26.72,26.72,0,0,0-6.44-3.34A25.61,25.61,0,0,0,71.52,19c-.52.53-.86,1.18-1.38,1.75a24.3,24.3,0,0,0-4.38,8.64,26.56,26.56,0,0,0-.52,11.7ZM75.14,16.84a23.69,23.69,0,0,1,11.46-5,24.51,24.51,0,0,1,13.14,1.58c6.67,2.52,13.44,10,14.62,17.12l-2.88.46A21.78,21.78,0,0,0,98.69,16.16l-4.8-1.83a28.7,28.7,0,0,0-6.47.14A71,71,0,0,0,75.14,16.84ZM65.63,35.1a23.51,23.51,0,0,1,2.49-9.73,20.44,20.44,0,0,1,2.45-3.93c.71-.82,2-2.72,3-3.26-.09.59-.08,2.13-.19,2.52-.16.59-.73.71-1,1.73-.42,1.72.39.4-.69,2.15-.32.52-.51,1.21-.85,1.84a21.76,21.76,0,0,0-2.32,8.66Zm8.3-13.92c-.19-3.43.06-3.62,3.28-4.48a69.57,69.57,0,0,1,14.55-2c3.07,0,3.92.09,4.38,3.18a1.4,1.4,0,0,1,1.24.93c.55,1,0,.54,1.14,1.09a4.27,4.27,0,0,1,2.12,2.17c1,1.93,2.14,3.76,3,5.86a12.11,12.11,0,0,1,.8,3.79,18.1,18.1,0,0,0,1.1,3.41c1.29,3.2.9,4.56,2.9,5.87,0-.78-.33-.8-.81-1.37a3.56,3.56,0,0,1-.64-1.73,24.23,24.23,0,0,0-1.16-3.33c-2.06-5.26.53-3.42-5.08-13.26-.84-1.48-1.05-1.19-2.31-1.95-.84-.5-.32-.58-1-1.28-.47-.49-.78-.35-1-1,2.82.26,7.13,3.76,9.08,5.86,8.17,8.78,6.35,24.18-4.79,30.82a20.33,20.33,0,0,1-30.5-20.79c.08-.53.18-1,.29-1.45l.54-1.34c.14.37.73,1.47.73,1.49.1.44-.27.87-.29,1.5,0,1.87,1.22,2.22,1,3-1.11,4.55.83,2.75.3,5-.82,3.47,5.59,6.5,6.24,8.38.36,1.06.49,2.35.88,3.45,2.41,1.1,6.52,0,9.35.21,1.61.15,8,.66,9.29.11-.81-.44-7.27-.39-8.93-.54-3.15-.28-6,.35-9.29-.06-.33-1-.6-3.44-1.22-4.1-.09-.1-.51-.34-.74-.55l-1.84-1.69c-2-2-4.28-3.57-2.91-5.83-1.46-2.19-1.24-2.57-.4-4.87-1.12-.58-1.77-2.37-.64-4.17-1.15-1.11-1.67-1.94-.73-4.19.5-1.18-.64-1.33.16-2.57.53-.84.49,0,.65-1.16C72.93,22.19,72.88,21.66,73.93,21.18ZM65.57,36l1.68-.09c0,.51-.53,1-.8,1.56s-.38,1.14-.7,1.78Zm49.36-1.39c-.37-.52-.58-1.07-1-1.62-.76-1.06-1-.75-1-1.37l1.7-.2ZM67.86,43.89l-7.78.21-.27-2.25H66c.35-1.08.41-4.13,1.76-5.27A22.39,22.39,0,0,0,67.86,43.89ZM112.49,32.4c1.56.88,1.8,3.1,2.72,4.6l6.09-1.21.25,2.48-7.69,1.39a21.87,21.87,0,0,0-.38-3.81C113.22,34.55,112.76,33.55,112.49,32.4Z"/>
        <path class="cls-1" d="M79,43.38l2.09,8.51c2.75.53,14.43-.51,16.35-2.09.41-.53-.14-9.29-1.08-11.2l.29,10.29c-.32,1-6.58,1.67-7.15,1.74-1.94.23-5.87.69-7.62.33L80.3,44.38Z"/>
        <path class="cls-1" d="M97.49,20.25c-.13.86-.18,1.62-1,2a2.31,2.31,0,0,1-2.29-.42c-3-2.07-1.44-1.84-1.65-3.56-1.93-.35-1.44,2.78-1.31,3.2.56,1.69,3.71,3.09,5.08,4.2,1,.83,1.5,1.5,2.41,2.12l-1.3-.4a25.26,25.26,0,0,1,.64,3.51c.16,2.34-.22,3.16,1.49,5.92a7.32,7.32,0,0,0,1.66,2,3.19,3.19,0,0,1-2.83.45c.61,4.83.69,2.56,3.75,5.1L98.75,44A18.67,18.67,0,0,1,99,48.71c-.29,1.87-.8,1.74-2,2.59l.25.14.27.12.43.1c1.75.27,4.07-2.82,4.86-4l-.25,1,1.17.46a17.72,17.72,0,0,0,3.11-4.4,6.52,6.52,0,0,0-1.42-1.35c.28-1.08.91-1.42.75-3.06-.5-5.12-2.1-5.4-2.5-9.83-.18-1.92-1.65-4.46-2.47-6-1.09-2-1.54-3.75-3.69-4.26"/>
        <path class="cls-1" d="M74.87,18.51l-.08,3.07c-.88,1-1.1.4-1.16,2.19s-1.3.76-.79,2.53c1.91-.55-1.47-.49,3.56-1.95C81.14,23,89.51,22.15,90,22c0,0-.12.33.6-.3-.4-.62.34-.35-.83-.37-.14,0-.93.12-1.12.14l-6.45.93a78,78,0,0,0-7.91,1.88c-.11-2.19.52-1.87,2.53-2.44a72,72,0,0,1,13.5-2.25L91,18.16c.48-.9.29-.62.2-1.87a9.62,9.62,0,0,1,1.61,0c.21,0,.65,0,.81.08,1.68.38,0,1.88,1.71,2.33-.33-2.93-.39-3.07-3.31-3.1-4.63,0-13.34,1.21-17.15,2.94m11.28-1.84.26,2.6-6.33,1.06L80,17.61ZM75.52,21.49a10.42,10.42,0,0,1,0-2.3c.19-.53.92-.64,1.54-.79L77.23,21Z"/>
        <path class="cls-1" d="M80.76,34a2,2,0,0,0-.41-4c-2.82-.36-3.52,0-5.9,1.06-2.81,1.26-1.55,4.29-.36,4.14,1.43-.19,3.35-.9,6.67-1.23m.64-1.68c-.23,1.29-1,1.83-2.47,1.51-1-.2-2.12-1-2-2.16C77.18,30.24,82,28.92,81.4,32.31Z"/>
        <path class="cls-1" d="M80.26,34.89c2.87,0,2.68.3,2.13,3.18-1,.34-2.8.38-3.55-.22A2,2,0,0,1,78.36,36c.14-.6,1.32-.81,1.77-1.13l-2,.1c-1.4.16-3.38.41-4.23,1.27s-.6,2.67.19,3.62c2.79-1.41,4.37-1.06,7.49-1.29,2.32.29,4.13-4.68-1.35-3.69"/>
        <path class="cls-1" d="M76.72,41a1.68,1.68,0,0,0,2,.28c.59-.35.43-1,.68-1.63a2.2,2.2,0,0,1-.11,2c-1.94.35-4.21.18-2.33-1.81a3,3,0,0,0-3,1.77c.08,1.82,3.64,4.86,4.67,5.12A5.76,5.76,0,0,0,78.08,44c-1.17-.13-1.7,0-1.82-1.09,2,.87,4.94-1,3.78-3.14-1.08-.6-3.1,0-3.32,1.26"/>
        <path class="cls-1" d="M76.12,29.71c1.25-4.54-5.45-4-3.59.95,1.11.22,2.48-.58,3.59-.95m-3.33-1.66c1-1.65,3.14-.37,2.06,1.31a2.38,2.38,0,0,1-2,.75l-.21-1.37.53,1c1.24-.23,1.87-.72,1.22-1.88A2.43,2.43,0,0,0,72.79,28.05Z"/>
        <path class="cls-1" d="M97,19.92c-1-.17-3.26-1.3-3.84-1.2-.43,1.35,0,1.78,1.44,2.64,1.71,1.06,2.22.27,2.4-1.44"/>
        <path class="cls-1" d="M77.42,31.76c.34,2.19,4.49,2.51,3.36-.83a2.88,2.88,0,0,0-3.36.83"/>
        <path class="cls-1" d="M82.22,35.59a4.36,4.36,0,0,0-3.17.15c-.74,1.89,1.31,2.46,2.84,1.9Z"/>
        <path class="cls-1" d="M60.37,36.62A1.38,1.38,0,0,0,63.06,36a1.38,1.38,0,1,0-2.69.62"/>
        <path class="cls-1" d="M76.18,23.31a12.24,12.24,0,0,0,4.46-1.09c-1.3,0-3.68.17-4.46,1.09"/>
        <path class="cls-1" d="M86.28,21.31c.81.08,3.56.14,4.17-.52-.23-.2.06-.31-.92-.23a11.64,11.64,0,0,0-3.25.75"/>
        <path class="cls-1" d="M86.12,20.66l3.39-.24a4.29,4.29,0,0,0,.54-.11c.39-.15.16-.06.38-.27a.65.65,0,0,0-.42-.13l-2.9.35a1.82,1.82,0,0,0-1,.4"/>
        <path class="cls-1" d="M106.73,42c.35.23.72.47,1.06.72l.4-1-1-.86Z"/>
        <path class="cls-1" d="M76.43,22.28A16,16,0,0,0,78.66,22c1-.17,1.7-.2,2.18-.71a17.3,17.3,0,0,0-4.41,1"/>
        <path class="cls-1" d="M100.36,52.18a20.8,20.8,0,0,0,1.94-1.67l-.6-.33a11.65,11.65,0,0,0-1.34,2"/>
        <path class="cls-1" d="M96.68,28.35c.88-.09.88,2.47.94,2.85.18,1.17.49,3.55.27,3.55a65,65,0,0,0-13.6,1.34c.19-2.33-1.7-1.64-1.79-1.75L82,33.63c1.45.12,1-3.52.19-4,.59-.87,11.47-1,14.53-1.33"/>
        <path class="cls-1" d="M84.12.58A36.27,36.27,0,1,0,126,30C122.76,11.31,104.68-3.1,84.12.58M56,41.72a34.74,34.74,0,1,1,39.74,28.9A34.75,34.75,0,0,1,56,41.72Z"/>
        <path class="cls-2" d="M114.65,25.15l.27.59,3.69-1.66-.23-.52-2.22,1,2-1.59-.33-.73-3.69,1.66.23.52,2.68-1.2Zm1.81-6.71-.75.06.25.34.87.1Zm-3.79,1.47a1,1,0,1,0,1.14,1.57l1.7-1.24a.88.88,0,0,0,.26-1.37.9.9,0,0,0-1.39-.19Zm2.11-.74c.24-.17.4-.13.52,0s.11.34-.13.51L113.4,21c-.23.17-.4.13-.52,0s-.1-.33.13-.5Zm-4.62-.86.41.49,3.09-2.62-.41-.48Zm-.93-3-.39.44c-.19.22-.35.21-.5.08s-.18-.3,0-.52l1.45-1.64c.19-.21.36-.21.51-.08s.17.3,0,.52l-.29.33.45.39.26-.29a1,1,0,1,0-1.42-1.26l-1.39,1.58a1,1,0,1,0,1.42,1.26l.36-.41Zm-2.69-4.33-.86,1.88-.51-.33Zm.81-.33-.79-.51-2.74,3.05.49.31.49-.55.66.42-.31.68.54.35Zm-5.71-2c-.46,1.06.61,1.71.28,2.47-.12.26-.28.31-.46.23s-.26-.23-.15-.5l.12-.26-.55-.24-.1.22a1,1,0,1,0,1.74.77c.46-1.06-.61-1.7-.28-2.47.12-.26.27-.32.45-.24s.25.23.13.5l-.07.15.56.24,0-.11a.94.94,0,1,0-1.72-.76ZM97.8,10.55l.63.18,1.09-3.9L99,6.68,98.32,9l0-2.51-.76-.21-1.09,3.89.55.16.79-2.82ZM93.67,6.22l1.09.11.06-.57L93.1,5.58l-.42,4,1.73.17.06-.57-1.1-.11.12-1.18.87.09.06-.58-.87-.09Zm-5,.25c0,1.16,1.28,1.28,1.3,2.11,0,.29-.11.39-.31.4s-.34-.09-.34-.38V8.31l-.6,0v.24c0,.65.36,1,1,1s.94-.39.92-1c0-1.16-1.28-1.28-1.3-2.11,0-.29.1-.4.3-.41s.32.1.33.39v.17l.6,0V6.42c0-.65-.34-1-1-1S88.6,5.82,88.62,6.47Zm-5.25,3-.1-.36c-.09-.37,0-.53.28-.6l.24-.06.23.9a.32.32,0,0,1-.24.43C83.59,9.87,83.44,9.79,83.37,9.51Zm-.71-.19.1.4c.15.57.46.84.91.72a.6.6,0,0,0,.49-.5.78.78,0,0,0,.13.3l.63-.16a1.2,1.2,0,0,1-.19-.46L84.4,8.33l.17,0-.14-.56-.17,0-.11-.44-.61.16.11.44L83.38,8c-.23.06-.4,0-.48-.32l-.06-.24c-.07-.28,0-.41.22-.46l.7-.18-.15-.56-.7.18a.87.87,0,0,0-.68,1.2l0,.08c.11.42.31.65.63.7A.83.83,0,0,0,82.66,9.32Zm-5.81.08,1.2,1.69-.55.27ZM77,8.53,76.14,9l1.25,3.91.52-.26-.23-.71.69-.35.43.6.58-.29ZM72.75,10l0,.75.36-.24.14-.86Zm2.39,4.3.53-.35-2.23-3.38-.53.35Zm-3.47.58.22-.18.48.57c.19.22.16.38,0,.51s-.32.13-.5-.09L70.46,14c-.19-.22-.16-.39,0-.52s.32-.13.51.09l.28.34.46-.39-.25-.3A.95.95,0,1,0,70,14.44l1.35,1.61a.95.95,0,1,0,1.45-1.22l-.82-1-.69.57Zm-4.38,1.87c.15-.17.31-.16.53,0l.3.26c.24.21.22.39.06.57l-.16.19L67.09,17Zm3.29,1.52a1.15,1.15,0,0,1-.42-.27l-.47-.41c-.31-.28-.61-.41-.92-.26a.8.8,0,0,0-.34-.85l-.24-.21a.81.81,0,0,0-1.32.09l-.64.72,3,2.68.42-.48-1.24-1.09L68.6,18c.19-.21.38-.22.66,0l.48.42a1.15,1.15,0,0,0,.41.29ZM64.5,20.57l.58-.93-.49-.31-.91,1.48,3.44,2.13L68,21.47l-.49-.31-.58.93-1-.62.46-.74-.49-.31-.46.74Zm1.35,4.91.26-.6L62.4,23.26l-.23.52,2.22,1-2.48-.37-.32.73,3.71,1.62.23-.52L62.84,25ZM61,29l.25-1.07-.56-.13-.4,1.68,3.93,1,.41-1.69-.56-.13-.26,1.07-1.15-.28.2-.85-.56-.14-.21.85Z"/>
        <path class="cls-1" d="M107.36,61.1a1.17,1.17,0,0,0,1.72.16,1,1,0,0,0,.15-1.58c-.53-.61-1-1.22-1.58-1.82a1.16,1.16,0,0,0-1.72-.17,1,1,0,0,0-.17,1.59c.52.61,1.06,1.21,1.6,1.82m-1-2.32c-.22-.26-.18-.44,0-.59a.42.42,0,0,1,.63.1l1.64,1.89c.22.25.18.44,0,.59s-.4.15-.63-.11C107.44,60,106.9,59.4,106.35,58.78Zm0,4.27.69-.39-1.29-1.94c-.41-.64-.81-1.29-1.22-1.94l-.61.34c.24.39.48.78.73,1.16s.5.78.76,1.16c-.75-.64-1.47-1.28-2.19-1.92l-.87.48c.42.65.83,1.29,1.26,1.94l1.29,1.93.61-.34-.94-1.4c-.31-.47-.62-.94-.92-1.41L105,61.89Zm-5.4-1.52,1.33,2-.7.29-.31-1.13C101.14,62.28,101,61.91,100.93,61.53Zm.24-1L100.1,61c.19.74.39,1.48.59,2.22s.41,1.49.61,2.23l.67-.27c-.08-.26-.16-.53-.23-.8l.88-.36.48.71.74-.3c-.45-.64-.91-1.29-1.35-1.93S101.6,61.21,101.17,60.56Zm-1.76,5.5.75-.23c-.26-.72-.52-1.44-.77-2.16l-.75-2.15-.75.24c.25.71.5,1.43.76,2.15S99.15,65.34,99.41,66.06Zm-2.82-1.23.35-.07c.06.27.13.54.2.81s0,.46-.29.51-.43,0-.51-.34-.2-.79-.29-1.19-.19-.79-.29-1.19,0-.46.29-.52.43,0,.51.35c0,.16.07.31.11.47l.72-.16c0-.14-.07-.28-.1-.43a1.07,1.07,0,0,0-1.42-.85A1,1,0,0,0,95,63.58c.1.38.19.76.28,1.14s.19.77.29,1.15a1.07,1.07,0,0,0,1.41.86,1,1,0,0,0,.87-1.36c-.11-.47-.23-.94-.34-1.4l-1.07.23Zm-3.66-1.3c.09.38.2.75.29,1.12s.2.75.31,1.12l-.75.08.06-1.16Zm.53-.86-1.15.12c-.06.76-.12,1.52-.17,2.29L92,67.37l.72-.07c0-.28,0-.56.06-.83l1-.1c.08.27.15.54.22.81l.79-.08c-.21-.74-.41-1.48-.62-2.21S93.67,63.41,93.46,62.67Zm-4.72.14-1.09,0c0,.76-.07,1.52-.1,2.28s-.06,1.52-.1,2.28h.69c0-.53,0-1.07.07-1.61s0-1.07.07-1.61c.07.54.15,1.08.22,1.62s.15,1.08.22,1.61l.75,0,.33-1.62c.12-.54.23-1.08.35-1.62,0,.54-.05,1.08-.07,1.62s0,1.09-.07,1.63l.74,0c0-.76.07-1.52.1-2.27s.07-1.51.1-2.27l-1.09,0c-.12.53-.23,1.07-.34,1.6s-.23,1.07-.34,1.6C89.1,65.51,89,65,89,64.43S88.81,63.35,88.74,62.81Zm-4.67,1.94,1.4.27.15-.64-1.4-.27Zm-4.58.7,2,.66c.09-.2.17-.41.25-.61l-1.21-.42.75-1.86c.26-.61.52-1.23.77-1.85l-.73-.26-.9,2.17ZM79.1,61c-.3.75-.59,1.49-.88,2.24l-.67-.33C78.06,62.3,78.57,61.67,79.1,61Zm1-.44-1-.51L77.49,62,76,63.82c.21.11.42.22.64.32l.55-.69.85.42c-.11.27-.21.54-.31.81l.69.34c.29-.74.56-1.48.84-2.22S79.78,61.32,80.06,60.59ZM118,42.16c1.51-1,3,1.41,1.51,2.31A1.38,1.38,0,1,1,118,42.16ZM62.93,47.59c1.47-1.07,3,1.32,1.48,2.29A1.36,1.36,0,1,1,62.93,47.59Zm-2.52,1.93c.55,2,4.29,6.8,5.52,8.08,15.26,15.84,41.72,13.6,52.92-5.9.84-1.46,3.86-7.05,3.3-9.36a3.2,3.2,0,0,0-4.27-2.14c-1.73.66-1.9,2.35-2.52,4a27.6,27.6,0,0,1-6.51,9.94c-10,9.66-25.92,9.93-35.94,1.33-7-6-6-10.87-10.17-10A3.18,3.18,0,0,0,60.41,49.52Z"/>
        <path class="cls-2" d="M80.66,80.41l2.46-.5,2.74,13.4,4-.83.46,2.24-6.5,1.33ZM78.42,91.76l-2.68-7.5h0l.51,8Zm-4.82-9.9,3.33-.68,5.75,15.11-2.46.5-1.08-3v0l-2.8.57.18,3.15L74.26,98ZM60,84.64l6.7-1.37.46,2.23-4.25.87.85,4.13,3.37-.69L67.61,92l-3.37.69,1,4.81,4.24-.87.46,2.23-6.7,1.37Zm-7.68,1.57,6.5-1.33.45,2.23-4,.83.89,4.36,3.17-.65.46,2.23-3.17.65L58,101.34l-2.45.51ZM50.1,97.56l-2.68-7.5h0l.51,8Zm-4.82-9.9L48.61,87l5.74,15.12-2.45.5-1.09-3v0l-2.79.57.18,3.16-2.28.46ZM41.53,105a3.48,3.48,0,0,1-2.88-.46,4,4,0,0,1-1.52-2.65l-1.72-8.39a4.12,4.12,0,0,1,.35-3,3.53,3.53,0,0,1,2.48-1.56,3.6,3.6,0,0,1,2.91.45A4.19,4.19,0,0,1,42.64,92L43,93.62l-2.32.47-.37-1.81c-.2-1-.7-1.37-1.53-1.2s-1.12.75-.93,1.71l1.79,8.73c.2,1,.69,1.35,1.52,1.18s1.13-.72.94-1.68l-.49-2.39,2.32-.48.45,2.21a4.18,4.18,0,0,1-.33,3,3.6,3.6,0,0,1-2.5,1.56"/>
        <path class="cls-2" d="M111.48,85l-2.68-7.51h0l.51,8Zm-4.82-9.91,3.33-.68,5.75,15.11-2.46.51-1.08-3v0l-2.8.57.18,3.15-2.28.47ZM92.74,77.94l3.51-.72,3.86,10.87h0l-.73-11.51,3.51-.72,3.2,15.64-2.32.48-2.43-11.84h0l.64,12.2-2.06.42L95.71,81.29h0l2.42,11.84-2.15.44Zm-5,8,4.91-1,.46,2.24-4.92,1Z"/>
        <path class="cls-2" d="M151.53,80.1q1.28-.25,1-1.8l-1.75-8.53c-.21-1-.74-1.46-1.58-1.28s-1.17.77-1,1.8l1.74,8.53c.22,1,.74,1.46,1.59,1.28m.46,2.24a3.69,3.69,0,0,1-3-.47,4.08,4.08,0,0,1-1.55-2.7L145.77,71a4.16,4.16,0,0,1,.37-3.1,4.33,4.33,0,0,1,5.54-1.14,4.13,4.13,0,0,1,1.55,2.71l1.69,8.22a4.16,4.16,0,0,1-.37,3.1A3.67,3.67,0,0,1,152,82.34ZM135.65,69.16l3.09-.64,4.3,8.87h.05L141.17,68l2.19-.45,3.2,15.63-2.52.52-5.29-10.81h0L141,84.34l-2.18.45Zm-2.23,11.35L130.74,73h0l.51,7.95ZM128.6,70.6l3.32-.68L137.67,85l-2.46.51-1.08-3v0l-2.79.57.18,3.15-2.28.47Zm-6.19,1.27,2.46-.51L128.07,87l-2.46.5Zm-2,16.93a3.56,3.56,0,0,1-2.94-.47,4.18,4.18,0,0,1-1.53-2.71l-1.69-8.22a4.3,4.3,0,0,1,.34-3.12A4.28,4.28,0,0,1,120,73.17a4.25,4.25,0,0,1,1.54,2.73l.28,1.34-2.33.48-.3-1.5c-.21-1-.74-1.46-1.59-1.28s-1.17.77-1,1.8l1.75,8.56c.21,1,.74,1.43,1.59,1.25s1.16-.77,1-1.78l-.63-3.06-1.23.26-.45-2.24,3.55-.73,1,5.12a4.19,4.19,0,0,1-.34,3.1,3.54,3.54,0,0,1-2.51,1.58"/>
        <path class="cls-2" d="M80.66,80.41l2.46-.5,2.74,13.4,4-.83.46,2.24-6.5,1.33ZM78.42,91.76l-2.68-7.5h0l.51,8Zm-4.82-9.9,3.33-.68,5.75,15.11-2.46.5-1.08-3v0l-2.8.57.18,3.15L74.26,98ZM60,84.64l6.7-1.37.46,2.23-4.25.87.85,4.13,3.37-.69L67.61,92l-3.37.69,1,4.81,4.24-.87.46,2.23-6.7,1.37Zm-7.68,1.57,6.5-1.33.45,2.23-4,.83.89,4.36,3.17-.65.46,2.23-3.17.65L58,101.34l-2.45.51ZM50.1,97.56l-2.68-7.5h0l.51,8Zm-4.82-9.9L48.61,87l5.74,15.12-2.45.5-1.09-3v0l-2.79.57.18,3.16-2.28.46ZM41.53,105a3.48,3.48,0,0,1-2.88-.46,4,4,0,0,1-1.52-2.65l-1.72-8.39a4.12,4.12,0,0,1,.35-3,3.53,3.53,0,0,1,2.48-1.56,3.6,3.6,0,0,1,2.91.45A4.19,4.19,0,0,1,42.64,92L43,93.62l-2.32.47-.37-1.81c-.2-1-.7-1.37-1.53-1.2s-1.12.75-.93,1.71l1.79,8.73c.2,1,.69,1.35,1.52,1.18s1.13-.72.94-1.68l-.49-2.39,2.32-.48.45,2.21a4.18,4.18,0,0,1-.33,3,3.6,3.6,0,0,1-2.5,1.56"/>
        <path class="cls-2" d="M111.48,85l-2.68-7.51h0l.51,8Zm-4.82-9.91,3.33-.68,5.75,15.11-2.46.51-1.08-3v0l-2.8.57.18,3.15-2.28.47ZM92.74,77.94l3.51-.72,3.86,10.87h0l-.73-11.51,3.51-.72,3.2,15.64-2.32.48-2.43-11.84h0l.64,12.2-2.06.42L95.71,81.29h0l2.42,11.84-2.15.44Zm-5,8,4.91-1,.46,2.24-4.92,1Z"/>
        <path class="cls-2" d="M151.53,80.1q1.28-.25,1-1.8l-1.75-8.53c-.21-1-.74-1.46-1.58-1.28s-1.17.77-1,1.8l1.74,8.53c.22,1,.74,1.46,1.59,1.28m.46,2.24a3.69,3.69,0,0,1-3-.47,4.08,4.08,0,0,1-1.55-2.7L145.77,71a4.16,4.16,0,0,1,.37-3.1,4.33,4.33,0,0,1,5.54-1.14,4.13,4.13,0,0,1,1.55,2.71l1.69,8.22a4.16,4.16,0,0,1-.37,3.1A3.67,3.67,0,0,1,152,82.34ZM135.65,69.16l3.09-.64,4.3,8.87h.05L141.17,68l2.19-.45,3.2,15.63-2.52.52-5.29-10.81h0L141,84.34l-2.18.45Zm-2.23,11.35L130.74,73h0l.51,7.95ZM128.6,70.6l3.32-.68L137.67,85l-2.46.51-1.08-3v0l-2.79.57.18,3.15-2.28.47Zm-6.19,1.27,2.46-.51L128.07,87l-2.46.5Zm-2,16.93a3.56,3.56,0,0,1-2.94-.47,4.18,4.18,0,0,1-1.53-2.71l-1.69-8.22a4.3,4.3,0,0,1,.34-3.12A4.28,4.28,0,0,1,120,73.17a4.25,4.25,0,0,1,1.54,2.73l.28,1.34-2.33.48-.3-1.5c-.21-1-.74-1.46-1.59-1.28s-1.17.77-1,1.8l1.75,8.56c.21,1,.74,1.43,1.59,1.25s1.16-.77,1-1.78l-.63-3.06-1.23.26-.45-2.24,3.55-.73,1,5.12a4.19,4.19,0,0,1-.34,3.1,3.54,3.54,0,0,1-2.51,1.58"/>
        <path class="cls-2" d="M80.66,80.41l2.46-.5,2.74,13.4,4-.83.46,2.24-6.5,1.33ZM78.42,91.76l-2.68-7.5h0l.51,8Zm-4.82-9.9,3.33-.68,5.75,15.11-2.46.5-1.08-3v0l-2.8.57.18,3.15L74.25,98ZM60,84.64l6.7-1.37.46,2.23-4.25.87.85,4.13,3.37-.69L67.61,92l-3.37.69,1,4.81,4.24-.87.46,2.23-6.7,1.37Zm-7.68,1.57,6.5-1.33.45,2.23-4,.83.89,4.36,3.17-.65.46,2.23-3.17.65L58,101.34l-2.45.51ZM50.1,97.56l-2.68-7.5h0l.51,8Zm-4.82-9.9L48.6,87l5.75,15.12-2.45.5-1.09-3v0l-2.79.57.18,3.16-2.28.46ZM41.53,105a3.48,3.48,0,0,1-2.88-.46,4,4,0,0,1-1.52-2.65l-1.72-8.39a4.12,4.12,0,0,1,.35-3,3.53,3.53,0,0,1,2.48-1.56,3.6,3.6,0,0,1,2.91.45A4.19,4.19,0,0,1,42.64,92L43,93.62l-2.32.47-.37-1.81c-.2-1-.7-1.37-1.53-1.2s-1.12.75-.93,1.71l1.79,8.73c.2,1,.69,1.35,1.52,1.18s1.13-.72.94-1.68l-.49-2.39,2.32-.48.45,2.21a4.18,4.18,0,0,1-.33,3,3.6,3.6,0,0,1-2.5,1.56"/>
        <path class="cls-2" d="M111.48,85l-2.68-7.51h0l.51,8Zm-4.82-9.91,3.33-.68,5.75,15.11-2.46.51-1.08-3v0l-2.8.57.18,3.15-2.28.47ZM92.74,77.94l3.51-.72,3.86,10.87h0l-.73-11.51,3.51-.72,3.2,15.64-2.32.48-2.43-11.84h0l.64,12.2-2.06.42L95.71,81.29h0l2.42,11.84-2.15.44Zm-5,8,4.91-1,.46,2.24-4.92,1Z"/>
        <path class="cls-2" d="M151.53,80.1q1.28-.25,1-1.8l-1.75-8.53c-.21-1-.74-1.46-1.58-1.28s-1.17.77-1,1.8l1.74,8.53c.22,1,.74,1.46,1.59,1.28m.46,2.24a3.69,3.69,0,0,1-3-.47,4.08,4.08,0,0,1-1.55-2.7L145.77,71a4.16,4.16,0,0,1,.37-3.1,4.33,4.33,0,0,1,5.54-1.14,4.13,4.13,0,0,1,1.55,2.71l1.69,8.22a4.16,4.16,0,0,1-.37,3.1A3.67,3.67,0,0,1,152,82.34ZM135.65,69.16l3.09-.64,4.3,8.87h.05L141.17,68l2.19-.45,3.2,15.63-2.52.52-5.29-10.81h0L141,84.34l-2.18.45Zm-2.23,11.35L130.74,73h0l.5,7.95ZM128.6,70.6l3.32-.68L137.67,85l-2.46.51-1.08-3v0l-2.79.57.18,3.15-2.28.47Zm-6.19,1.27,2.46-.51L128.07,87l-2.46.5Zm-2,16.93a3.56,3.56,0,0,1-2.94-.47,4.18,4.18,0,0,1-1.53-2.71l-1.69-8.22a4.3,4.3,0,0,1,.34-3.12A4.28,4.28,0,0,1,120,73.17a4.25,4.25,0,0,1,1.54,2.73l.28,1.34-2.33.48-.3-1.5c-.21-1-.74-1.46-1.59-1.28s-1.17.77-1,1.8l1.75,8.56c.21,1,.74,1.43,1.59,1.25s1.16-.77,1-1.78l-.63-3.06-1.23.26-.45-2.24,3.55-.73,1,5.12a4.19,4.19,0,0,1-.34,3.1,3.54,3.54,0,0,1-2.51,1.58"/>
        <path class="cls-2" d="M81,98.85l-.89.18L80,98.25l2.63-.53.16.77-.89.18,1,4.64-.86.18ZM76.15,99l2.33-.48.15.78-1.47.3.3,1.43,1.17-.24.15.77-1.16.24L78,103.5l1.47-.3.15.78-2.32.47Zm-2.66.54,2.25-.46.16.77-1.4.29.31,1.51,1.1-.23.16.78-1.1.22.48,2.36-.85.18Zm-.77,3.93-.93-2.6h0l.17,2.75Zm-1.67-3.43,1.15-.23,2,5.23-.85.18L73,104.21v0l-1,.19.06,1.1-.79.16Zm-1.3,6a1.23,1.23,0,0,1-1-.16,1.45,1.45,0,0,1-.53-.91l-.59-2.91a1.39,1.39,0,0,1,.12-1,1.19,1.19,0,0,1,.86-.54,1.26,1.26,0,0,1,1,.16,1.48,1.48,0,0,1,.52.91l.11.58-.8.16-.13-.63c-.07-.33-.24-.47-.53-.41s-.39.26-.32.59l.62,3c.07.34.24.47.53.41s.39-.25.32-.58l-.17-.83.81-.16.15.76a1.44,1.44,0,0,1-.11,1,1.23,1.23,0,0,1-.87.54"/>
        <path class="cls-2" d="M89.78,97.05l-.89.19-.16-.78,2.63-.54.16.78-.89.18,1,4.64-.85.18Zm-1.47,5.22a1.21,1.21,0,0,1-1-.16,1.51,1.51,0,0,1-.52-.94l-.06-.31.8-.17.08.37c.07.35.25.5.55.44a.44.44,0,0,0,.3-.2.72.72,0,0,0,0-.43,1.27,1.27,0,0,0-.28-.57,3.08,3.08,0,0,0-.7-.51,3.25,3.25,0,0,1-.91-.69,1.66,1.66,0,0,1-.38-.8,1.42,1.42,0,0,1,.12-1.06,1.27,1.27,0,0,1,.87-.55,1.22,1.22,0,0,1,1,.16,1.52,1.52,0,0,1,.52,1l0,.23-.8.16-.06-.28a.65.65,0,0,0-.19-.38.36.36,0,0,0-.34-.06c-.29.06-.39.25-.32.6a1,1,0,0,0,.27.52,3,3,0,0,0,.7.5,3.15,3.15,0,0,1,.91.69,2,2,0,0,1,.38.85,1.5,1.5,0,0,1-.11,1.09,1.28,1.28,0,0,1-.89.55m-3.13-.16q.45-.09.33-.63l-.6-3c-.07-.36-.26-.51-.55-.45s-.41.27-.33.63l.6,3c.07.36.26.51.55.45m.16.77a1.26,1.26,0,0,1-1-.16,1.4,1.4,0,0,1-.54-.94l-.58-2.84a1.47,1.47,0,0,1,.12-1.08,1.28,1.28,0,0,1,.89-.55,1.22,1.22,0,0,1,1,.16,1.4,1.4,0,0,1,.54.94l.58,2.84a1.47,1.47,0,0,1-.12,1.08A1.32,1.32,0,0,1,85.34,102.88Z"/>
        <path class="cls-2" d="M123,94.36c.3-.06.41-.27.33-.62l-.6-3c-.07-.36-.26-.5-.55-.44s-.41.26-.33.62l.6,3c.08.35.26.5.55.44m.16.77a1.22,1.22,0,0,1-1-.16,1.44,1.44,0,0,1-.54-.93L121,91.19a1.45,1.45,0,0,1,.12-1.07,1.49,1.49,0,0,1,1.92-.4,1.45,1.45,0,0,1,.54.94l.58,2.85a1.45,1.45,0,0,1-.12,1.07A1.25,1.25,0,0,1,123.18,95.13Zm-3.26-.22a.38.38,0,0,0,.3-.19.69.69,0,0,0,0-.42l-.58-2.82a.65.65,0,0,0-.19-.38.42.42,0,0,0-.35,0l-.43.08.79,3.87Zm-2.23-4.37,1.3-.27a1.27,1.27,0,0,1,1,.14,1.51,1.51,0,0,1,.52.94l.56,2.74a1.46,1.46,0,0,1-.11,1.06,1.25,1.25,0,0,1-.89.53l-1.3.27Zm-1.49.3.85-.18,1.11,5.42-.85.18Zm-2.66.54.85-.17,1,4.64,1.4-.28.16.77-2.25.46Zm-.9,5.11q.44-.09.33-.63l-.6-3c-.08-.36-.26-.51-.55-.45s-.41.27-.34.63l.61,3c.07.36.26.51.55.45m.16.77a1.3,1.3,0,0,1-1-.16,1.42,1.42,0,0,1-.54-.94l-.59-2.85a1.5,1.5,0,0,1,.13-1.07,1.25,1.25,0,0,1,.89-.55,1.22,1.22,0,0,1,1,.16,1.44,1.44,0,0,1,.54.94l.58,2.84a1.47,1.47,0,0,1-.12,1.08A1.32,1.32,0,0,1,112.8,97.26Zm-6.52-4.39,1.22-.25,1.33,3.77h0l-.26-4,1.22-.25,1.11,5.41-.81.17-.84-4.1h0l.22,4.23-.71.14-1.46-4h0l.84,4.1-.74.16Zm-2.87,3.83-1.66-2.9.9-.19,1,1.87h0l.17-2.11.83-.17-.4,3.32.48,2.31-.85.17Zm-3.55,2.4c.29-.06.4-.27.33-.62l-.6-3c-.08-.35-.26-.5-.55-.44s-.41.27-.34.62l.61,3c.07.35.25.5.55.44m.16.78a1.33,1.33,0,0,1-1-.16,1.48,1.48,0,0,1-.53-.94l-.59-2.85A1.45,1.45,0,0,1,98,94.86a1.29,1.29,0,0,1,.89-.56,1.3,1.3,0,0,1,1,.16,1.49,1.49,0,0,1,.54.94l.58,2.85a1.4,1.4,0,0,1-.13,1.07A1.27,1.27,0,0,1,100,99.88Zm-3.26-.22a.43.43,0,0,0,.3-.19.66.66,0,0,0,0-.43l-.57-2.82a.69.69,0,0,0-.2-.38.45.45,0,0,0-.35,0l-.43.09.79,3.86Zm-2.24-4.38,1.3-.27a1.21,1.21,0,0,1,1,.15,1.41,1.41,0,0,1,.52.93l.56,2.74a1.46,1.46,0,0,1-.11,1.06,1.25,1.25,0,0,1-.88.54l-1.3.26Zm-.77,3.93-.93-2.6h0L93,99.36Zm-1.67-3.43,1.15-.24,2,5.24-.85.17-.38-1h0l-1,.2.06,1.09-.79.16Z"/>
        <path class="cls-2" d="M81,98.85l-.89.18L80,98.25l2.63-.53.16.77-.89.18,1,4.64-.86.18ZM76.15,99l2.33-.48.15.78-1.47.3.3,1.43,1.17-.24.15.77-1.16.24L78,103.5l1.47-.3.15.78-2.32.47Zm-2.66.54,2.25-.46.16.77-1.4.29.31,1.51,1.1-.23.16.78-1.1.22.48,2.36-.85.18Zm-.77,3.93-.93-2.6h0l.17,2.75Zm-1.67-3.43,1.15-.23,2,5.23-.85.18L73,104.21v0l-1,.19.06,1.1-.79.16Zm-1.3,6a1.23,1.23,0,0,1-1-.16,1.45,1.45,0,0,1-.53-.91l-.59-2.91a1.39,1.39,0,0,1,.12-1,1.19,1.19,0,0,1,.86-.54,1.26,1.26,0,0,1,1,.16,1.48,1.48,0,0,1,.52.91l.11.58-.8.16-.13-.63c-.07-.33-.24-.47-.53-.41s-.39.26-.32.59l.62,3c.07.34.24.47.53.41s.39-.25.32-.58l-.17-.83.81-.16.15.76a1.44,1.44,0,0,1-.11,1,1.23,1.23,0,0,1-.87.54"/>
        <path class="cls-2" d="M89.78,97.05l-.89.19-.16-.78,2.63-.54.16.78-.89.18,1,4.64-.85.18Zm-1.47,5.22a1.21,1.21,0,0,1-1-.16,1.51,1.51,0,0,1-.52-.94l-.06-.31.8-.17.08.37c.07.35.25.5.55.44a.44.44,0,0,0,.3-.2.72.72,0,0,0,0-.43,1.27,1.27,0,0,0-.28-.57,3.08,3.08,0,0,0-.7-.51,3.25,3.25,0,0,1-.91-.69,1.66,1.66,0,0,1-.38-.8,1.42,1.42,0,0,1,.12-1.06,1.27,1.27,0,0,1,.87-.55,1.22,1.22,0,0,1,1,.16,1.52,1.52,0,0,1,.52,1l0,.23-.8.16-.06-.28a.65.65,0,0,0-.19-.38.36.36,0,0,0-.34-.06c-.29.06-.39.25-.32.6a1,1,0,0,0,.27.52,3,3,0,0,0,.7.5,3.15,3.15,0,0,1,.91.69,2,2,0,0,1,.38.85,1.5,1.5,0,0,1-.11,1.09,1.28,1.28,0,0,1-.89.55m-3.13-.16q.45-.09.33-.63l-.6-3c-.07-.36-.26-.51-.55-.45s-.41.27-.33.63l.6,3c.07.36.26.51.55.45m.16.77a1.26,1.26,0,0,1-1-.16,1.4,1.4,0,0,1-.54-.94l-.58-2.84a1.47,1.47,0,0,1,.12-1.08,1.28,1.28,0,0,1,.89-.55,1.22,1.22,0,0,1,1,.16,1.4,1.4,0,0,1,.54.94l.58,2.84a1.47,1.47,0,0,1-.12,1.08A1.32,1.32,0,0,1,85.34,102.88Z"/>
        <path class="cls-2" d="M123,94.36c.3-.06.41-.27.33-.62l-.6-3c-.07-.36-.26-.5-.55-.44s-.41.26-.33.62l.6,3c.08.35.26.5.55.44m.16.77a1.22,1.22,0,0,1-1-.16,1.44,1.44,0,0,1-.54-.93L121,91.19a1.45,1.45,0,0,1,.12-1.07,1.49,1.49,0,0,1,1.92-.4,1.45,1.45,0,0,1,.54.94l.58,2.85a1.45,1.45,0,0,1-.12,1.07A1.25,1.25,0,0,1,123.18,95.13Zm-3.26-.22a.38.38,0,0,0,.3-.19.69.69,0,0,0,0-.42l-.58-2.82a.65.65,0,0,0-.19-.38.42.42,0,0,0-.35,0l-.43.08.79,3.87Zm-2.23-4.37,1.3-.27a1.27,1.27,0,0,1,1,.14,1.51,1.51,0,0,1,.52.94l.56,2.74a1.46,1.46,0,0,1-.11,1.06,1.25,1.25,0,0,1-.89.53l-1.3.27Zm-1.49.3.85-.18,1.11,5.42-.85.18Zm-2.66.54.85-.17,1,4.64,1.4-.28.16.77-2.25.46Zm-.9,5.11q.44-.09.33-.63l-.6-3c-.08-.36-.26-.51-.55-.45s-.41.27-.34.63l.61,3c.07.36.26.51.55.45m.16.77a1.3,1.3,0,0,1-1-.16,1.42,1.42,0,0,1-.54-.94l-.59-2.85a1.5,1.5,0,0,1,.13-1.07,1.25,1.25,0,0,1,.89-.55,1.22,1.22,0,0,1,1,.16,1.44,1.44,0,0,1,.54.94l.58,2.84a1.47,1.47,0,0,1-.12,1.08A1.32,1.32,0,0,1,112.8,97.26Zm-6.52-4.39,1.22-.25,1.33,3.77h0l-.26-4,1.22-.25,1.11,5.41-.81.17-.84-4.1h0l.22,4.23-.71.14-1.46-4h0l.84,4.1-.74.16Zm-2.87,3.83-1.66-2.9.9-.19,1,1.87h0l.17-2.11.83-.17-.4,3.32.48,2.31-.85.17Zm-3.55,2.4c.29-.06.4-.27.33-.62l-.6-3c-.08-.35-.26-.5-.55-.44s-.41.27-.34.62l.61,3c.07.35.25.5.55.44m.16.78a1.33,1.33,0,0,1-1-.16,1.48,1.48,0,0,1-.53-.94l-.59-2.85A1.45,1.45,0,0,1,98,94.86a1.29,1.29,0,0,1,.89-.56,1.3,1.3,0,0,1,1,.16,1.49,1.49,0,0,1,.54.94l.58,2.85a1.4,1.4,0,0,1-.13,1.07A1.27,1.27,0,0,1,100,99.88Zm-3.26-.22a.43.43,0,0,0,.3-.19.66.66,0,0,0,0-.43l-.57-2.82a.69.69,0,0,0-.2-.38.45.45,0,0,0-.35,0l-.43.09.79,3.86Zm-2.24-4.38,1.3-.27a1.21,1.21,0,0,1,1,.15,1.41,1.41,0,0,1,.52.93l.56,2.74a1.46,1.46,0,0,1-.11,1.06,1.25,1.25,0,0,1-.88.54l-1.3.26Zm-.77,3.93-.93-2.6h0L93,99.36Zm-1.67-3.43,1.15-.24,2,5.24-.85.17-.38-1h0l-1,.2.06,1.09-.79.16Z"/>
        <path class="cls-2" d="M81,98.85l-.89.18L80,98.25l2.63-.53.16.77-.89.18,1,4.64-.86.18ZM76.15,99l2.33-.48.15.78-1.47.3.3,1.43,1.16-.24.16.77-1.17.24L78,103.5l1.47-.3.15.78-2.32.47Zm-2.66.54,2.25-.46.16.77-1.4.29.31,1.51,1.1-.23.16.78-1.1.22.48,2.36-.85.18Zm-.77,3.93-.93-2.6h0l.18,2.75Zm-1.67-3.43,1.15-.23,2,5.23-.85.18L73,104.21v0l-1,.19.06,1.1-.79.16Zm-1.3,6a1.23,1.23,0,0,1-1-.16,1.45,1.45,0,0,1-.53-.91l-.59-2.91a1.39,1.39,0,0,1,.12-1,1.19,1.19,0,0,1,.86-.54,1.26,1.26,0,0,1,1,.16,1.48,1.48,0,0,1,.52.91l.11.58-.8.16-.13-.63c-.07-.33-.24-.47-.53-.41s-.39.26-.32.59l.62,3c.07.34.24.47.53.41s.39-.25.32-.58l-.17-.83.8-.16.16.76a1.44,1.44,0,0,1-.11,1,1.23,1.23,0,0,1-.87.54"/>
        <path class="cls-2" d="M89.78,97.05l-.89.19-.16-.78,2.63-.54.16.78-.89.18,1,4.64-.85.18Zm-1.47,5.22a1.21,1.21,0,0,1-1-.16,1.51,1.51,0,0,1-.52-.94l-.06-.31.8-.17.08.37c.07.35.25.5.55.44a.44.44,0,0,0,.3-.2.72.72,0,0,0,0-.43,1.27,1.27,0,0,0-.28-.57,3.08,3.08,0,0,0-.7-.51,3.25,3.25,0,0,1-.91-.69,1.66,1.66,0,0,1-.38-.8,1.42,1.42,0,0,1,.12-1.06,1.27,1.27,0,0,1,.87-.55,1.22,1.22,0,0,1,1,.16,1.52,1.52,0,0,1,.52,1l0,.23-.8.16-.06-.28a.65.65,0,0,0-.19-.38.36.36,0,0,0-.34-.06c-.29.06-.39.25-.32.6a1,1,0,0,0,.27.52,3,3,0,0,0,.7.5,3.15,3.15,0,0,1,.91.69,2,2,0,0,1,.38.85,1.5,1.5,0,0,1-.11,1.09,1.28,1.28,0,0,1-.89.55m-3.13-.16q.45-.09.33-.63l-.6-3c-.07-.36-.26-.51-.55-.45s-.41.27-.33.63l.6,3c.07.36.26.51.55.45m.16.77a1.26,1.26,0,0,1-1-.16,1.4,1.4,0,0,1-.54-.94l-.58-2.84a1.47,1.47,0,0,1,.12-1.08,1.28,1.28,0,0,1,.89-.55,1.22,1.22,0,0,1,1,.16,1.4,1.4,0,0,1,.54.94l.58,2.84a1.47,1.47,0,0,1-.12,1.08A1.32,1.32,0,0,1,85.34,102.88Z"/>
        <path class="cls-2" d="M123,94.36c.3-.06.41-.27.33-.62l-.6-3c-.07-.36-.26-.5-.55-.44s-.41.26-.33.62l.6,3c.08.35.26.5.55.44m.16.77a1.22,1.22,0,0,1-1-.16,1.44,1.44,0,0,1-.54-.93L121,91.19a1.45,1.45,0,0,1,.12-1.07,1.49,1.49,0,0,1,1.92-.4,1.45,1.45,0,0,1,.54.94l.58,2.85a1.45,1.45,0,0,1-.12,1.07A1.25,1.25,0,0,1,123.18,95.13Zm-3.26-.22a.38.38,0,0,0,.3-.19.69.69,0,0,0,0-.42l-.58-2.82a.65.65,0,0,0-.19-.38.42.42,0,0,0-.35,0l-.43.08.79,3.87Zm-2.23-4.37,1.3-.27a1.27,1.27,0,0,1,1,.14,1.51,1.51,0,0,1,.52.94l.56,2.74a1.46,1.46,0,0,1-.11,1.06,1.25,1.25,0,0,1-.89.53l-1.3.27Zm-1.49.3.85-.18,1.11,5.42-.85.18Zm-2.66.54.85-.17,1,4.64,1.4-.28.16.77-2.25.46Zm-.9,5.11q.44-.09.33-.63l-.6-3c-.08-.36-.26-.51-.55-.45s-.41.27-.34.63l.61,3c.07.36.26.51.55.45m.16.77a1.3,1.3,0,0,1-1-.16,1.42,1.42,0,0,1-.54-.94l-.59-2.85a1.5,1.5,0,0,1,.13-1.07,1.25,1.25,0,0,1,.89-.55,1.22,1.22,0,0,1,1,.16,1.44,1.44,0,0,1,.54.94l.58,2.84a1.47,1.47,0,0,1-.12,1.08A1.32,1.32,0,0,1,112.8,97.26Zm-6.52-4.39,1.22-.25,1.33,3.77h0l-.26-4,1.22-.25,1.11,5.41-.81.17-.84-4.1h0l.22,4.23-.71.14-1.46-4h0l.84,4.1-.74.16Zm-2.87,3.83-1.66-2.9.9-.19,1,1.87h0l.17-2.11.83-.17-.4,3.32.48,2.31-.85.17Zm-3.55,2.4c.29-.06.4-.27.33-.62l-.6-3c-.08-.35-.26-.5-.55-.44s-.41.27-.34.62l.61,3c.07.35.25.5.55.44m.16.78a1.33,1.33,0,0,1-1-.16,1.48,1.48,0,0,1-.53-.94l-.59-2.85A1.45,1.45,0,0,1,98,94.86a1.29,1.29,0,0,1,.89-.56,1.3,1.3,0,0,1,1,.16,1.49,1.49,0,0,1,.54.94l.58,2.85a1.4,1.4,0,0,1-.13,1.07A1.27,1.27,0,0,1,100,99.88Zm-3.26-.22a.43.43,0,0,0,.3-.19.66.66,0,0,0,0-.43l-.57-2.82a.69.69,0,0,0-.2-.38.45.45,0,0,0-.35,0l-.43.09.79,3.86Zm-2.24-4.38,1.3-.27a1.21,1.21,0,0,1,1,.15,1.41,1.41,0,0,1,.52.93l.56,2.74a1.46,1.46,0,0,1-.11,1.06,1.25,1.25,0,0,1-.88.54l-1.3.26Zm-.77,3.93-.93-2.6h0L93,99.36Zm-1.67-3.43,1.15-.24,2,5.24-.85.17-.38-1h0l-1,.2.06,1.09-.79.16Z"/>
      </g>
      <rect class="cls-2" y="141.47" width="109.21" height="22.63" rx="11.31"/>
      <rect class="cls-3" x="86.97" y="141.47" width="111.73" height="22.63" rx="11.31"/>
      <g>
        <path class="cls-4" d="M20.15,152.54v.19s0,.07,0,.07h-.64v-.3a7,7,0,0,0-.11-.78.77.77,0,0,0-.08-.27c0-.15-.11-.34-.15-.49v-.07a3.26,3.26,0,0,0-.26-.53,2.35,2.35,0,0,1-.19-.3.12.12,0,0,0,0-.08,4.59,4.59,0,0,0-1.16-1.08.76.76,0,0,0-.26-.15,2.4,2.4,0,0,0-.53-.27h0a6.48,6.48,0,0,0-.78-.26,5,5,0,0,0-1-.11h-.07v-.58a.11.11,0,0,1,.11-.12h.19a1.84,1.84,0,0,1,.41,0,.25.25,0,0,1,.15,0,9,9,0,0,1,1,.27,5.36,5.36,0,0,1,2.48,1.84v0a.44.44,0,0,1,.12.15,2.51,2.51,0,0,1,.26.45,2,2,0,0,1,.26.53c.08.18.15.37.23.58s.07.15,0,.19a5,5,0,0,1,.15.79v.35h0Z"/>
        <path class="cls-4" d="M9.18,149.61v-.11a.53.53,0,0,1,.08-.22.43.43,0,0,1,.15-.2c.22-.22.45-.41.64-.64a1.24,1.24,0,0,1,.22-.18.38.38,0,0,1,.3-.11.41.41,0,0,0,.19,0h.3l.27.07a1.54,1.54,0,0,1,.82.75,1.5,1.5,0,0,1,.15.42c.11.34.19.71.27,1.05a1.42,1.42,0,0,1-.16,1,1.27,1.27,0,0,1-.18.27,4,4,0,0,1-.38.34c-.08.07-.08.11,0,.18a2.41,2.41,0,0,1,.16.42,3.52,3.52,0,0,0,.22.49,6.17,6.17,0,0,0,.58.86c.07.08.11.15.19.23a5.68,5.68,0,0,0,1.39,1.09l.52.22a1.9,1.9,0,0,0,.46.15h.11l.38-.37a1.33,1.33,0,0,1,1-.42,2.88,2.88,0,0,1,.49.11h.07c.3.08.64.2.94.27h.08a1.2,1.2,0,0,1,.75.68c0,.07.07.18.11.26a.57.57,0,0,0,.07.22v.37a.52.52,0,0,1,0,.19,1.5,1.5,0,0,1-.38.58l-.52.52a.71.71,0,0,1-.23.19,1,1,0,0,1-.38.11h-.58a3.92,3.92,0,0,1-.68-.07,6,6,0,0,1-.71-.15,7.37,7.37,0,0,1-1.28-.42.3.3,0,0,1-.15-.07,1.19,1.19,0,0,0-.26-.11c-.19-.12-.41-.19-.58-.3s-.53-.34-.79-.49-.41-.34-.64-.49a4.84,4.84,0,0,1-.64-.64c-.19-.19-.34-.41-.52-.58a.58.58,0,0,0-.16-.19s0-.07-.07-.11c-.18-.26-.34-.52-.49-.79a3.27,3.27,0,0,1-.3-.59l-.11-.22c-.08-.19-.15-.42-.23-.64a3.41,3.41,0,0,1-.23-.83.46.46,0,0,0,0-.23,1,1,0,0,0-.08-.33c0-.08,0-.11,0-.19a4.64,4.64,0,0,0-.07-.64v-.67h0Z"/>
        <path class="cls-4" d="M14.68,150.06v-.64a.08.08,0,0,1,.08-.07h0a1.65,1.65,0,0,1,.49,0,.42.42,0,0,1,.22,0l.68.23A3.42,3.42,0,0,1,18,152v0s0,.11,0,.16a2.12,2.12,0,0,0,0,.44c0,.11,0,.11-.11.11h-.58v-.48a1.3,1.3,0,0,0-.08-.34,2.8,2.8,0,0,0-1.74-1.75.82.82,0,0,0-.3-.07h-.57Z"/>
        <path class="cls-4" d="M14.78,152.13s-.11-.08-.11-.15v-.58a1,1,0,0,1,.52.11.2.2,0,0,1,.15.07s.08,0,.12.08a1.57,1.57,0,0,1,.34.34,1.1,1.1,0,0,1,.15.26,2.46,2.46,0,0,1,.11.45v.11h-.58a.11.11,0,0,1-.12-.1h0a.57.57,0,0,0-.34-.49l-.18-.08h-.08Z"/>
      </g>
      <path class="cls-2" d="M106.24,148.31a3.35,3.35,0,0,0-1.84-.86,1.46,1.46,0,0,1-.58-.08h-1a2.75,2.75,0,0,0-.9.12,4.25,4.25,0,0,0-2.81,4,5.47,5.47,0,0,0,.58,2.44,12.45,12.45,0,0,0,3,3.87,1.15,1.15,0,0,0,.64.34h.34s.38-.08.49-.23c.35-.32.69-.66,1-1a15.87,15.87,0,0,0,1.74-2.33,6.37,6.37,0,0,0,.9-2.85,4.28,4.28,0,0,0-1.51-3.49h0Zm-2.81,5.41a2.12,2.12,0,1,1,0-4.24h0a2.12,2.12,0,1,1-.07,4.24Z"/>
      <g>
        <path class="cls-3" d="M27.49,149.71a2.32,2.32,0,0,1,1.5-.47,2.47,2.47,0,0,1,1.06.22,1.57,1.57,0,0,1,.9,1.46,1.52,1.52,0,0,1-.32,1,1.39,1.39,0,0,1-.83.52v0a1.61,1.61,0,0,1,.93.57,1.74,1.74,0,0,1,.34,1.1,1.81,1.81,0,0,1-.24.93,1.62,1.62,0,0,1-.7.64,2.45,2.45,0,0,1-1.13.23,2.41,2.41,0,0,1-1.56-.49,2,2,0,0,1-.69-1.42h.8a1.31,1.31,0,0,0,.44.88,1.44,1.44,0,0,0,1,.34,1.3,1.3,0,0,0,1-.33,1.18,1.18,0,0,0,.32-.85,1.08,1.08,0,0,0-.45-1,2.47,2.47,0,0,0-1.36-.3h-.2v-.68h.21a2.43,2.43,0,0,0,1.25-.28.88.88,0,0,0,.43-.82,1,1,0,0,0-.31-.77,1.29,1.29,0,0,0-.89-.29,1.37,1.37,0,0,0-.9.29,1.22,1.22,0,0,0-.41.78h-.8A1.76,1.76,0,0,1,27.49,149.71Z"/>
        <path class="cls-3" d="M32,150.12v-.75h1.69v6.51h-.83v-5.76Z"/>
        <path class="cls-3" d="M35.47,151.92a1.54,1.54,0,0,1-.27-.92,1.64,1.64,0,0,1,.24-.88,1.72,1.72,0,0,1,.73-.62,3.07,3.07,0,0,1,2.33,0,1.66,1.66,0,0,1,.73.62,1.56,1.56,0,0,1,.25.88,1.49,1.49,0,0,1-.28.91,1.62,1.62,0,0,1-.77.58,1.77,1.77,0,0,1,.89.6,1.65,1.65,0,0,1,.33,1,1.78,1.78,0,0,1-1.1,1.7,2.9,2.9,0,0,1-1.21.24,2.87,2.87,0,0,1-1.21-.24,1.89,1.89,0,0,1-.8-.67,1.78,1.78,0,0,1-.29-1,1.71,1.71,0,0,1,.32-1,1.65,1.65,0,0,1,.89-.6A1.66,1.66,0,0,1,35.47,151.92Zm.78,1.24a1.08,1.08,0,0,0-.43.94,1.16,1.16,0,0,0,.41.92,1.63,1.63,0,0,0,1.11.36,1.58,1.58,0,0,0,1.09-.36,1.16,1.16,0,0,0,.41-.92,1.12,1.12,0,0,0-.41-.93,1.76,1.76,0,0,0-1.09-.32A1.83,1.83,0,0,0,36.25,153.16Zm2.08-2.91a1.78,1.78,0,0,0-2,0,1,1,0,0,0-.36.86,1,1,0,0,0,.38.81,1.5,1.5,0,0,0,1,.3,1.45,1.45,0,0,0,1-.31,1,1,0,0,0,.38-.81A1,1,0,0,0,38.33,150.25Z"/>
        <path class="cls-3" d="M40.54,154.43v-.62l3.16-4.38h1v4.29h.9v.71h-.9v1.45h-.82v-1.45Zm3.37-4.14-2.42,3.43h2.42Z"/>
        <path class="cls-3" d="M47,149.71a2.29,2.29,0,0,1,1.49-.47,2.47,2.47,0,0,1,1.06.22,1.55,1.55,0,0,1,.91,1.46,1.52,1.52,0,0,1-.32,1,1.44,1.44,0,0,1-.84.52v0a1.61,1.61,0,0,1,.93.57,1.68,1.68,0,0,1,.34,1.1,1.91,1.91,0,0,1-.23.93,1.68,1.68,0,0,1-.7.64,2.48,2.48,0,0,1-1.13.23,2.42,2.42,0,0,1-1.57-.49,2,2,0,0,1-.68-1.42h.79a1.36,1.36,0,0,0,.44.88,1.44,1.44,0,0,0,1,.34,1.3,1.3,0,0,0,1-.33,1.15,1.15,0,0,0,.33-.85,1.08,1.08,0,0,0-.45-1,2.47,2.47,0,0,0-1.36-.3H47.8v-.68H48a2.43,2.43,0,0,0,1.25-.28.89.89,0,0,0,.42-.82,1,1,0,0,0-.31-.77,1.24,1.24,0,0,0-.88-.29,1.38,1.38,0,0,0-.91.29,1.21,1.21,0,0,0-.4.78h-.8A1.73,1.73,0,0,1,47,149.71Z"/>
        <path class="cls-3" d="M52.21,150.14a2.23,2.23,0,0,1,3.53,0,4.9,4.9,0,0,1,.5,2.42,5,5,0,0,1-.5,2.45,2.23,2.23,0,0,1-3.53,0,5,5,0,0,1-.5-2.45A4.9,4.9,0,0,1,52.21,150.14Zm3.12,1.09a1.63,1.63,0,0,0-.43-.88,1.46,1.46,0,0,0-1.85,0,1.63,1.63,0,0,0-.43.88,8.11,8.11,0,0,0-.1,1.33,8.52,8.52,0,0,0,.1,1.36,1.66,1.66,0,0,0,.43.88,1.46,1.46,0,0,0,1.85,0,1.66,1.66,0,0,0,.43-.88,7.49,7.49,0,0,0,.1-1.36A7.14,7.14,0,0,0,55.33,151.23Z"/>
        <path class="cls-3" d="M61.37,150l-2.5,5.87H58l2.54-5.79H57.1v-.7h4.27Z"/>
        <path class="cls-3" d="M63.76,154.92a1.29,1.29,0,0,0,.88.28,1.21,1.21,0,0,0,1.11-.58,3.92,3.92,0,0,0,.33-2,1.29,1.29,0,0,1-.63.63,2.11,2.11,0,0,1-1,.23,2.2,2.2,0,0,1-1.07-.25,1.74,1.74,0,0,1-.75-.72,2.3,2.3,0,0,1-.27-1.15,2.19,2.19,0,0,1,.56-1.56,2.09,2.09,0,0,1,1.59-.59,1.93,1.93,0,0,1,1.77.82,4.7,4.7,0,0,1,.5,2.44,7.11,7.11,0,0,1-.2,1.88,2.08,2.08,0,0,1-.68,1.12,2,2,0,0,1-1.32.39,2,2,0,0,1-1.43-.5,1.92,1.92,0,0,1-.59-1.26h.76A1.27,1.27,0,0,0,63.76,154.92Zm1.84-2.48a1.33,1.33,0,0,0,.39-1,1.57,1.57,0,0,0-.38-1.09,1.36,1.36,0,0,0-1.07-.41,1.32,1.32,0,0,0-1,.39,1.48,1.48,0,0,0-.37,1.05,1.45,1.45,0,0,0,.37,1,1.36,1.36,0,0,0,1.07.4A1.37,1.37,0,0,0,65.6,152.44Z"/>
        <path class="cls-3" d="M72,150l-2.51,5.87h-.83l2.54-5.79H67.7v-.7H72Z"/>
        <path class="cls-3" d="M74.57,153.71a6.88,6.88,0,0,0,1.09-1.23,2.21,2.21,0,0,0,.45-1.27,1.39,1.39,0,0,0-.29-.92,1.13,1.13,0,0,0-.91-.34,1.19,1.19,0,0,0-1,.39,1.55,1.55,0,0,0-.36,1h-.8a2.18,2.18,0,0,1,.62-1.56,2.32,2.32,0,0,1,3,0,1.85,1.85,0,0,1,.55,1.42,2.65,2.65,0,0,1-.45,1.45,6.21,6.21,0,0,1-1,1.25c-.38.35-.86.77-1.45,1.24h3.1v.69H72.78v-.59C73.54,154.61,74.14,154.11,74.57,153.71Z"/>
      </g>
      <g>
        <path class="cls-2" d="M115,151a2.91,2.91,0,0,1,1.13-1.15,3,3,0,0,1,1.59-.42,3.23,3.23,0,0,1,1.79.5,2.89,2.89,0,0,1,1.12,1.4h-1a1.89,1.89,0,0,0-.75-.87,2.19,2.19,0,0,0-1.17-.31,2.33,2.33,0,0,0-1.18.31,2.09,2.09,0,0,0-.82.87,3,3,0,0,0,0,2.63,2.22,2.22,0,0,0,.82.87,2.33,2.33,0,0,0,1.18.3,2.19,2.19,0,0,0,1.17-.3,1.89,1.89,0,0,0,.75-.87h1a2.82,2.82,0,0,1-1.12,1.39,3.23,3.23,0,0,1-1.79.5,3.14,3.14,0,0,1-1.59-.41,3,3,0,0,1-1.13-1.14,3.45,3.45,0,0,1,0-3.3Z"/>
        <path class="cls-2" d="M122.68,149.08v6.66h-.82v-6.66Z"/>
        <path class="cls-2" d="M124.9,149.08v6.66h-.82v-6.66Z"/>
        <path class="cls-2" d="M126.16,155.63a.51.51,0,0,1-.16-.39.54.54,0,0,1,.16-.4.56.56,0,0,1,.78,0,.57.57,0,0,1,.15.4.54.54,0,0,1-.93.39Z"/>
        <path class="cls-2" d="M130.24,150v-.75h1.69v6.51h-.83V150Z"/>
        <path class="cls-2" d="M134,149.57a2.29,2.29,0,0,1,1.49-.47,2.47,2.47,0,0,1,1.06.22,1.55,1.55,0,0,1,.91,1.46,1.52,1.52,0,0,1-.32,1,1.51,1.51,0,0,1-.84.53v0a1.72,1.72,0,0,1,.93.57,1.69,1.69,0,0,1,.34,1.11,1.87,1.87,0,0,1-.23.92,1.61,1.61,0,0,1-.7.64,2.48,2.48,0,0,1-1.13.24,2.42,2.42,0,0,1-1.57-.5,2,2,0,0,1-.68-1.42H134a1.36,1.36,0,0,0,.44.88,1.44,1.44,0,0,0,1,.34,1.3,1.3,0,0,0,1-.33,1.13,1.13,0,0,0,.33-.85,1.08,1.08,0,0,0-.45-1,2.47,2.47,0,0,0-1.36-.3h-.21V152H135a2.43,2.43,0,0,0,1.25-.28.89.89,0,0,0,.42-.82,1,1,0,0,0-.31-.77,1.24,1.24,0,0,0-.88-.28,1.38,1.38,0,0,0-.91.28,1.23,1.23,0,0,0-.4.78h-.8A1.74,1.74,0,0,1,134,149.57Z"/>
        <path class="cls-2" d="M138.44,154.29v-.62l3.16-4.38h1v4.29h.91v.71h-.91v1.45h-.81v-1.45Zm3.37-4.14-2.42,3.43h2.42Z"/>
        <path class="cls-2" d="M151.82,151.6l-.35,1.62h1.25v.72h-1.4l-.39,1.8h-.78l.39-1.8h-1.89l-.39,1.8h-.78l.38-1.8h-1.41v-.72H148l.34-1.62H147v-.72h1.55l.39-1.8h.78l-.38,1.8h1.89l.38-1.8h.79l-.39,1.8h1.25v.72Zm-.79,0h-1.89l-.34,1.62h1.89Z"/>
        <path class="cls-2" d="M156,153.58a7.29,7.29,0,0,0,1.09-1.24,2.21,2.21,0,0,0,.45-1.26,1.47,1.47,0,0,0-.28-.93,1.16,1.16,0,0,0-.92-.33,1.19,1.19,0,0,0-.95.38,1.55,1.55,0,0,0-.36,1h-.8a2.18,2.18,0,0,1,.62-1.56,2.08,2.08,0,0,1,1.48-.55,2.06,2.06,0,0,1,1.48.52,1.85,1.85,0,0,1,.54,1.41,2.65,2.65,0,0,1-.45,1.45,6,6,0,0,1-1,1.25c-.38.35-.86.77-1.45,1.25h3.1v.68h-4.33v-.59C154.94,154.47,155.54,154,156,153.58Z"/>
        <path class="cls-2" d="M160,150a2.22,2.22,0,0,1,3.52,0,4.81,4.81,0,0,1,.51,2.42,4.89,4.89,0,0,1-.51,2.45,2.22,2.22,0,0,1-3.52,0,4.89,4.89,0,0,1-.51-2.45A4.81,4.81,0,0,1,160,150Zm3.11,1.09a1.73,1.73,0,0,0-.42-.88,1.24,1.24,0,0,0-.93-.33,1.26,1.26,0,0,0-.93.33,1.73,1.73,0,0,0-.42.88,7.21,7.21,0,0,0-.1,1.33,7.49,7.49,0,0,0,.1,1.36,1.73,1.73,0,0,0,.42.88,1.26,1.26,0,0,0,.93.33,1.24,1.24,0,0,0,.93-.33,1.73,1.73,0,0,0,.42-.88,7.49,7.49,0,0,0,.1-1.36A7.21,7.21,0,0,0,163.07,151.09Z"/>
        <path class="cls-2" d="M168.67,152.09v.7h-3.6v-.7Z"/>
        <path class="cls-2" d="M174.22,149.94h-3.16V152a1.61,1.61,0,0,1,.62-.47,2.12,2.12,0,0,1,.87-.18,2.17,2.17,0,0,1,1.22.31,1.79,1.79,0,0,1,.67.8,2.79,2.79,0,0,1,.2,1,2.7,2.7,0,0,1-.24,1.16,1.89,1.89,0,0,1-.75.81,2.35,2.35,0,0,1-1.24.3,2.29,2.29,0,0,1-1.53-.49,2,2,0,0,1-.71-1.29h.8a1.37,1.37,0,0,0,.5.8,1.53,1.53,0,0,0,.95.29,1.35,1.35,0,0,0,1.08-.43,1.7,1.7,0,0,0,.36-1.13,1.54,1.54,0,0,0-.36-1.09,1.42,1.42,0,0,0-1.07-.38,1.52,1.52,0,0,0-.83.23,1.29,1.29,0,0,0-.52.63h-.77v-3.68h3.91Z"/>
        <path class="cls-2" d="M175.53,154.29v-.62l3.16-4.38h1v4.29h.9v.71h-.9v1.45h-.81v-1.45Zm3.37-4.14-2.42,3.43h2.42Z"/>
      </g>
    </g>
  </g>
</svg>
