<svg xmlns="http://www.w3.org/2000/svg" viewBox="0 0 231.33 204.95">
  <defs>
    <style>
      .cls-1, .cls-2 {
        fill: #201e20;
      }

      .cls-1 {
        fill-rule: evenodd;
      }
    </style>
  </defs>
  <g id="Capa_2" data-name="Capa 2">
    <g id="Capa_1-2" data-name="Capa 1">
      <g>
        <path class="cls-1" d="M159.37,58.85c-.72,1.16-1.69,2-.69,3.78a2.7,2.7,0,0,0,3.68.86c1.89-1,2.3-5.87-3-4.64"/>
        <path class="cls-1" d="M45.9,80.91l.72,5.8,18.13-.3c-1.62-11.34-.88-4.46-.58-13.87,1.21,10,3.32,16.69,9.43,24.19a42.16,42.16,0,0,0,65.12.29c6.88-8.27,10-16.56,9.61-31.19l.34.52c1.11,2.21,1.56,6.56,1.56,12l17.84-3.25-.39-6.22c2.76-.94,3,.6,2.4-5.46-4.81-45.73-55.42-72.72-97-48.19a64,64,0,0,0-18,16.4c-2.72,3.9-4,5.27-6.31,10.23-5.07,10.92-7.4,21.37-6.33,33.75.57,6.61.54,4.82,3.47,5.27M44.51,79.3c-2.29-7.25,0-21.57,2-27.78,16.58-52.5,87.87-60,114.85-11.3,3.67,6.64,7.56,17.9,7.43,26.61-1.74,1-10.46,2.41-13.16,2.89-.41-8.4-2-15.4-5.52-22.19a48.48,48.48,0,0,0-27.36-23.85C103.61,17,83.62,22.42,70,36.69c-1,1-1.67,2.29-2.67,3.38C64,43.72,60.56,50.8,58.88,56.76a51.22,51.22,0,0,0-1,22.6ZM77,32.52c5.13-4.52,13.66-8.35,22.14-9.63,9.85-1.49,17.46.06,25.38,3.05,12.88,4.86,26,19.31,28.23,33.06l-5.56.89c-3.13-14.16-14.64-24.77-24.71-28.68l-9.26-3.52c-3.49-.59-8.82-.11-12.49.26A138,138,0,0,0,77,32.52ZM58.63,67.79C58.52,61.34,61,53.93,63.43,49a38.88,38.88,0,0,1,4.73-7.59c1.38-1.6,3.93-5.26,5.79-6.31-.17,1.15-.15,4.11-.36,4.88-.31,1.12-1.42,1.37-1.9,3.33-.82,3.32.74.77-1.35,4.15-.61,1-1,2.35-1.64,3.57a42,42,0,0,0-4.47,16.71Zm16-26.88c-.37-6.63.12-7,6.33-8.65a135.18,135.18,0,0,1,28.11-3.9c5.93,0,7.57.16,8.46,6.14a2.71,2.71,0,0,1,2.39,1.79c1.07,2,.08,1.05,2.21,2.11a8.25,8.25,0,0,1,4.1,4.19c1.88,3.72,4.12,7.26,5.82,11.31,1.32,3.16,1,4.05,1.53,7.33a35.13,35.13,0,0,0,2.13,6.58c2.49,6.19,1.74,8.82,5.6,11.34.09-1.51-.64-1.54-1.56-2.65s-.84-1.69-1.23-3.34a49.65,49.65,0,0,0-2.25-6.42c-4-10.16,1-6.62-9.8-25.62-1.63-2.85-2-2.29-4.48-3.76-1.61-1-.62-1.13-1.9-2.48-.89-.94-1.5-.68-1.89-2,5.46.5,13.77,7.27,17.54,11.32,15.8,17,12.28,46.71-9.24,59.54C97.83,120.86,62.3,96.9,67.6,63.59c.16-1,.36-1.91.57-2.81l1-2.59c.27.72,1.41,2.85,1.41,2.88.19.85-.53,1.68-.56,2.9-.09,3.61,2.35,4.29,2,5.87-2.15,8.79,1.61,5.32.59,9.63C71,86.19,83.4,92,84.65,95.67c.7,2,1,4.55,1.71,6.66,4.65,2.12,12.6-.08,18,.42,3.12.28,15.49,1.26,18,.2-1.56-.85-14-.76-17.25-1-6.09-.54-11.56.67-18-.12-.65-2-1.16-6.65-2.35-7.92-.19-.2-1-.66-1.44-1.05l-3.55-3.28c-3.94-3.92-8.28-6.9-5.63-11.25-2.81-4.24-2.39-5-.76-9.4-2.16-1.12-3.42-4.58-1.23-8.06C70,58.68,69,57.08,70.8,52.73c1-2.27-1.25-2.56.3-5,1-1.61,1,0,1.26-2.24C72.71,42.86,72.62,41.84,74.65,40.91ZM58.5,69.44l3.26-.17c-.11,1-1,1.82-1.56,3s-.72,2.2-1.35,3.44Zm95.34-2.69c-.71-1-1.12-2.07-1.87-3.12-1.46-2.05-1.88-1.46-2-2.65l3.28-.4Zm-90.91,18-15,.42-.51-4.35h12c.67-2.09.79-8,3.39-10.18C62.29,76.2,61.9,78.85,62.93,84.77Zm86.2-22.18c3,1.7,3.48,6,5.25,8.87l11.77-2.34.47,4.8L151.78,76.6a44.78,44.78,0,0,0-.73-7.36C150.54,66.73,149.65,64.8,149.13,62.59Z"/>
        <path class="cls-1" d="M84.42,83.79l4,16.43c5.31,1,27.87-1,31.59-4,.79-1-.29-18-2.09-21.64l.56,19.88c-.62,1.84-12.71,3.23-13.81,3.36-3.75.45-11.33,1.33-14.72.65L87,85.72Z"/>
        <path class="cls-1" d="M120.16,39.11c-.25,1.66-.34,3.14-1.87,3.78a4.47,4.47,0,0,1-4.43-.8c-5.7-4-2.78-3.56-3.18-6.87-3.74-.69-2.79,5.37-2.52,6.17,1.06,3.26,7.15,6,9.8,8.11,2,1.6,2.89,2.91,4.66,4.09l-2.53-.75a48.83,48.83,0,0,1,1.25,6.76c.3,4.53-.42,6.11,2.88,11.44a13.75,13.75,0,0,0,3.2,3.82c-1.78,1.25-3.24,1.32-5.47.87,1.19,9.32,1.33,4.94,7.25,9.86L122.6,85c.31,2.94,1,6.22.54,9.06-.56,3.61-1.55,3.35-4,5l.48.26.51.22.85.21c3.36.51,7.86-5.45,9.37-7.79l-.47,2,2.26.89c2-2.23,4.66-5.37,6-8.51a12.42,12.42,0,0,0-2.76-2.59c.55-2.1,1.77-2.76,1.46-5.91-1-9.9-4.06-10.44-4.84-19-.33-3.7-3.18-8.61-4.77-11.56-2.09-3.88-3-7.25-7.12-8.23"/>
        <path class="cls-1" d="M76.47,35.75l-.15,5.93c-1.7,1.86-2.12.77-2.24,4.24-.12,3.68-2.52,1.46-1.54,4.88,3.71-1.07-2.84-1,6.88-3.76,9.16-2.64,25.32-4.26,26.33-4.55,0,0-.23.64,1.16-.57-.76-1.21.66-.69-1.61-.72-.26,0-1.79.23-2.17.28L90.68,43.26A148.58,148.58,0,0,0,75.41,46.9c-.21-4.23,1-3.62,4.89-4.71,8.94-2.51,16.76-3.49,26.08-4.36l1.25-2.75c.92-1.74.56-1.21.38-3.62a19.11,19.11,0,0,1,3.12-.05,13.82,13.82,0,0,1,1.55.15c3.24.73,0,3.63,3.31,4.5-.63-5.65-.76-5.93-6.39-6-8.95-.08-25.78,2.33-33.13,5.67m21.79-3.56.5,5L86.53,39.27,86.41,34ZM77.73,41.52a20.72,20.72,0,0,1,0-4.45c.37-1,1.77-1.24,3-1.52L81,40.61Z"/>
        <path class="cls-1" d="M87.85,65.65c3.63-.52,4.67-7-.8-7.68s-6.8,0-11.4,2.06c-5.41,2.43-3,8.28-.69,8,2.77-.35,6.47-1.72,12.89-2.37m1.24-3.24c-.46,2.48-1.86,3.53-4.78,2.91-1.84-.38-4.1-1.85-3.76-4.18C80.94,58.4,90.29,55.85,89.09,62.41Z"/>
        <path class="cls-1" d="M86.88,67.38c5.54.11,5.18.6,4.12,6.16-2,.64-5.42.72-6.86-.42a4,4,0,0,1-.93-3.57c.28-1.15,2.55-1.57,3.42-2.18l-3.81.19c-2.69.32-6.51.8-8.17,2.47s-1.15,5.15.37,7c5.39-2.71,8.44-2,14.46-2.47,4.49.56,8-9-2.6-7.15"/>
        <path class="cls-1" d="M80.05,79.16a3.24,3.24,0,0,0,3.94.53c1.16-.66.85-2,1.32-3.15.83,1.53.26,2.59-.2,3.93-3.76.67-8.14.35-4.5-3.5a5.78,5.78,0,0,0-5.78,3.42c.14,3.52,7,9.39,9,9.89a11.35,11.35,0,0,0-1.18-5.39c-2.26-.25-3.29-.09-3.51-2.12,3.84,1.69,9.54-2,7.3-6-2.08-1.18-6,.06-6.41,2.43"/>
        <path class="cls-1" d="M78.89,57.39c2.4-8.77-10.53-7.73-6.94,1.83,2.15.42,4.8-1.11,6.94-1.83m-6.44-3.21c1.87-3.19,6.06-.71,4,2.54-.72,1.12-2.36,1.41-4,1.43l-.39-2.63,1,1.86c2.38-.45,3.6-1.38,2.34-3.63A4.68,4.68,0,0,0,72.45,54.18Z"/>
        <path class="cls-1" d="M119.18,38.48c-2-.33-6.3-2.52-7.41-2.31-.85,2.6.07,3.42,2.78,5.09,3.29,2,4.28.53,4.63-2.78"/>
        <path class="cls-1" d="M81.39,61.34c.65,4.23,8.68,4.84,6.49-1.61a5.57,5.57,0,0,0-6.49,1.61"/>
        <path class="cls-1" d="M90.67,68.74c-1.66-.85-4.43-.41-6.12.29-1.43,3.66,2.53,4.75,5.47,3.67Z"/>
        <path class="cls-1" d="M48.46,70.74c.64,3.07,5.9,2.4,5.2-1.2-.63-3.19-6-2.66-5.2,1.2"/>
        <path class="cls-1" d="M79,45c2.12-.05,7.23-1.08,8.61-2.1-2.51-.1-7.11.32-8.61,2.1"/>
        <path class="cls-1" d="M98.5,41.17c1.57.15,6.88.26,8-1-.44-.39.13-.6-1.77-.44-1.51.12-5.17.79-6.28,1.46"/>
        <path class="cls-1" d="M98.19,39.91l6.56-.47c.16,0,.91-.16,1-.2.77-.3.32-.13.75-.53a1.28,1.28,0,0,0-.82-.25l-5.6.68a3.49,3.49,0,0,0-1.92.77"/>
        <path class="cls-1" d="M138,81.16c.68.45,1.4.92,2.06,1.39l.76-1.85L138.91,79Z"/>
        <path class="cls-1" d="M79.49,43a30.25,30.25,0,0,0,4.3-.53c1.86-.33,3.28-.38,4.2-1.37a33.47,33.47,0,0,0-8.5,1.9"/>
        <path class="cls-1" d="M125.71,100.78a42.94,42.94,0,0,0,3.74-3.21l-1.17-.64a23.25,23.25,0,0,0-2.57,3.85"/>
        <path class="cls-1" d="M118.59,54.77c1.71-.19,1.71,4.76,1.82,5.48.35,2.28.94,6.87.53,6.87a125,125,0,0,0-26.27,2.59c.36-4.5-3.29-3.17-3.45-3.39l-1-1.36c2.79.24,1.87-6.79.37-7.63,1.13-1.68,22.14-1.93,28.05-2.56"/>
        <path class="cls-1" d="M94.33,1.11c-36.54,6.54-64,41.08-57,81.18,6.34,36.29,41.27,63.82,81.21,56.83,36.38-6.37,63.79-41.39,56.79-81.22C169,21.84,134.05-6,94.33,1.11M40,80.57A67.12,67.12,0,0,1,96,3.83c37.81-5.92,71,20.61,76.53,55.76A67.1,67.1,0,1,1,40,80.57Z"/>
        <path class="cls-2" d="M153.3,48.57l.52,1.15L161,46.51l-.45-1-4.27,1.92L160,44.36l-.63-1.4-7.13,3.21.45,1,5.17-2.32Zm3.5-13-1.45.11.48.67,1.68.2Zm-7.31,2.85a1.87,1.87,0,1,0,2.18,3L155,39.1a1.87,1.87,0,1,0-2.19-3ZM153.56,37c.46-.33.77-.25,1,.06s.2.64-.25,1l-3.42,2.48c-.45.32-.77.25-1-.07s-.2-.64.25-1Zm-8.94-1.66.8.94,6-5.05-.8-.94Zm-1.79-5.89-.74.84c-.37.42-.69.41-1,.15s-.35-.57,0-1l2.8-3.17c.37-.41.69-.41,1-.15s.33.58,0,1l-.55.63.87.76.5-.57A1.83,1.83,0,1,0,143,25.56l-2.7,3.05A1.84,1.84,0,1,0,143,31l.69-.78Zm-5.19-8.37L136,24.75l-1-.65Zm1.56-.65-1.51-1-5.3,5.88.94.62.95-1.08,1.27.82L135,27l1,.68Zm-11-3.76c-.9,2,1.18,3.28.53,4.76-.22.51-.53.59-.89.44s-.5-.44-.27-1l.22-.51L126.71,20l-.2.44a1.84,1.84,0,1,0,3.36,1.47c.9-2.05-1.18-3.29-.54-4.76.23-.51.52-.62.88-.46s.47.44.25.95l-.13.3,1.06.46.1-.22a1.81,1.81,0,1,0-3.31-1.45Zm-7.42,3.68,1.22.34,2.1-7.53-1-.29-1.26,4.5,0-4.84-1.48-.42-2.11,7.53,1.07.3,1.52-5.45Zm-8-8.37,2.11.22.12-1.11-3.33-.34-.81,7.77,3.33.35.12-1.11-2.11-.22.23-2.28,1.68.17.12-1.11-1.68-.17ZM103,12.5c.06,2.23,2.47,2.46,2.52,4.07,0,.56-.23.77-.62.78s-.64-.19-.65-.74l0-.56-1.16,0v.48c0,1.25.68,2,1.89,1.91s1.81-.76,1.77-2c-.06-2.24-2.47-2.47-2.51-4.08,0-.56.2-.77.59-.79s.62.2.63.76v.32l1.16,0v-.25c0-1.25-.67-2-1.87-1.91S103,11.25,103,12.5ZM92.88,18.37l-.18-.7c-.17-.71,0-1,.54-1.16l.46-.12.44,1.76c.1.48-.1.72-.45.81S93,18.91,92.88,18.37ZM91.52,18l.19.77c.28,1.11.88,1.62,1.76,1.4a1.17,1.17,0,0,0,.93-1,2.07,2.07,0,0,0,.26.57l1.22-.31a2.41,2.41,0,0,1-.37-.89l-.62-2.49L95.2,16l-.27-1.08-.32.08-.21-.85-1.19.3.21.85-.52.13c-.44.11-.76,0-.91-.62l-.12-.47c-.14-.54,0-.79.42-.89l1.34-.34L93.36,12,92,12.39a1.67,1.67,0,0,0-1.3,2.32l0,.14c.21.81.6,1.25,1.22,1.35A1.61,1.61,0,0,0,91.52,18Zm-11.22.15,2.31,3.27L81.55,22Zm.23-1.67-1.61.82,2.41,7.54,1-.51L81.89,23l1.35-.68.83,1.17,1.1-.56Zm-8.16,2.79,0,1.45.69-.45.27-1.67ZM77,27.57l1-.67L73.7,20.37l-1,.68Zm-6.71,1.14.43-.36.93,1.1c.36.42.3.74,0,1s-.61.25-1-.17L68,27c-.36-.43-.31-.75,0-1s.62-.25,1,.18l.54.64.89-.75-.49-.58a1.84,1.84,0,1,0-2.8,2.36L69.68,31a1.84,1.84,0,1,0,2.8-2.36l-1.6-1.9-1.32,1.11Zm-8.45,3.61c.29-.33.6-.31,1,.06l.58.51c.46.42.43.76.13,1.1l-.32.36-1.8-1.59Zm6.35,2.94a2.28,2.28,0,0,1-.8-.53l-.91-.8c-.61-.54-1.18-.78-1.78-.49A1.56,1.56,0,0,0,64,31.79l-.46-.41a1.57,1.57,0,0,0-2.55.17l-1.23,1.39,5.86,5.18.81-.92-2.39-2.11.29-.32c.37-.41.73-.42,1.27.06l.92.81a2.62,2.62,0,0,0,.8.56ZM56.45,39.73l1.11-1.8-.94-.59-1.77,2.85,6.64,4.12,1.77-2.85-.95-.59-1.12,1.81-1.94-1.21L60.14,40l-1-.59-.89,1.43ZM59,49.21l.51-1.15-7.17-3.14-.44,1,4.29,1.87-4.79-.72-.62,1.41L58,51.63l.45-1-5.19-2.27ZM49.63,56l.5-2.06-1.08-.26-.79,3.26,7.6,1.83.79-3.26-1.09-.26-.49,2.06-2.23-.53.39-1.64-1.08-.27-.4,1.64Z"/>
        <path class="cls-1" d="M139.23,118a2.25,2.25,0,0,0,3.32.32,1.89,1.89,0,0,0,.29-3.06c-1-1.17-2-2.36-3.06-3.52a2.24,2.24,0,0,0-3.32-.32,1.9,1.9,0,0,0-.33,3.07q1.51,1.75,3.1,3.51m-1.95-4.48c-.42-.49-.35-.85,0-1.14s.78-.29,1.2.2c1.06,1.21,2.11,2.43,3.17,3.65.43.48.36.84,0,1.13s-.78.29-1.22-.2C139.39,116,138.34,114.74,137.28,113.53Zm-.05,8.25,1.34-.75c-.83-1.25-1.67-2.49-2.49-3.75s-1.58-2.5-2.36-3.75l-1.18.67c.46.75.93,1.49,1.41,2.24s1,1.49,1.46,2.24q-2.15-1.86-4.23-3.72l-1.67.94c.8,1.24,1.61,2.49,2.44,3.73s1.66,2.49,2.48,3.74l1.18-.67L133.8,120c-.59-.91-1.2-1.81-1.78-2.71.85.75,1.73,1.49,2.6,2.24Zm-10.43-2.93c.87,1.26,1.72,2.52,2.58,3.79l-1.35.54c-.21-.72-.41-1.44-.61-2.16S127,119.57,126.8,118.85Zm.46-1.87-2.06.83c.37,1.44.76,2.87,1.15,4.31l1.17,4.3,1.28-.52c-.15-.52-.3-1-.44-1.55l1.72-.7L131,125l1.41-.57c-.87-1.25-1.74-2.49-2.6-3.74S128.1,118.22,127.26,117Zm-3.39,10.61,1.44-.45c-.49-1.38-1-2.77-1.47-4.15s-1-2.77-1.46-4.16l-1.45.45c.49,1.39,1,2.77,1.46,4.15S123.37,126.2,123.87,127.59Zm-5.45-2.36.68-.15c.12.52.26,1,.38,1.57s-.09.89-.56,1a.75.75,0,0,1-1-.66c-.19-.76-.38-1.53-.56-2.29s-.37-1.54-.56-2.3c-.15-.61.08-.91.56-1s.83.06,1,.67c.08.3.15.61.23.91l1.39-.31c-.06-.27-.13-.55-.2-.82a2.06,2.06,0,0,0-2.73-1.66,2,2,0,0,0-1.69,2.63c.19.73.37,1.47.55,2.21s.36,1.47.54,2.21a2.07,2.07,0,0,0,2.74,1.66,2,2,0,0,0,1.68-2.62l-.66-2.7-2.08.45Zm-7.08-2.52c.19.72.39,1.44.58,2.17s.39,1.44.59,2.16l-1.45.14c0-.74.08-1.49.13-2.23S111.29,123.46,111.34,122.71Zm1-1.65-2.21.21c-.12,1.48-.23,3-.34,4.43s-.23,3-.34,4.42l1.39-.13c0-.54.07-1.07.11-1.61l1.85-.18c.14.52.27,1,.42,1.55l1.52-.15c-.39-1.42-.8-2.85-1.2-4.27S112.78,122.48,112.37,121.06Zm-9.11.25-2.11-.06c-.06,1.46-.13,2.93-.19,4.39s-.12,2.94-.19,4.4l1.33,0c0-1,.09-2.07.13-3.11s.08-2.07.13-3.1c.15,1,.3,2.08.44,3.12s.28,2.08.43,3.11c.48,0,1,0,1.43,0,.22-1,.43-2.08.65-3.13s.44-2.08.67-3.13c0,1-.1,2.1-.14,3.14s-.09,2.1-.13,3.15l1.44,0c.06-1.45.12-2.91.19-4.37s.13-2.92.19-4.38l-2.12,0c-.21,1-.44,2.07-.65,3.1s-.44,2.06-.65,3.1c-.15-1-.3-2.09-.43-3.13S103.39,122.35,103.26,121.31Zm-9,3.75,2.69.53.3-1.23-2.7-.53C94.43,124.24,94.33,124.65,94.24,125.06Zm-8.84,1.35c1.24.44,2.5.86,3.76,1.29.17-.4.33-.8.49-1.19l-2.34-.81c.49-1.19,1-2.39,1.45-3.58s1-2.39,1.49-3.58l-1.42-.5c-.58,1.39-1.16,2.78-1.73,4.18Zm-.77-8.52c-.58,1.44-1.14,2.88-1.7,4.31l-1.29-.63C82.63,120.34,83.62,119.11,84.63,117.89ZM86.5,117l-2-1c-1,1.2-2,2.4-3,3.61s-2,2.42-3,3.63l1.23.61c.35-.44.7-.89,1.06-1.33l1.64.81-.6,1.55,1.35.67c.55-1.43,1.08-2.86,1.62-4.29S86,118.45,86.5,117Zm73.25-35.6c2.92-2,5.76,2.74,2.92,4.47A2.67,2.67,0,1,1,159.75,81.42ZM53.42,91.92c2.84-2.06,5.86,2.56,2.85,4.42C53.49,98.06,50.25,94.22,53.42,91.92Zm-4.88,3.73c1.07,3.95,8.28,13.14,10.66,15.61,29.49,30.6,80.58,26.27,102.21-11.41,1.62-2.82,7.46-13.6,6.38-18.07a6.19,6.19,0,0,0-8.24-4.14c-3.34,1.28-3.68,4.55-4.87,7.83a53.29,53.29,0,0,1-12.58,19.21c-19.41,18.64-50.07,19.17-69.42,2.56C59.2,95.67,61.05,86.24,53,88A6.13,6.13,0,0,0,48.54,95.65Z"/>
        <path class="cls-2" d="M87.65,155.32l4.75-1,5.3,25.88,7.81-1.6.88,4.32-12.56,2.57Zm-4.32,21.92-5.17-14.5-.09,0,1,15.35ZM74,158.11l6.43-1.32L91.55,186l-4.75,1-2.09-5.82,0,.08-5.39,1.11.34,6.09-4.4.9Zm-26.23,5.37,12.94-2.65.88,4.31-8.2,1.68,1.64,8,6.51-1.33.89,4.31-6.52,1.34,1.9,9.27,8.2-1.67.88,4.31L54,193.68Zm-14.85,3L45.5,164l.88,4.31-7.81,1.6,1.73,8.41L46.42,177l.88,4.31-6.12,1.26,2.69,13.16-4.74,1Zm-4.32,21.92-5.17-14.5-.09,0,1,15.35Zm-9.31-19.13L25.74,168l11.1,29.2-4.75,1L30,192.34l0,.08-5.39,1.11.34,6.08-4.4.91ZM12.08,202.7a6.73,6.73,0,0,1-5.58-.88,7.82,7.82,0,0,1-2.93-5.11L.25,180.49a7.81,7.81,0,0,1,.69-5.85,6.75,6.75,0,0,1,4.78-3,7,7,0,0,1,5.62.87,8.1,8.1,0,0,1,2.89,5.12l.65,3.19-4.49.92-.71-3.49c-.38-1.86-1.35-2.65-2.95-2.32s-2.18,1.43-1.8,3.29l3.45,16.87c.38,1.85,1.35,2.6,2.94,2.27s2.19-1.39,1.81-3.24l-.94-4.62,4.48-.92.88,4.27a8.07,8.07,0,0,1-.65,5.84,6.86,6.86,0,0,1-4.82,3"/>
        <path class="cls-2" d="M147.18,164.17,142,149.67l-.08,0,1,15.35ZM137.87,145l6.43-1.32,11.1,29.2-4.74,1-2.09-5.82v.08l-5.39,1.11.35,6.08-4.4.91ZM111,150.54l6.78-1.39,7.44,21,.09,0-1.41-22.23,6.78-1.39,6.18,30.2-4.49.92-4.68-22.86h-.08l1.23,23.58-4,.81L116.72,157l-.08,0,4.68,22.86-4.14.85ZM101.3,166l9.5-1.94.88,4.31-9.49,1.94Z"/>
        <path class="cls-2" d="M224.55,154.72c1.64-.34,2.25-1.5,1.85-3.48L223,134.76c-.4-2-1.43-2.81-3.07-2.48s-2.25,1.5-1.85,3.48l3.38,16.48c.4,2,1.43,2.81,3.07,2.48m.88,4.31a7.09,7.09,0,0,1-5.76-.89,8,8,0,0,1-3-5.23L213.42,137a8,8,0,0,1,.71-6,7,7,0,0,1,4.94-3.08,7.09,7.09,0,0,1,5.76.89,8,8,0,0,1,3,5.23L231.08,150a8,8,0,0,1-.71,6A7,7,0,0,1,225.43,159Zm-31.55-25.46,6-1.22,8.32,17.14.08,0-3.7-18.08,4.23-.86,6.18,30.2-4.87,1-10.21-20.88h-.09l4.52,22-4.23.87Zm-4.33,21.93L184.38,141l-.08,0,1,15.35Zm-9.31-19.14,6.43-1.31,11.1,29.19-4.74,1-2.1-5.82,0,.09-5.39,1.1.35,6.09-4.4.9Zm-12,2.45,4.75-1,6.18,30.2-4.75,1Zm-3.87,32.71a6.88,6.88,0,0,1-5.67-.91,8.09,8.09,0,0,1-3-5.24l-3.25-15.87a8.27,8.27,0,0,1,.66-6,8.25,8.25,0,0,1,10.52-2.15,8.2,8.2,0,0,1,3,5.28l.53,2.59-4.48.92-.6-2.89c-.4-2-1.42-2.81-3.06-2.48s-2.26,1.5-1.85,3.48l3.38,16.53c.4,1.94,1.42,2.76,3.06,2.43s2.25-1.5,1.86-3.44l-1.21-5.91-2.38.49-.88-4.32,6.86-1.4,2,9.88a8,8,0,0,1-.66,6,6.89,6.89,0,0,1-4.86,3.06"/>
        <path class="cls-2" d="M87.65,155.32l4.75-1,5.3,25.88,7.81-1.6.88,4.32-12.56,2.57Zm-4.32,21.92-5.17-14.5-.09,0,1,15.35ZM74,158.11l6.43-1.32L91.55,186l-4.75,1-2.09-5.82,0,.08-5.39,1.11.34,6.09-4.4.9Zm-26.23,5.37,12.94-2.65.88,4.31-8.2,1.68,1.64,8,6.51-1.33.89,4.31-6.52,1.34,1.9,9.27,8.2-1.67.88,4.31L54,193.68Zm-14.85,3L45.5,164l.88,4.31-7.81,1.6,1.73,8.41L46.42,177l.88,4.31-6.12,1.26,2.69,13.16-4.74,1Zm-4.32,21.92-5.17-14.5-.09,0,1,15.35Zm-9.31-19.13L25.74,168l11.1,29.2-4.75,1L30,192.34l0,.08-5.39,1.11.34,6.08-4.4.91ZM12.08,202.7a6.73,6.73,0,0,1-5.58-.88,7.82,7.82,0,0,1-2.93-5.11L.25,180.49a7.81,7.81,0,0,1,.69-5.85,6.75,6.75,0,0,1,4.78-3,7,7,0,0,1,5.62.87,8.1,8.1,0,0,1,2.89,5.12l.65,3.19-4.49.92-.71-3.49c-.38-1.86-1.35-2.65-2.95-2.32s-2.18,1.43-1.8,3.29l3.45,16.87c.38,1.85,1.35,2.6,2.94,2.27s2.19-1.39,1.81-3.24l-.94-4.62,4.48-.92.88,4.27a8.07,8.07,0,0,1-.65,5.84,6.86,6.86,0,0,1-4.82,3"/>
        <path class="cls-2" d="M147.18,164.17,142,149.67l-.08,0,1,15.35ZM137.87,145l6.43-1.32,11.1,29.2-4.74,1-2.09-5.82v.08l-5.39,1.11.35,6.08-4.4.91ZM111,150.54l6.78-1.39,7.44,21,.09,0-1.41-22.23,6.78-1.39,6.18,30.2-4.49.92-4.68-22.86h-.08l1.23,23.58-4,.81L116.72,157l-.08,0,4.68,22.86-4.14.85ZM101.3,166l9.5-1.94.88,4.31-9.49,1.94Z"/>
        <path class="cls-2" d="M224.55,154.72c1.64-.34,2.25-1.5,1.85-3.48L223,134.76c-.4-2-1.43-2.81-3.07-2.48s-2.25,1.5-1.85,3.48l3.38,16.48c.4,2,1.43,2.81,3.07,2.48m.88,4.31a7.09,7.09,0,0,1-5.76-.89,8,8,0,0,1-3-5.23L213.42,137a8,8,0,0,1,.71-6,7,7,0,0,1,4.94-3.08,7.09,7.09,0,0,1,5.76.89,8,8,0,0,1,3,5.23L231.08,150a8,8,0,0,1-.71,6A7,7,0,0,1,225.43,159Zm-31.55-25.46,6-1.22,8.32,17.14.08,0-3.7-18.08,4.23-.86,6.18,30.2-4.87,1-10.21-20.88h-.09l4.52,22-4.23.87Zm-4.33,21.93L184.38,141l-.08,0,1,15.35Zm-9.31-19.14,6.43-1.31,11.1,29.19-4.74,1-2.1-5.82,0,.09-5.39,1.1.35,6.09-4.4.9Zm-12,2.45,4.75-1,6.18,30.2-4.75,1Zm-3.87,32.71a6.88,6.88,0,0,1-5.67-.91,8.09,8.09,0,0,1-3-5.24l-3.25-15.87a8.27,8.27,0,0,1,.66-6,8.25,8.25,0,0,1,10.52-2.15,8.2,8.2,0,0,1,3,5.28l.53,2.59-4.48.92-.6-2.89c-.4-2-1.42-2.81-3.06-2.48s-2.26,1.5-1.85,3.48l3.38,16.53c.4,1.94,1.42,2.76,3.06,2.43s2.25-1.5,1.86-3.44l-1.21-5.91-2.38.49-.88-4.32,6.86-1.4,2,9.88a8,8,0,0,1-.66,6,6.89,6.89,0,0,1-4.86,3.06"/>
        <path class="cls-2" d="M87.65,155.32l4.75-1,5.3,25.88,7.81-1.6.88,4.32-12.56,2.57Zm-4.32,21.92-5.17-14.5-.09,0,1,15.35ZM74,158.11l6.43-1.32L91.55,186l-4.75,1-2.09-5.82,0,.08-5.39,1.11.34,6.09-4.4.9Zm-26.23,5.37,12.94-2.65.88,4.31-8.2,1.68,1.64,8,6.51-1.33.89,4.31-6.52,1.34,1.9,9.27,8.2-1.67.88,4.31L54,193.68Zm-14.85,3L45.5,164l.88,4.31-7.81,1.6,1.73,8.41L46.42,177l.88,4.31-6.12,1.26,2.69,13.16-4.74,1Zm-4.32,21.92-5.17-14.5-.09,0,1,15.35Zm-9.31-19.13L25.74,168l11.1,29.2-4.75,1L30,192.34l0,.08-5.39,1.11.34,6.08-4.4.91ZM12.08,202.7a6.73,6.73,0,0,1-5.58-.88,7.82,7.82,0,0,1-2.93-5.11L.25,180.49a7.81,7.81,0,0,1,.69-5.85,6.75,6.75,0,0,1,4.78-3,7,7,0,0,1,5.62.87,8.1,8.1,0,0,1,2.89,5.12l.65,3.19-4.49.92-.71-3.49c-.38-1.86-1.35-2.65-2.95-2.32s-2.18,1.43-1.8,3.29l3.45,16.87c.38,1.85,1.35,2.6,2.94,2.27s2.19-1.39,1.81-3.24l-1-4.62,4.49-.92.88,4.27a8.07,8.07,0,0,1-.65,5.84,6.86,6.86,0,0,1-4.82,3"/>
        <path class="cls-2" d="M147.18,164.17,142,149.67l-.08,0,1,15.35ZM137.87,145l6.43-1.32,11.1,29.2-4.74,1-2.09-5.82v.08l-5.39,1.11.35,6.08-4.4.91ZM111,150.54l6.78-1.39,7.44,21,.09,0-1.41-22.23,6.78-1.39,6.18,30.2-4.49.92-4.68-22.86h-.08l1.22,23.58-4,.81L116.72,157l-.08,0,4.68,22.86-4.14.85ZM101.3,166l9.5-1.94.88,4.31-9.49,1.94Z"/>
        <path class="cls-2" d="M224.55,154.72c1.64-.34,2.25-1.5,1.85-3.48L223,134.76c-.4-2-1.43-2.81-3.07-2.48s-2.25,1.5-1.85,3.48l3.38,16.48c.4,2,1.43,2.81,3.07,2.48m.88,4.31a7.09,7.09,0,0,1-5.76-.89,8,8,0,0,1-3-5.23L213.42,137a8,8,0,0,1,.71-6,7,7,0,0,1,4.94-3.08,7.09,7.09,0,0,1,5.76.89,8,8,0,0,1,3,5.23L231.08,150a8,8,0,0,1-.71,6A7,7,0,0,1,225.43,159Zm-31.55-25.46,6-1.22,8.32,17.14.08,0-3.7-18.08,4.23-.86,6.18,30.2-4.87,1-10.21-20.88h-.09l4.52,22-4.23.87Zm-4.33,21.93L184.38,141l-.08,0,1,15.35Zm-9.31-19.14,6.43-1.31,11.1,29.19-4.75,1-2.09-5.82,0,.09-5.39,1.1.35,6.09-4.4.9Zm-12,2.45,4.75-1,6.18,30.2-4.75,1Zm-3.87,32.71a6.87,6.87,0,0,1-5.67-.91,8,8,0,0,1-3-5.24l-3.25-15.87a8.27,8.27,0,0,1,.66-6,8.25,8.25,0,0,1,10.52-2.15,8.2,8.2,0,0,1,3,5.28l.53,2.59-4.48.92-.6-2.89c-.4-2-1.43-2.81-3.06-2.48s-2.26,1.5-1.85,3.48l3.38,16.53c.4,1.94,1.42,2.76,3.06,2.43s2.25-1.5,1.86-3.44l-1.21-5.91-2.38.49-.88-4.32,6.86-1.4,2,9.88a8,8,0,0,1-.66,6,6.91,6.91,0,0,1-4.86,3.06"/>
        <path class="cls-2" d="M88.36,190.92l-1.72.35-.31-1.49,5.08-1,.31,1.49-1.72.35,1.84,9-1.65.34Zm-9.41.37,4.48-.92.31,1.5-2.84.58.57,2.76,2.25-.46.31,1.49-2.26.47.66,3.21,2.84-.58.3,1.49-4.48.92Zm-5.14,1.05,4.35-.89.3,1.5-2.7.55.6,2.91,2.12-.43.3,1.49-2.12.44.93,4.56L76,202.8Zm-1.5,7.6-1.79-5h0l.34,5.32Zm-3.22-6.63,2.22-.46L75.16,203l-1.64.34-.73-2v0l-1.87.38.12,2.11-1.52.31Zm-2.51,11.57a2.33,2.33,0,0,1-1.93-.31,2.73,2.73,0,0,1-1-1.77l-1.15-5.62a2.78,2.78,0,0,1,.24-2,2.82,2.82,0,0,1,3.61-.74,2.8,2.8,0,0,1,1,1.77l.22,1.11-1.55.32-.25-1.22c-.13-.64-.47-.91-1-.8s-.75.5-.62,1.14l1.19,5.84c.13.65.47.91,1,.79s.76-.48.63-1.12l-.33-1.6,1.55-.32.31,1.48a2.83,2.83,0,0,1-.23,2,2.4,2.4,0,0,1-1.67,1"/>
        <path class="cls-2" d="M105.27,187.46l-1.72.35-.3-1.49,5.08-1,.31,1.49-1.72.35,1.83,9-1.64.33Zm-2.84,10.08a2.34,2.34,0,0,1-2-.32,2.91,2.91,0,0,1-1-1.82l-.12-.59,1.55-.32.15.71c.14.68.49,1,1.06.85a.83.83,0,0,0,.59-.39,1.28,1.28,0,0,0,0-.83,2.36,2.36,0,0,0-.54-1.11,5.69,5.69,0,0,0-1.35-1,6.72,6.72,0,0,1-1.75-1.34,3.31,3.31,0,0,1-.74-1.54,2.85,2.85,0,0,1,.23-2.06,2.45,2.45,0,0,1,1.69-1,2.33,2.33,0,0,1,1.93.3,2.94,2.94,0,0,1,1,1.84l.09.43-1.56.32-.11-.54a1.26,1.26,0,0,0-.37-.75.73.73,0,0,0-.66-.11c-.55.11-.75.49-.62,1.17a2,2,0,0,0,.53,1,5.62,5.62,0,0,0,1.35,1,6.3,6.3,0,0,1,1.76,1.34,3.87,3.87,0,0,1,.74,1.64,2.89,2.89,0,0,1-.23,2.1,2.45,2.45,0,0,1-1.71,1.07m-6-.32c.57-.12.78-.52.64-1.21l-1.17-5.71c-.14-.68-.5-1-1.06-.85s-.78.52-.64,1.2l1.16,5.71c.15.69.5,1,1.07.86m.3,1.49a2.41,2.41,0,0,1-2-.31,2.74,2.74,0,0,1-1-1.81l-1.13-5.5a2.77,2.77,0,0,1,.25-2.07,2.89,2.89,0,0,1,3.7-.76,2.79,2.79,0,0,1,1,1.81l1.13,5.5a2.85,2.85,0,0,1-.24,2.08A2.45,2.45,0,0,1,96.69,198.71Z"/>
        <path class="cls-2" d="M169.48,182.26c.57-.12.78-.52.64-1.21L169,175.34c-.14-.68-.5-1-1.06-.85s-.78.51-.64,1.2l1.16,5.71c.15.69.5,1,1.07.86m.3,1.49a2.41,2.41,0,0,1-2-.31,2.74,2.74,0,0,1-1-1.81l-1.13-5.5a2.77,2.77,0,0,1,.25-2.07,2.89,2.89,0,0,1,3.7-.76,2.74,2.74,0,0,1,1,1.81l1.13,5.5a2.81,2.81,0,0,1-.24,2.07A2.43,2.43,0,0,1,169.78,183.75Zm-6.3-.42a.81.81,0,0,0,.58-.37,1.2,1.2,0,0,0,.05-.82L163,176.7a1.17,1.17,0,0,0-.37-.73.78.78,0,0,0-.68-.11l-.83.17,1.53,7.47Zm-4.31-8.46,2.51-.51a2.44,2.44,0,0,1,2,.28,2.83,2.83,0,0,1,1,1.8l1.08,5.29a2.73,2.73,0,0,1-.22,2.05,2.43,2.43,0,0,1-1.7,1l-2.51.51Zm-2.87.59,1.64-.34,2.14,10.46-1.64.34Zm-5.14,1,1.64-.34,1.84,9,2.7-.55.31,1.49-4.35.89Zm-1.74,9.85c.57-.11.78-.52.64-1.2l-1.16-5.71c-.15-.69-.5-1-1.07-.86s-.78.52-.64,1.21l1.17,5.71c.14.68.5,1,1.06.85m.31,1.5a2.47,2.47,0,0,1-2-.31,2.85,2.85,0,0,1-1.05-1.81l-1.12-5.5a2.85,2.85,0,0,1,.24-2.08,2.93,2.93,0,0,1,3.71-.76,2.79,2.79,0,0,1,1,1.82l1.13,5.5a2.77,2.77,0,0,1-.25,2.07A2.47,2.47,0,0,1,149.73,187.86Zm-12.59-8.48,2.35-.48,2.58,7.27h0l-.49-7.7L144,178l2.14,10.46-1.56.32-1.62-7.92h0l.43,8.16-1.38.28-2.81-7.67h0l1.62,7.92-1.44.29Zm-5.54,7.39-3.22-5.6,1.75-.36,1.91,3.61h0l.33-4.07L134,180l-.76,6.41.92,4.46-1.65.33Zm-6.86,4.65c.56-.12.78-.52.64-1.21l-1.17-5.71c-.14-.69-.5-1-1.07-.86s-.78.52-.64,1.21l1.17,5.71c.14.69.5,1,1.07.86m.3,1.49a2.44,2.44,0,0,1-2-.31,2.74,2.74,0,0,1-1-1.81l-1.13-5.5a2.76,2.76,0,0,1,.25-2.07,2.44,2.44,0,0,1,1.71-1.07,2.4,2.4,0,0,1,2,.31,2.74,2.74,0,0,1,1,1.81l1.13,5.5a2.76,2.76,0,0,1-.25,2.07A2.45,2.45,0,0,1,125,192.91Zm-6.3-.42a.84.84,0,0,0,.58-.37,1.26,1.26,0,0,0,.05-.82l-1.11-5.44a1.28,1.28,0,0,0-.37-.74.86.86,0,0,0-.68-.11l-.83.18,1.53,7.47ZM114.43,184l2.51-.52a2.44,2.44,0,0,1,2,.29,2.83,2.83,0,0,1,1,1.8l1.08,5.29a2.78,2.78,0,0,1-.22,2.05,2.39,2.39,0,0,1-1.7,1l-2.51.52Zm-1.5,7.59-1.79-5h0l.34,5.31ZM109.7,185l2.23-.45,3.85,10.11-1.65.34-.72-2v0l-1.86.38.12,2.11-1.53.31Z"/>
        <path class="cls-2" d="M88.36,190.92l-1.72.35-.31-1.49,5.08-1,.31,1.49-1.72.35,1.84,9-1.65.34Zm-9.41.37,4.48-.92.31,1.5-2.84.58.57,2.76,2.25-.46.31,1.49-2.26.47.66,3.21,2.84-.58.3,1.49-4.48.92Zm-5.14,1.05,4.35-.89.3,1.5-2.7.55.6,2.91,2.12-.43.3,1.49-2.12.44.93,4.56L76,202.8Zm-1.5,7.6-1.79-5h0l.34,5.32Zm-3.22-6.63,2.22-.46L75.16,203l-1.64.34-.73-2v0l-1.87.38.12,2.11-1.52.31Zm-2.51,11.57a2.33,2.33,0,0,1-1.93-.31,2.73,2.73,0,0,1-1-1.77l-1.15-5.62a2.78,2.78,0,0,1,.24-2,2.82,2.82,0,0,1,3.61-.74,2.8,2.8,0,0,1,1,1.77l.22,1.11-1.55.32-.25-1.22c-.13-.64-.47-.91-1-.8s-.75.5-.62,1.14l1.19,5.84c.13.65.47.91,1,.79s.76-.48.63-1.12l-.33-1.6,1.55-.32.31,1.48a2.83,2.83,0,0,1-.23,2,2.4,2.4,0,0,1-1.67,1"/>
        <path class="cls-2" d="M105.27,187.46l-1.72.35-.3-1.49,5.08-1,.31,1.49-1.72.35,1.83,9-1.64.33Zm-2.84,10.08a2.34,2.34,0,0,1-2-.32,2.91,2.91,0,0,1-1-1.82l-.12-.59,1.55-.32.15.71c.14.68.49,1,1.06.85a.83.83,0,0,0,.59-.39,1.28,1.28,0,0,0,0-.83,2.36,2.36,0,0,0-.54-1.11,5.69,5.69,0,0,0-1.35-1,6.72,6.72,0,0,1-1.75-1.34,3.31,3.31,0,0,1-.74-1.54,2.85,2.85,0,0,1,.23-2.06,2.45,2.45,0,0,1,1.69-1,2.33,2.33,0,0,1,1.93.3,2.94,2.94,0,0,1,1,1.84l.09.43-1.56.32-.11-.54a1.26,1.26,0,0,0-.37-.75.73.73,0,0,0-.66-.11c-.55.11-.75.49-.62,1.17a2,2,0,0,0,.53,1,5.62,5.62,0,0,0,1.35,1,6.3,6.3,0,0,1,1.76,1.34,3.87,3.87,0,0,1,.74,1.64,2.89,2.89,0,0,1-.23,2.1,2.45,2.45,0,0,1-1.71,1.07m-6-.32c.57-.12.78-.52.64-1.21l-1.17-5.71c-.14-.68-.5-1-1.06-.85s-.78.52-.64,1.2l1.16,5.71c.15.69.5,1,1.07.86m.3,1.49a2.41,2.41,0,0,1-2-.31,2.74,2.74,0,0,1-1-1.81l-1.13-5.5a2.77,2.77,0,0,1,.25-2.07,2.89,2.89,0,0,1,3.7-.76,2.79,2.79,0,0,1,1,1.81l1.13,5.5a2.85,2.85,0,0,1-.24,2.08A2.45,2.45,0,0,1,96.69,198.71Z"/>
        <path class="cls-2" d="M169.48,182.26c.57-.12.78-.52.64-1.21L169,175.34c-.14-.68-.5-1-1.06-.85s-.78.51-.64,1.2l1.16,5.71c.15.69.5,1,1.07.86m.3,1.49a2.41,2.41,0,0,1-2-.31,2.74,2.74,0,0,1-1-1.81l-1.13-5.5a2.77,2.77,0,0,1,.25-2.07,2.89,2.89,0,0,1,3.7-.76,2.74,2.74,0,0,1,1,1.81l1.13,5.5a2.81,2.81,0,0,1-.24,2.07A2.43,2.43,0,0,1,169.78,183.75Zm-6.3-.42a.81.81,0,0,0,.58-.37,1.2,1.2,0,0,0,.05-.82L163,176.7a1.17,1.17,0,0,0-.37-.73.78.78,0,0,0-.68-.11l-.83.17,1.53,7.47Zm-4.31-8.46,2.51-.51a2.44,2.44,0,0,1,2,.28,2.83,2.83,0,0,1,1,1.8l1.08,5.29a2.73,2.73,0,0,1-.22,2.05,2.43,2.43,0,0,1-1.7,1l-2.51.51Zm-2.87.59,1.64-.34,2.14,10.46-1.64.34Zm-5.14,1,1.64-.34,1.84,9,2.7-.55.31,1.49-4.35.89Zm-1.74,9.85c.57-.11.78-.52.64-1.2l-1.16-5.71c-.15-.69-.5-1-1.07-.86s-.78.52-.64,1.21l1.17,5.71c.14.68.5,1,1.06.85m.31,1.5a2.47,2.47,0,0,1-2-.31,2.85,2.85,0,0,1-1.05-1.81l-1.12-5.5a2.85,2.85,0,0,1,.24-2.08,2.93,2.93,0,0,1,3.71-.76,2.79,2.79,0,0,1,1,1.82l1.13,5.5a2.77,2.77,0,0,1-.25,2.07A2.47,2.47,0,0,1,149.73,187.86Zm-12.59-8.48,2.35-.48,2.58,7.27h0l-.49-7.7L144,178l2.14,10.46-1.56.32-1.62-7.92h0l.43,8.16-1.38.28-2.81-7.67h0l1.62,7.92-1.44.29Zm-5.54,7.39-3.22-5.6,1.75-.36,1.91,3.61h0l.33-4.07L134,180l-.76,6.41.92,4.46-1.65.33Zm-6.86,4.65c.56-.12.78-.52.64-1.21l-1.17-5.71c-.14-.69-.5-1-1.07-.86s-.78.52-.64,1.21l1.17,5.71c.14.69.5,1,1.07.86m.3,1.49a2.44,2.44,0,0,1-2-.31,2.74,2.74,0,0,1-1-1.81l-1.13-5.5a2.76,2.76,0,0,1,.25-2.07,2.44,2.44,0,0,1,1.71-1.07,2.4,2.4,0,0,1,2,.31,2.74,2.74,0,0,1,1,1.81l1.13,5.5a2.76,2.76,0,0,1-.25,2.07A2.45,2.45,0,0,1,125,192.91Zm-6.3-.42a.84.84,0,0,0,.58-.37,1.26,1.26,0,0,0,.05-.82l-1.11-5.44a1.28,1.28,0,0,0-.37-.74.86.86,0,0,0-.68-.11l-.83.18,1.53,7.47ZM114.43,184l2.51-.52a2.44,2.44,0,0,1,2,.29,2.83,2.83,0,0,1,1,1.8l1.08,5.29a2.78,2.78,0,0,1-.22,2.05,2.39,2.39,0,0,1-1.7,1l-2.51.52Zm-1.5,7.59-1.79-5h0l.34,5.31ZM109.7,185l2.23-.45,3.85,10.11-1.65.34-.72-2v0l-1.86.38.12,2.11-1.53.31Z"/>
        <path class="cls-2" d="M88.36,190.92l-1.72.35-.31-1.49,5.08-1,.31,1.49-1.72.35,1.84,9-1.65.34Zm-9.41.37,4.48-.92.31,1.5-2.84.58.57,2.76,2.25-.46.31,1.49-2.26.47.66,3.21,2.84-.58.3,1.49-4.48.92Zm-5.14,1.05,4.35-.89.3,1.5-2.7.55.6,2.91,2.12-.43.3,1.49-2.12.44.93,4.56L76,202.8Zm-1.5,7.6-1.79-5h0l.34,5.32Zm-3.22-6.63,2.22-.46L75.16,203l-1.65.34-.72-2v0l-1.87.38.12,2.11-1.53.31Zm-2.51,11.57a2.33,2.33,0,0,1-1.93-.31,2.73,2.73,0,0,1-1-1.77l-1.15-5.62a2.78,2.78,0,0,1,.24-2,2.81,2.81,0,0,1,3.6-.74,2.77,2.77,0,0,1,1,1.77l.22,1.11-1.55.32-.25-1.22c-.13-.64-.47-.91-1-.8s-.75.5-.62,1.14l1.19,5.84c.13.65.47.91,1,.79s.76-.48.63-1.12l-.33-1.6,1.55-.32.31,1.48a2.83,2.83,0,0,1-.23,2,2.4,2.4,0,0,1-1.67,1"/>
        <path class="cls-2" d="M105.27,187.46l-1.72.35-.3-1.49,5.08-1,.31,1.49-1.72.35,1.83,9-1.64.33Zm-2.84,10.08a2.34,2.34,0,0,1-2-.32,2.91,2.91,0,0,1-1-1.82l-.12-.59,1.55-.32.15.71c.14.68.49,1,1.06.85a.83.83,0,0,0,.59-.39,1.28,1.28,0,0,0,0-.83,2.36,2.36,0,0,0-.54-1.11,5.69,5.69,0,0,0-1.35-1,6.72,6.72,0,0,1-1.75-1.34,3.31,3.31,0,0,1-.74-1.54,2.85,2.85,0,0,1,.23-2.06,2.45,2.45,0,0,1,1.69-1,2.33,2.33,0,0,1,1.93.3,2.94,2.94,0,0,1,1,1.84l.09.43-1.56.32-.11-.54a1.26,1.26,0,0,0-.37-.75.73.73,0,0,0-.66-.11c-.55.11-.75.49-.62,1.17a2,2,0,0,0,.53,1,5.62,5.62,0,0,0,1.35,1,6.3,6.3,0,0,1,1.76,1.34,3.87,3.87,0,0,1,.74,1.64,2.89,2.89,0,0,1-.23,2.1,2.45,2.45,0,0,1-1.71,1.07m-6-.32c.57-.12.78-.52.64-1.21l-1.17-5.71c-.14-.68-.5-1-1.06-.85s-.78.52-.64,1.2l1.16,5.71c.15.69.5,1,1.07.86m.3,1.49a2.41,2.41,0,0,1-2-.31,2.74,2.74,0,0,1-1-1.81l-1.13-5.5a2.77,2.77,0,0,1,.25-2.07,2.89,2.89,0,0,1,3.7-.76,2.79,2.79,0,0,1,1,1.81l1.13,5.5a2.85,2.85,0,0,1-.24,2.08A2.45,2.45,0,0,1,96.69,198.71Z"/>
        <path class="cls-2" d="M169.48,182.26c.57-.12.78-.52.64-1.21L169,175.34c-.14-.68-.5-1-1.06-.85s-.78.51-.64,1.2l1.16,5.71c.15.69.5,1,1.07.86m.3,1.49a2.41,2.41,0,0,1-2-.31,2.74,2.74,0,0,1-1-1.81l-1.13-5.5a2.77,2.77,0,0,1,.25-2.07,2.89,2.89,0,0,1,3.7-.76,2.74,2.74,0,0,1,1,1.81l1.13,5.5a2.81,2.81,0,0,1-.24,2.07A2.43,2.43,0,0,1,169.78,183.75Zm-6.3-.42a.81.81,0,0,0,.58-.37,1.2,1.2,0,0,0,.05-.82L163,176.7a1.17,1.17,0,0,0-.37-.73.78.78,0,0,0-.68-.11l-.83.17,1.53,7.47Zm-4.31-8.46,2.51-.51a2.44,2.44,0,0,1,2,.28,2.83,2.83,0,0,1,1,1.8l1.08,5.29a2.73,2.73,0,0,1-.22,2.05,2.43,2.43,0,0,1-1.7,1l-2.51.51Zm-2.87.59,1.64-.34,2.14,10.46-1.64.34Zm-5.14,1,1.64-.34,1.84,9,2.7-.55.31,1.49-4.35.89Zm-1.74,9.85c.57-.11.78-.52.64-1.2l-1.16-5.71c-.15-.69-.5-1-1.07-.86s-.78.52-.64,1.21l1.17,5.71c.14.68.5,1,1.06.85m.31,1.5a2.47,2.47,0,0,1-2-.31,2.85,2.85,0,0,1-1.05-1.81l-1.12-5.5a2.85,2.85,0,0,1,.24-2.08,2.93,2.93,0,0,1,3.71-.76,2.79,2.79,0,0,1,1,1.82l1.13,5.5a2.77,2.77,0,0,1-.25,2.07A2.47,2.47,0,0,1,149.73,187.86Zm-12.59-8.48,2.35-.48,2.58,7.27h0l-.49-7.7L144,178l2.14,10.46-1.56.32-1.62-7.92h0l.43,8.16-1.38.28-2.81-7.67h0l1.62,7.92-1.44.29Zm-5.54,7.39-3.22-5.6,1.75-.36,1.91,3.61h0l.33-4.07L134,180l-.76,6.41.92,4.46-1.65.33Zm-6.86,4.65c.56-.12.78-.52.64-1.21l-1.17-5.71c-.14-.69-.5-1-1.07-.86s-.78.52-.64,1.21l1.17,5.71c.14.69.5,1,1.07.86m.3,1.49a2.44,2.44,0,0,1-2-.31,2.74,2.74,0,0,1-1-1.81l-1.13-5.5a2.76,2.76,0,0,1,.25-2.07,2.44,2.44,0,0,1,1.71-1.07,2.4,2.4,0,0,1,2,.31,2.74,2.74,0,0,1,1,1.81l1.13,5.5a2.76,2.76,0,0,1-.25,2.07A2.45,2.45,0,0,1,125,192.91Zm-6.3-.42a.84.84,0,0,0,.58-.37,1.26,1.26,0,0,0,.05-.82l-1.11-5.44a1.28,1.28,0,0,0-.37-.74.86.86,0,0,0-.68-.11l-.83.18,1.53,7.47ZM114.43,184l2.51-.52a2.44,2.44,0,0,1,2,.29,2.83,2.83,0,0,1,1,1.8l1.08,5.29a2.78,2.78,0,0,1-.22,2.05,2.39,2.39,0,0,1-1.7,1l-2.51.52Zm-1.5,7.59-1.79-5h0l.34,5.31ZM109.7,185l2.23-.45,3.85,10.11-1.65.34-.72-2v0l-1.86.38.12,2.11-1.53.31Z"/>
      </g>
    </g>
  </g>
</svg>
