<svg xmlns="http://www.w3.org/2000/svg" viewBox="0 0 421.99 373.87">
  <defs>
    <style>
      .cls-1, .cls-2 {
        fill: #fff;
      }

      .cls-1 {
        fill-rule: evenodd;
      }
    </style>
  </defs>
  <g id="Capa_2" data-name="Capa 2">
    <g id="Capa_1-2" data-name="Capa 1">
      <g>
        <path class="cls-1" d="M290.73,107.35c-1.33,2.11-3.1,3.68-1.26,6.91,1.2,2.12,4,2.93,6.7,1.56,3.45-1.77,4.19-10.7-5.44-8.47"/>
        <path class="cls-1" d="M83.73,147.59,85,158.17l33.07-.55c-3-20.68-1.6-8.14-1-25.29,2.21,18.19,6.06,30.44,17.2,44.13,30.11,37,87.32,38.32,118.78.52,12.56-15.09,18.24-30.21,17.54-56.9l.62,1c2,4,2.85,12,2.85,22l32.54-5.93-.71-11.36c5-1.71,5.53,1.09,4.37-10-8.77-83.43-101.09-132.66-177-87.91-13.09,7.72-26.19,20.41-32.81,29.91-5,7.12-7.32,9.62-11.52,18.67-9.26,19.92-13.5,39-11.55,61.57,1,12,1,8.78,6.33,9.6m-2.54-2.93C77,131.43,81.25,105.3,84.82,94c30.24-95.76,160.3-109.54,209.5-20.6,6.7,12.11,13.8,32.65,13.56,48.52-3.17,1.9-19.08,4.4-24,5.29-.75-15.33-3.6-28.1-10.07-40.49A93,93,0,0,0,246.6,55a94,94,0,0,0-22.7-11.77C189,31,152.55,40.9,127.69,66.93c-1.82,1.9-3,4.18-4.86,6.17-6.07,6.65-12.35,19.58-15.42,30.44-3.75,13.24-4.16,26.21-1.83,41.23Zm59.25-85.34c9.36-8.24,24.92-15.23,40.39-17.57,18-2.71,31.86.12,46.29,5.57,23.51,8.87,47.37,35.23,51.51,60.3l-10.14,1.63c-5.73-25.83-26.71-45.19-45.08-52.33L206.52,50.5c-6.37-1.07-16.1-.2-22.79.49A250.12,250.12,0,0,0,140.44,59.32ZM107,123.67c-.2-11.77,4.4-25.3,8.76-34.27a70.61,70.61,0,0,1,8.63-13.85c2.52-2.9,7.16-9.59,10.56-11.5-.31,2.09-.28,7.49-.66,8.9-.56,2-2.58,2.49-3.47,6.08-1.49,6,1.35,1.41-2.45,7.57-1.12,1.82-1.78,4.28-3,6.5-4.22,7.72-7.65,19.7-8.16,30.49Zm29.22-49c-.66-12.09.23-12.76,11.55-15.78,13.91-3.7,37-7.05,51.28-7.12,10.82,0,13.8.3,15.43,11.2,2.6.6,3.13,1,4.36,3.27,2,3.65.14,1.91,4,3.85,3.44,1.71,5.46,3.65,7.47,7.65,3.43,6.78,7.52,13.24,10.61,20.63,2.42,5.76,1.83,7.38,2.79,13.37.61,3.76,2.52,8.56,3.9,12,4.54,11.29,3.16,16.08,10.22,20.69.15-2.77-1.17-2.82-2.86-4.84-1.53-1.84-1.53-3.09-2.24-6.09a89.58,89.58,0,0,0-4.1-11.72c-7.26-18.52,1.85-12.07-17.89-46.72-3-5.21-3.71-4.19-8.16-6.87-2.95-1.77-1.13-2.06-3.46-4.53-1.63-1.72-2.74-1.23-3.45-3.62,10,.92,25.12,13.27,32,20.64,28.81,30.94,22.4,85.22-16.85,108.62-52.34,31.2-117.15-12.51-107.49-73.26.3-1.87.65-3.49,1-5.14l1.9-4.71c.49,1.31,2.55,5.2,2.57,5.25.33,1.55-1,3.06-1,5.28-.16,6.6,4.29,7.84,3.58,10.73-3.92,16,2.93,9.7,1.07,17.57-2.9,12.25,19.69,22.9,22,29.54,1.28,3.73,1.75,8.29,3.11,12.14,8.49,3.88,23-.14,32.93.77,5.7.52,28.27,2.3,32.76.37-2.85-1.55-25.61-1.38-31.47-1.9-11.1-1-21.08,1.22-32.73-.22-1.18-3.65-2.12-12.13-4.3-14.45-.33-.35-1.8-1.21-2.62-1.92l-6.47-6c-7.2-7.16-15.1-12.59-10.27-20.52-5.13-7.75-4.36-9.08-1.39-17.16-3.95-2-6.24-8.35-2.25-14.69-4.08-3.92-5.89-6.84-2.57-14.78,1.73-4.15-2.28-4.68.54-9.06,1.89-2.94,1.75,0,2.3-4.1C132.64,78.19,132.48,76.33,136.17,74.63Zm-29.45,52,5.94-.29c-.2,1.78-1.88,3.32-2.85,5.47s-1.31,4-2.47,6.27Zm173.91-4.89c-1.3-1.82-2-3.78-3.41-5.71-2.66-3.74-3.42-2.66-3.71-4.83l6-.71ZM114.79,154.64l-27.41.76-.94-7.94,22,0c1.23-3.81,1.45-14.55,6.18-18.57C113.63,139,112.92,143.84,114.79,154.64Zm157.26-40.47c5.49,3.1,6.34,10.93,9.57,16.19l21.46-4.27.87,8.76-27.08,4.88a80.42,80.42,0,0,0-1.33-13.42C274.61,121.73,273,118.21,272.05,114.17Z"/>
        <path class="cls-1" d="M154,152.85l7.38,30c9.69,1.88,50.83-1.79,57.62-7.36,1.44-1.87-.52-32.74-3.8-39.46l1,36.25c-1.15,3.36-23.19,5.9-25.21,6.14-6.83.81-20.67,2.43-26.84,1.18l-5.54-23.19Z"/>
        <path class="cls-1" d="M219.2,71.35c-.46,3-.62,5.71-3.41,6.89-3.26,1.38-6.15-.1-8.08-1.45-10.4-7.29-5.08-6.5-5.81-12.54C195.08,63,196.82,74,197.29,75.5c2,6,13.06,10.91,17.9,14.79,3.65,2.93,5.25,5.31,8.48,7.47l-4.6-1.38c.85,4.09,2,8.07,2.27,12.34.56,8.26-.76,11.14,5.26,20.88,2.83,4.57,3,4,5.83,7-3.24,2.28-5.91,2.4-10,1.58,2.17,17,2.42,9,13.21,18l-12-1c.58,5.37,1.8,11.35,1,16.53-1,6.58-2.84,6.11-7.24,9.13l.87.48c.17.08.74.33.94.4l1.55.38c6.14.93,14.34-9.93,17.1-14.2l-.86,3.69,4.12,1.63c3.61-4.06,8.5-9.8,11-15.52a22.27,22.27,0,0,0-5-4.73c1-3.84,3.23-5,2.67-10.79-1.76-18.05-7.41-19-8.84-34.66-.61-6.76-5.79-15.71-8.7-21.1-3.81-7.08-5.42-13.22-13-15"/>
        <path class="cls-1" d="M139.5,65.22,139.22,76c-3.1,3.39-3.87,1.41-4.08,7.73-.23,6.71-4.6,2.66-2.81,8.91,6.76-2-5.18-1.75,12.55-6.86,16.71-4.82,46.18-7.77,48-8.31,0,0-.43,1.17,2.11-1-1.39-2.2,1.2-1.26-2.93-1.32-.47,0-3.26.42-4,.51l-22.73,3.26a269.46,269.46,0,0,0-27.85,6.63c-.38-7.71,1.84-6.6,8.92-8.59,16.31-4.58,30.58-6.37,47.57-7.95l2.29-5c1.68-3.18,1-2.2.69-6.61a34.83,34.83,0,0,1,5.69-.08,25.82,25.82,0,0,1,2.83.28c5.91,1.33.07,6.62,6,8.2-1.16-10.31-1.38-10.82-11.65-10.91-16.34-.15-47,4.26-60.44,10.35m39.75-6.5.9,9.17-22.31,3.74L157.63,62Zm-37.46,17c-.13-1.57-.48-6.85,0-8.11.67-1.89,3.22-2.26,5.42-2.77l.61,9.23Z"/>
        <path class="cls-1" d="M160.25,119.75c6.63-1,8.52-12.73-1.45-14s-12.41,0-20.8,3.74c-9.87,4.44-5.44,15.11-1.26,14.58,5-.64,11.81-3.14,23.51-4.33m2.26-5.9c-.83,4.53-3.39,6.43-8.72,5.31-3.35-.71-7.47-3.37-6.86-7.62C147.65,106.54,164.71,101.89,162.51,113.85Z"/>
        <path class="cls-1" d="M158.48,122.92c10.12.19,9.46,1.08,7.52,11.23-3.63,1.17-9.89,1.32-12.52-.77-1.38-1.1-2.27-4.19-1.7-6.52.51-2.08,4.67-2.84,6.25-4l-7,.34c-4.9.59-11.88,1.48-14.9,4.51-3.19,3.2-2.1,9.4.68,12.73,9.82-5,15.4-3.71,26.38-4.52,8.19,1,14.57-16.5-4.75-13"/>
        <path class="cls-1" d="M146,144.4a6,6,0,0,0,7.2,1c2.11-1.21,1.54-3.57,2.4-5.74,1.51,2.78.48,4.71-.36,7.17-6.86,1.21-14.85.63-8.22-6.39-5.41-.19-8.86,2.59-10.53,6.24.25,6.41,12.8,17.12,16.46,18a20.77,20.77,0,0,0-2.17-9.83c-4.12-.47-6-.16-6.4-3.86,7,3.07,17.41-3.66,13.32-11-3.8-2.14-10.93.12-11.7,4.44"/>
        <path class="cls-1" d="M143.9,104.69c4.39-16-19.21-14.1-12.65,3.34,3.92.76,8.75-2,12.65-3.34m-11.73-5.86c3.4-5.81,11.05-1.3,7.27,4.63-1.31,2.06-4.31,2.58-7.25,2.61l-.72-4.79,1.87,3.4c4.34-.82,6.57-2.53,4.28-6.63A8.54,8.54,0,0,0,132.17,98.83Z"/>
        <path class="cls-1" d="M217.41,70.19c-3.64-.59-11.5-4.59-13.53-4.22-1.54,4.75.14,6.25,5.08,9.3,6,3.72,7.8,1,8.45-5.08"/>
        <path class="cls-1" d="M148.48,111.9c1.18,7.72,15.82,8.83,11.82-2.94-4.28-1.75-9.36-.43-11.82,2.94"/>
        <path class="cls-1" d="M165.41,125.4c-3-1.56-8.1-.75-11.18.52-2.61,6.67,4.61,8.66,10,6.7Z"/>
        <path class="cls-1" d="M88.4,129c1.16,5.62,10.77,4.39,9.48-2.18C96.73,121,86.94,122,88.4,129"/>
        <path class="cls-1" d="M144.1,82.12c3.88-.08,13.21-2,15.72-3.83-4.58-.17-13,.58-15.72,3.83"/>
        <path class="cls-1" d="M179.69,75.1c2.85.28,12.54.48,14.68-1.86-.81-.71.24-1.09-3.22-.81-2.76.23-9.44,1.44-11.46,2.67"/>
        <path class="cls-1" d="M179.12,72.8l12-.86c.29,0,1.66-.28,1.87-.36,1.41-.55.58-.23,1.37-1a2.39,2.39,0,0,0-1.5-.47l-10.21,1.24a6.41,6.41,0,0,0-3.5,1.41"/>
        <path class="cls-1" d="M251.74,148.05c1.24.81,2.55,1.67,3.76,2.53l1.38-3.37-3.49-3.05Z"/>
        <path class="cls-1" d="M145,78.51a55.94,55.94,0,0,0,7.85-1c3.39-.61,6-.7,7.67-2.5A61,61,0,0,0,145,78.51"/>
        <path class="cls-1" d="M229.32,183.84c2.24-2,4.59-3.42,6.83-5.86L234,176.81c-1.78,2.47-3.53,4.47-4.69,7"/>
        <path class="cls-1" d="M216.33,99.9c3.12-.33,3.12,8.7,3.32,10,.64,4.16,1.72,12.53,1,12.53a227.93,227.93,0,0,0-47.93,4.72c.65-8.2-6-5.78-6.3-6.17l-1.9-2.48c5.08.42,3.41-12.4.66-13.92,2.07-3.08,40.41-3.53,51.18-4.69"/>
        <path class="cls-1" d="M172.08,2C105.41,14,55.28,77,68.05,150.11c11.55,66.2,75.27,116.42,148.14,103.66,66.36-11.62,116.35-75.5,103.59-148.15C308.23,39.85,244.53-10.93,172.08,2M73,147C62.31,77.55,110.51,17.12,175.19,7,244.16-3.8,304.67,44.58,314.8,108.7,325.72,177.85,277.41,238.88,213,248.82A122.43,122.43,0,0,1,73,147Z"/>
        <path class="cls-2" d="M279.64,88.6l.95,2.1,13-5.85L292.78,83,285,86.53l6.84-5.61-1.15-2.56-13,5.85.83,1.84,9.42-4.24ZM286,65l-2.65.21.89,1.22,3.05.35Zm-13.34,5.2c-1.85,1.34-2.2,3.08-.91,4.86s3.05,2,4.9.66l6-4.35c1.85-1.34,2.2-3.08.91-4.86s-3.05-2-4.9-.65Zm7.44-2.61c.82-.6,1.4-.46,1.82.11s.37,1.17-.46,1.77l-6.24,4.51c-.83.6-1.4.46-1.82-.11s-.37-1.17.46-1.77Zm-16.31-3,1.45,1.71L276.16,57l-1.45-1.71Zm-3.28-10.74-1.35,1.53c-.67.77-1.25.74-1.78.27s-.63-1,0-1.81l5.1-5.77c.68-.76,1.27-.76,1.8-.28s.62,1.06-.06,1.82l-1,1.15,1.59,1.4.92-1c1.51-1.71,1.52-3.44-.13-4.9s-3.37-1.24-4.88.48l-4.91,5.55c-1.51,1.71-1.52,3.45.13,4.9s3.37,1.24,4.88-.47l1.25-1.42ZM251.07,38.5l-3,6.64L246.25,44Zm2.85-1.17-2.76-1.78L241.5,46.28l1.73,1.12,1.73-2,2.31,1.49-1.08,2.39,1.89,1.22Zm-20.1-6.87c-1.64,3.73,2.15,6,1,8.68-.41.93-1,1.09-1.62.8s-.91-.8-.5-1.74l.4-.93-1.94-.85-.35.8c-.92,2.09-.39,3.75,1.62,4.63s3.59.15,4.5-1.94c1.64-3.73-2.15-6-1-8.68.41-.94.94-1.13,1.59-.84s.87.8.46,1.74l-.24.54,1.94.85.18-.41c.92-2.09.42-3.73-1.58-4.61S234.73,28.37,233.82,30.46Zm-13.53,6.72,2.21.62,3.85-13.74-1.93-.53-2.3,8.22.08-8.84-2.7-.76-3.85,13.74,1.95.54,2.78-9.95ZM205.74,21.91l3.84.4.22-2-6.08-.63-1.47,14.18,6.08.63.21-2-3.85-.4.43-4.16,3.06.32.21-2-3.06-.31Zm-17.8.88c.12,4.08,4.52,4.5,4.6,7.43,0,1-.41,1.4-1.12,1.42s-1.17-.33-1.2-1.35l0-1-2.12.06,0,.88c.07,2.28,1.25,3.55,3.45,3.49s3.3-1.4,3.24-3.68c-.12-4.08-4.52-4.5-4.6-7.43,0-1,.37-1.42,1.08-1.44s1.13.35,1.16,1.37l0,.59,2.12-.06,0-.45c-.06-2.28-1.22-3.55-3.4-3.49S187.88,20.51,187.94,22.79ZM169.43,33.51l-.32-1.28c-.33-1.29,0-1.87,1-2.12l.83-.21.8,3.2c.18.88-.17,1.33-.82,1.49S169.68,34.5,169.43,33.51ZM167,32.83l.35,1.41c.51,2,1.61,2.95,3.21,2.55a2.11,2.11,0,0,0,1.7-1.75,3.23,3.23,0,0,0,.47,1l2.21-.55a4.34,4.34,0,0,1-.66-1.62l-1.14-4.55.57-.14-.5-2-.57.15-.39-1.54-2.17.54.39,1.55-.95.23c-.81.21-1.39,0-1.67-1.13l-.22-.85c-.25-1,.08-1.45.77-1.62l2.45-.62-.5-2-2.49.62c-2.17.55-2.93,2-2.38,4.24l.07.25c.37,1.49,1.08,2.3,2.22,2.47C166.77,30.29,166.59,31.43,167,32.83Zm-20.48.28,4.22,6-1.93,1Zm.43-3L144,31.55l4.4,13.76,1.84-.93-.83-2.49,2.46-1.24,1.51,2.14,2-1ZM132,35.15l.09,2.65,1.26-.83.49-3Zm8.41,15.15,1.87-1.23-7.85-11.91-1.87,1.24Zm-12.22,2.06.78-.65,1.69,2c.66.78.56,1.34,0,1.8s-1.12.47-1.78-.31l-5-5.88c-.65-.78-.56-1.37,0-1.83s1.13-.45,1.79.33l1,1.17,1.62-1.37-.89-1.06c-1.47-1.74-3.18-2-4.87-.59s-1.71,3.15-.24,4.9l4.78,5.67c1.48,1.74,3.19,2,4.87.59s1.72-3.16.24-4.9l-2.91-3.46-2.4,2ZM112.79,59c.53-.59,1.09-.55,1.86.12l1,.93c.85.76.79,1.38.24,2l-.58.65-3.29-2.9Zm11.58,5.37a4.27,4.27,0,0,1-1.46-1l-1.65-1.45c-1.12-1-2.17-1.43-3.26-.9.31-1.06-.1-2-1.2-3l-.84-.74c-1.65-1.45-3.12-1.42-4.66.32l-2.24,2.53,10.69,9.45,1.48-1.68L116.88,64l.52-.58c.67-.76,1.33-.77,2.33.1L121.41,65a4.43,4.43,0,0,0,1.44,1ZM103,72.48l2-3.29-1.73-1.07-3.23,5.19,12.13,7.52,3.22-5.2-1.73-1.07-2,3.29-3.55-2.2L109.7,73,108,72l-1.63,2.61Zm4.73,17.29.92-2.11L95.55,82l-.8,1.83,7.83,3.42-8.75-1.31L92.7,88.46l13.07,5.72.81-1.85-9.46-4.14ZM90.54,102.14l.91-3.76-2-.48L88,103.84l13.87,3.34,1.43-5.94-2-.48-.91,3.77-4.06-1,.72-3-2-.48-.72,3Z"/>
        <path class="cls-1" d="M254,215.27a4.11,4.11,0,0,0,6,.59c2.11-1.62,2.26-3.61.53-5.6s-3.69-4.29-5.57-6.41a4.08,4.08,0,0,0-6.06-.58c-2.12,1.63-2.32,3.63-.61,5.6q2.77,3.19,5.66,6.4m-3.56-8.18c-.77-.88-.63-1.54.08-2.07a1.45,1.45,0,0,1,2.19.35c1.93,2.22,3.83,4.45,5.78,6.66.78.89.65,1.55,0,2.07s-1.43.53-2.22-.36C254.26,211.54,252.35,209.3,250.42,207.09Zm-.09,15.06,2.44-1.38c-1.51-2.28-3.05-4.54-4.53-6.82s-2.88-4.56-4.32-6.84l-2.14,1.2c.84,1.37,1.7,2.73,2.57,4.1s1.75,2.72,2.67,4.08q-3.93-3.39-7.72-6.78l-3.05,1.71q2.19,3.41,4.45,6.81c1.51,2.27,3,4.54,4.53,6.81l2.15-1.21c-1.1-1.65-2.21-3.29-3.3-4.94s-2.19-3.29-3.25-4.94c1.55,1.37,3.16,2.73,4.74,4.1Zm-19-5.35c1.58,2.3,3.13,4.61,4.69,6.92l-2.45,1c-.38-1.32-.75-2.64-1.12-4S231.69,218.12,231.31,216.8Zm.83-3.41-3.76,1.52c.68,2.62,1.39,5.24,2.1,7.85s1.42,5.23,2.14,7.85l2.34-.94c-.27-.95-.55-1.89-.81-2.84l3.13-1.26c.57.83,1.13,1.66,1.7,2.48l2.57-1c-1.58-2.28-3.17-4.55-4.74-6.82S233.67,215.66,232.14,213.39ZM226,232.74l2.64-.81q-1.35-3.8-2.69-7.58l-2.67-7.58-2.64.82q1.35,3.79,2.67,7.57C224.15,227.69,225.05,230.21,226,232.74ZM216,228.43l1.23-.27c.23,1,.48,1.91.71,2.87s-.17,1.62-1,1.81-1.51-.09-1.79-1.2c-.34-1.4-.69-2.79-1-4.19s-.68-2.8-1-4.2c-.27-1.1.15-1.64,1-1.83s1.53.11,1.79,1.22c.13.55.26,1.11.4,1.66l2.55-.56-.36-1.51c-.61-2.49-2.33-3.6-5-3s-3.69,2.31-3.08,4.79c.34,1.35.67,2.69,1,4s.67,2.69,1,4c.62,2.48,2.34,3.6,5,3s3.69-2.3,3.08-4.78q-.61-2.48-1.22-4.93l-3.78.83Zm-12.91-4.58c.35,1.32.71,2.63,1,4s.71,2.63,1.08,3.94l-2.65.26c.07-1.36.16-2.71.24-4.07S203,225.21,203.11,223.85Zm1.87-3-4,.39c-.22,2.69-.42,5.38-.62,8.07s-.41,5.38-.62,8.08l2.54-.25c.06-1,.12-2,.19-2.93l3.38-.33c.25.94.5,1.89.76,2.83l2.79-.27-2.19-7.79C206.44,226,205.72,223.42,205,220.83Zm-16.62.46-3.85-.12c-.11,2.67-.23,5.35-.34,8s-.22,5.35-.35,8l2.43.05c.07-1.89.16-3.78.23-5.66s.16-3.78.25-5.67c.26,1.9.53,3.79.79,5.69s.52,3.79.79,5.69l2.61.05c.4-1.9.79-3.81,1.19-5.71s.8-3.81,1.22-5.71c-.09,1.91-.19,3.82-.26,5.73s-.16,3.82-.24,5.73l2.62.05c.11-2.66.24-5.32.35-8s.24-5.32.35-8l-3.86-.09c-.39,1.88-.8,3.77-1.19,5.65s-.8,3.77-1.18,5.65c-.27-1.9-.55-3.8-.79-5.7S188.61,223.19,188.36,221.29Zm-16.45,6.85,4.92,1c.17-.75.35-1.5.53-2.25l-4.92-1C172.25,226.64,172.07,227.39,171.91,228.14Zm-16.13,2.46c2.27.79,4.57,1.57,6.86,2.35.31-.73.6-1.46.89-2.18l-4.26-1.46q1.32-3.28,2.65-6.55c.89-2.18,1.8-4.35,2.71-6.52l-2.59-.91q-1.59,3.81-3.15,7.62C157.84,225.5,156.82,228.05,155.78,230.6Zm-1.4-15.55q-1.57,3.94-3.1,7.87l-2.35-1.16Q151.63,218.4,154.38,215.05Zm3.42-1.58-3.58-1.79c-1.84,2.18-3.68,4.38-5.49,6.58s-3.62,4.41-5.42,6.62c.72.37,1.48.74,2.23,1.11.65-.8,1.28-1.61,1.94-2.42l3,1.48c-.37.94-.73,1.89-1.1,2.83l2.46,1.22c1-2.61,2-5.22,3-7.83S156.79,216.07,157.8,213.47Zm133.61-64.94c5.33-3.67,10.5,5,5.33,8.14A4.87,4.87,0,1,1,291.41,148.53Zm-194,19.15c5.18-3.76,10.69,4.66,5.21,8C97.57,178.88,91.66,171.88,97.44,167.68Zm-8.9,6.81c1.95,7.19,15.11,24,19.46,28.47,53.78,55.81,147,47.91,186.44-20.81,2.95-5.14,13.61-24.82,11.63-33a11.26,11.26,0,0,0-15-7.54c-6.1,2.33-6.71,8.29-8.89,14.28a97.08,97.08,0,0,1-23,35c-35.4,34-91.32,35-126.63,4.67-24.58-21.11-21.21-38.3-35.84-35.19A11.2,11.2,0,0,0,88.54,174.49Z"/>
        <path class="cls-2" d="M159.89,283.33l8.66-1.78,9.67,47.23,14.24-2.92,1.61,7.87-22.9,4.69Zm-7.88,40-9.43-26.45-.16,0,1.79,28Zm-17-34.9,11.73-2.4L167,339.27,158.34,341l-3.81-10.61,0,.15-9.84,2,.63,11.1-8,1.65Zm-47.85,9.79,23.61-4.83,1.61,7.87-15,3.06,3,14.56,11.88-2.43,1.61,7.87L102,326.74l3.46,16.92,15-3.06,1.61,7.87L98.45,353.3ZM60.1,303.75,83,299.07l1.61,7.87-14.25,2.91,3.15,15.35,11.17-2.29,1.61,7.87-11.17,2.29,4.91,24-8.66,1.78Zm-7.89,40L42.78,317.3l-.16,0,1.8,28Zm-17-34.9L47,306.44,67.2,359.7l-8.66,1.77-3.81-10.62,0,.16-9.84,2,.64,11.1-8,1.64ZM22,369.77q-6.26,1.28-10.17-1.61c-2.69-1.91-4.47-5-5.35-9.32L.45,329.25c-.89-4.33-.46-7.86,1.26-10.67s4.55-4.63,8.72-5.48,7.56-.32,10.25,1.59,4.38,5,5.27,9.34l1.19,5.82L19,331.53l-1.31-6.38c-.69-3.38-2.46-4.82-5.37-4.23s-4,2.62-3.29,6l6.3,30.78c.7,3.38,2.45,4.74,5.36,4.15s4-2.54,3.3-5.92l-1.72-8.43,8.18-1.67,1.6,7.79c.88,4.33.46,7.86-1.18,10.66s-4.63,4.63-8.8,5.49"/>
        <path class="cls-2" d="M268.49,299.47,259.06,273l-.16,0,1.8,28Zm-17-34.9,11.73-2.4,20.25,53.26-8.66,1.77L271,306.58l0,.16-9.84,2,.64,11.11-8,1.64Zm-49,10,12.36-2.53,13.58,38.3.16,0L226,269.79l12.36-2.53,11.28,55.1L241.45,324l-8.54-41.71-.15,0,2.24,43-7.24,1.48-14.84-40.42-.15,0,8.53,41.72-7.55,1.54Zm-17.68,28.22,17.32-3.55,1.61,7.87-17.31,3.55Z"/>
        <path class="cls-2" d="M409.61,282.23q4.49-.92,3.38-6.35l-6.16-30.06q-1.11-5.43-5.6-4.52c-3,.62-4.11,2.73-3.37,6.35L404,277.72q1.11,5.43,5.6,4.51m1.61,7.87c-4.25.87-7.72.35-10.5-1.62s-4.58-5.13-5.48-9.54l-5.93-29c-.9-4.41-.49-8,1.29-10.93s4.77-4.75,9-5.62,7.72-.35,10.5,1.63,4.58,5.13,5.48,9.54l5.93,29c.9,4.41.49,8-1.29,10.92S415.47,289.23,411.22,290.1Zm-57.56-46.44,10.86-2.22,15.18,31.25.15,0-6.75-33,7.72-1.58,11.27,55.1L383.2,295l-18.62-38.09-.16,0,8.23,40.22-7.71,1.57Zm-7.88,40-9.43-26.44-.16,0,1.79,28Zm-17-34.9,11.73-2.4,20.25,53.26-8.66,1.77-3.81-10.62,0,.16-9.84,2,.63,11.11-8,1.64ZM307,253.21l8.66-1.77,11.28,55.1-8.66,1.77Zm-7.06,59.67c-4.17.85-7.64.33-10.34-1.65s-4.48-5.07-5.4-9.56l-5.93-29c-.92-4.49-.51-8.1,1.2-11s4.7-4.65,8.87-5.51,7.64-.33,10.33,1.58,4.5,5.15,5.42,9.63l1,4.73-8.18,1.67-1.08-5.27c-.74-3.62-2.61-5.13-5.6-4.51s-4.11,2.72-3.37,6.34L293,300.53c.72,3.54,2.59,5,5.58,4.43s4.11-2.73,3.39-6.27l-2.21-10.78-4.33.89-1.61-7.87,12.52-2.57,3.69,18c.91,4.48.5,8.09-1.22,10.91s-4.68,4.73-8.86,5.58"/>
        <path class="cls-2" d="M159.89,283.33l8.66-1.78,9.67,47.23,14.24-2.92,1.61,7.87-22.9,4.69Zm-7.88,40-9.43-26.45-.16,0,1.79,28Zm-17-34.9,11.73-2.4L167,339.27,158.34,341l-3.81-10.61,0,.15-9.84,2,.63,11.1-8,1.65Zm-47.85,9.79,23.61-4.83,1.61,7.87-15,3.06,3,14.56,11.88-2.43,1.61,7.87L102,326.74l3.46,16.92,15-3.06,1.61,7.87L98.45,353.3ZM60.1,303.75,83,299.07l1.61,7.87-14.25,2.91,3.15,15.35,11.17-2.29,1.61,7.87-11.17,2.29,4.91,24-8.66,1.78Zm-7.89,40L42.78,317.3l-.16,0,1.8,28Zm-17-34.9L47,306.44,67.2,359.7l-8.66,1.77-3.81-10.62,0,.16-9.84,2,.64,11.1-8,1.64ZM22,369.77q-6.26,1.28-10.17-1.61c-2.69-1.91-4.47-5-5.35-9.32L.45,329.25c-.89-4.33-.46-7.86,1.26-10.67s4.55-4.63,8.72-5.48,7.56-.32,10.25,1.59,4.38,5,5.27,9.34l1.19,5.82L19,331.53l-1.31-6.38c-.69-3.38-2.46-4.82-5.37-4.23s-4,2.62-3.29,6l6.3,30.78c.7,3.38,2.45,4.74,5.36,4.15s4-2.54,3.3-5.92l-1.72-8.43,8.18-1.67,1.6,7.79c.88,4.33.46,7.86-1.18,10.66s-4.63,4.63-8.8,5.49"/>
        <path class="cls-2" d="M268.49,299.47,259.06,273l-.16,0,1.8,28Zm-17-34.9,11.73-2.4,20.25,53.26-8.66,1.77L271,306.58l0,.16-9.84,2,.64,11.11-8,1.64Zm-49,10,12.36-2.53,13.58,38.3.16,0L226,269.79l12.36-2.53,11.28,55.1L241.45,324l-8.54-41.71-.15,0,2.24,43-7.24,1.48-14.84-40.42-.15,0,8.53,41.72-7.55,1.54Zm-17.68,28.22,17.32-3.55,1.61,7.87-17.31,3.55Z"/>
        <path class="cls-2" d="M409.61,282.23q4.49-.92,3.38-6.35l-6.16-30.06q-1.11-5.43-5.6-4.52c-3,.62-4.11,2.73-3.37,6.35L404,277.72q1.11,5.43,5.6,4.51m1.61,7.87c-4.25.87-7.72.35-10.5-1.62s-4.58-5.13-5.48-9.54l-5.93-29c-.9-4.41-.49-8,1.29-10.93s4.77-4.75,9-5.62,7.72-.35,10.5,1.63,4.58,5.13,5.48,9.54l5.93,29c.9,4.41.49,8-1.29,10.92S415.47,289.23,411.22,290.1Zm-57.56-46.44,10.86-2.22,15.18,31.25.15,0-6.75-33,7.72-1.58,11.27,55.1L383.2,295l-18.62-38.09-.16,0,8.23,40.22-7.71,1.57Zm-7.88,40-9.43-26.44-.16,0,1.79,28Zm-17-34.9,11.73-2.4,20.25,53.26-8.66,1.77-3.81-10.62,0,.16-9.84,2,.63,11.11-8,1.64ZM307,253.21l8.66-1.77,11.28,55.1-8.66,1.77Zm-7.06,59.67c-4.17.85-7.64.33-10.34-1.65s-4.48-5.07-5.4-9.56l-5.93-29c-.92-4.49-.51-8.1,1.2-11s4.7-4.65,8.87-5.51,7.64-.33,10.33,1.58,4.5,5.15,5.42,9.63l1,4.73-8.18,1.67-1.08-5.27c-.74-3.62-2.61-5.13-5.6-4.51s-4.11,2.72-3.37,6.34L293,300.53c.72,3.54,2.59,5,5.58,4.43s4.11-2.73,3.39-6.27l-2.21-10.78-4.33.89-1.61-7.87,12.52-2.57,3.69,18c.91,4.48.5,8.09-1.22,10.91s-4.68,4.73-8.86,5.58"/>
        <path class="cls-2" d="M159.89,283.33l8.66-1.78,9.67,47.23,14.24-2.92,1.61,7.87-22.9,4.69Zm-7.88,40-9.43-26.45-.16,0,1.79,28Zm-17-34.9,11.73-2.4L167,339.27,158.34,341l-3.81-10.61,0,.15-9.84,2,.63,11.1-8,1.65Zm-47.85,9.79,23.61-4.83,1.61,7.87-15,3.06,3,14.56,11.88-2.43,1.61,7.87L102,326.74l3.46,16.92,15-3.06,1.61,7.87L98.45,353.3Zm-27.08,5.54L83,299.07l1.61,7.87-14.25,2.91,3.15,15.35,11.17-2.29,1.61,7.87-11.17,2.29,4.91,24-8.66,1.78Zm-7.88,40L42.78,317.3l-.16,0,1.8,28Zm-17-34.9L47,306.44,67.2,359.7l-8.66,1.77-3.81-10.62,0,.16-9.84,2,.64,11.1-8,1.64ZM22,369.77q-6.26,1.28-10.17-1.61c-2.69-1.91-4.47-5-5.35-9.32L.45,329.25c-.89-4.33-.46-7.86,1.26-10.67s4.55-4.63,8.72-5.48,7.56-.32,10.25,1.59,4.38,5,5.27,9.34l1.19,5.82L19,331.53l-1.31-6.38c-.69-3.38-2.46-4.82-5.37-4.23s-4,2.62-3.29,6l6.3,30.78c.7,3.38,2.45,4.74,5.36,4.15s4-2.54,3.3-5.92l-1.72-8.43,8.18-1.67,1.6,7.79c.88,4.33.46,7.86-1.18,10.66s-4.63,4.63-8.8,5.49"/>
        <path class="cls-2" d="M268.49,299.47,259.06,273l-.16,0,1.8,28Zm-17-34.9,11.73-2.4,20.25,53.26-8.66,1.77L271,306.58l0,.16-9.84,2,.64,11.11-8,1.64Zm-49,10,12.36-2.53,13.58,38.3.16,0L226,269.79l12.36-2.53,11.28,55.1L241.45,324l-8.54-41.71-.15,0,2.24,43-7.24,1.49-14.84-40.43-.15,0,8.53,41.72-7.55,1.54Zm-17.68,28.22,17.32-3.55,1.61,7.87-17.31,3.55Z"/>
        <path class="cls-2" d="M409.61,282.23c3-.61,4.12-2.73,3.37-6.35l-6.15-30.06q-1.11-5.43-5.6-4.52c-3,.62-4.11,2.73-3.37,6.35L404,277.72q1.11,5.43,5.6,4.51m1.61,7.87c-4.25.87-7.72.35-10.5-1.62s-4.58-5.13-5.48-9.54l-5.93-29c-.9-4.41-.49-8,1.29-10.93s4.77-4.75,9-5.62,7.72-.35,10.5,1.63,4.58,5.13,5.48,9.54l5.93,29c.9,4.41.49,8-1.29,10.92S415.47,289.23,411.22,290.1Zm-57.56-46.44,10.86-2.22,15.17,31.25.16,0-6.75-33,7.72-1.58,11.27,55.1L383.2,295l-18.62-38.09-.16,0,8.23,40.22-7.71,1.57Zm-7.88,40-9.43-26.44-.16,0,1.79,28Zm-17-34.9,11.73-2.4,20.25,53.26-8.66,1.77-3.81-10.62,0,.16-9.84,2,.63,11.11-8,1.64ZM307,253.21l8.66-1.77,11.27,55.1-8.65,1.77Zm-7.06,59.67c-4.17.85-7.64.33-10.34-1.65s-4.48-5.07-5.4-9.56l-5.93-29c-.92-4.49-.51-8.1,1.2-11s4.7-4.65,8.87-5.51,7.64-.33,10.33,1.58,4.5,5.15,5.42,9.63l1,4.73-8.18,1.67-1.08-5.27c-.74-3.62-2.61-5.13-5.6-4.51s-4.11,2.72-3.37,6.34L293,300.53c.72,3.54,2.59,5,5.58,4.43s4.11-2.73,3.39-6.27l-2.21-10.78-4.33.89-1.61-7.87,12.52-2.57,3.69,18c.91,4.48.5,8.09-1.22,10.91s-4.69,4.73-8.86,5.58"/>
        <path class="cls-2" d="M161.18,348.27l-3.14.64-.55-2.72,9.26-1.9.56,2.73-3.13.64L167.52,364l-3,.61Zm-17.16.67,8.18-1.67.56,2.73-5.18,1.06,1,5,4.11-.84.56,2.72-4.11.85,1.2,5.86,5.18-1.06.55,2.72L147.92,368Zm-9.38,1.92,7.93-1.62.56,2.73-4.93,1,1.09,5.31,3.87-.79.56,2.73-3.88.79,1.71,8.31-3,.62Zm-2.73,13.86-3.27-9.16h0l.62,9.7ZM126,352.63l4.06-.83,7,18.44-3,.62-1.32-3.68v.05l-3.4.7.22,3.85-2.78.57Zm-4.57,21.1a4.26,4.26,0,0,1-3.53-.56,5,5,0,0,1-1.85-3.23L114,359.69a5,5,0,0,1,.44-3.69,4.27,4.27,0,0,1,3-1.9,4.4,4.4,0,0,1,3.55.55,5.14,5.14,0,0,1,1.83,3.24l.41,2-2.84.58-.45-2.2c-.24-1.18-.85-1.68-1.86-1.47s-1.38.91-1.14,2.08l2.18,10.66c.24,1.17.85,1.64,1.86,1.44s1.38-.88,1.14-2.05l-.59-2.92,2.83-.58.55,2.7a5.06,5.06,0,0,1-.41,3.69,4.37,4.37,0,0,1-3,1.9"/>
        <path class="cls-2" d="M192,342l-3.14.64-.56-2.73,9.27-1.9.56,2.73-3.14.64,3.35,16.36-3,.61Zm-5.19,18.38a4.2,4.2,0,0,1-3.55-.58,5.18,5.18,0,0,1-1.85-3.31l-.22-1.09,2.84-.58.26,1.31c.26,1.22.9,1.74,1.94,1.53a1.5,1.5,0,0,0,1.07-.7,2.23,2.23,0,0,0,.09-1.52,4.4,4.4,0,0,0-1-2,10.23,10.23,0,0,0-2.46-1.77,12.14,12.14,0,0,1-3.2-2.44,6,6,0,0,1-1.35-2.82,5.19,5.19,0,0,1,.43-3.75,4.47,4.47,0,0,1,3.07-1.91,4.29,4.29,0,0,1,3.53.56,5.32,5.32,0,0,1,1.82,3.35l.16.79-2.84.58-.2-1a2.35,2.35,0,0,0-.67-1.37,1.4,1.4,0,0,0-1.21-.21c-1,.21-1.38.91-1.13,2.14a3.72,3.72,0,0,0,1,1.82,10.14,10.14,0,0,0,2.47,1.76,11.29,11.29,0,0,1,3.19,2.44,6.8,6.8,0,0,1,1.35,3,5.3,5.3,0,0,1-.4,3.84,4.51,4.51,0,0,1-3.13,1.94m-11-.58c1-.21,1.42-.95,1.17-2.2l-2.14-10.41c-.25-1.26-.9-1.78-1.93-1.57s-1.43.95-1.17,2.2l2.13,10.42c.25,1.25.9,1.77,1.94,1.56m.55,2.73a4.44,4.44,0,0,1-3.63-.57,5,5,0,0,1-1.9-3.3l-2-10a5.09,5.09,0,0,1,.44-3.79,5.31,5.31,0,0,1,6.76-1.38,5,5,0,0,1,1.9,3.3l2.06,10a5.07,5.07,0,0,1-.45,3.78A4.5,4.5,0,0,1,176.38,362.49Z"/>
        <path class="cls-2" d="M309.16,332.47c1-.21,1.42-1,1.16-2.2l-2.13-10.41c-.25-1.26-.9-1.78-1.94-1.57s-1.42.95-1.16,2.2l2.13,10.41c.25,1.26.9,1.78,1.94,1.57m.55,2.72a4.44,4.44,0,0,1-3.63-.56,5,5,0,0,1-1.9-3.3l-2.05-10a5.09,5.09,0,0,1,.44-3.79,4.49,4.49,0,0,1,3.13-1.94,4.44,4.44,0,0,1,3.63.56,5,5,0,0,1,1.9,3.3l2,10a5,5,0,0,1-.44,3.79A4.49,4.49,0,0,1,309.71,335.19Zm-11.49-.77a1.48,1.48,0,0,0,1.06-.67,2.29,2.29,0,0,0,.09-1.49l-2-9.93a2.28,2.28,0,0,0-.67-1.34,1.53,1.53,0,0,0-1.24-.2l-1.52.31,2.79,13.63ZM290.35,319l4.58-.94a4.5,4.5,0,0,1,3.6.52,5.09,5.09,0,0,1,1.84,3.29l2,9.65a5,5,0,0,1-.4,3.74,4.45,4.45,0,0,1-3.1,1.89l-4.58.93Zm-5.23,1.07,3-.61L292,338.53l-3,.62ZM275.74,322l3-.61,3.35,16.36,4.93-1,.56,2.73-7.94,1.62Zm-3.17,18c1-.22,1.43-.95,1.17-2.2l-2.13-10.42c-.26-1.25-.9-1.77-1.94-1.56s-1.42,1-1.17,2.2l2.13,10.41c.26,1.26.91,1.78,1.94,1.57m.56,2.72a4.5,4.5,0,0,1-3.64-.56,5.07,5.07,0,0,1-1.89-3.3l-2.06-10A5.07,5.07,0,0,1,266,325a4.5,4.5,0,0,1,3.12-1.95,4.45,4.45,0,0,1,3.64.57,5.05,5.05,0,0,1,1.9,3.3l2.05,10a5.09,5.09,0,0,1-.45,3.79A4.47,4.47,0,0,1,273.13,342.68Zm-23-15.46,4.28-.88,4.7,13.27h.06l-.89-14.05,4.28-.88,3.91,19.08-2.84.58-3-14.44h0l.78,14.89-2.51.52-5.14-14-.06,0,3,14.44-2.62.54ZM240.06,340.7l-5.87-10.21,3.19-.66,3.48,6.59h.06l.61-7.42,2.91-.6-1.38,11.7,1.66,8.12-3,.62Zm-12.52,8.47c1-.21,1.42-.94,1.17-2.19l-2.13-10.42c-.26-1.25-.91-1.77-1.94-1.56s-1.43.94-1.17,2.2l2.13,10.41c.26,1.26.9,1.78,1.94,1.56m.56,2.73a4.5,4.5,0,0,1-3.64-.56,5.12,5.12,0,0,1-1.9-3.31l-2.05-10a5.07,5.07,0,0,1,.45-3.78,5.27,5.27,0,0,1,6.76-1.38,5,5,0,0,1,1.89,3.3l2.06,10a5.05,5.05,0,0,1-.45,3.78A4.46,4.46,0,0,1,228.1,351.9Zm-11.49-.77a1.49,1.49,0,0,0,1-.67,2.19,2.19,0,0,0,.09-1.5l-2-9.92a2.22,2.22,0,0,0-.67-1.34,1.5,1.5,0,0,0-1.23-.2l-1.53.31,2.79,13.63Zm-7.88-15.43,4.58-.94a4.46,4.46,0,0,1,3.6.51,5.11,5.11,0,0,1,1.84,3.29l2,9.65a5.12,5.12,0,0,1-.39,3.75,4.46,4.46,0,0,1-3.11,1.88l-4.58.94ZM206,349.55l-3.26-9.16h-.06l.62,9.7Zm-5.88-12.09,4.06-.83,7,18.45-3,.61L206.88,352v.06l-3.41.69.22,3.85-2.78.57Z"/>
        <path class="cls-2" d="M161.18,348.27l-3.14.64-.55-2.72,9.26-1.9.56,2.73-3.13.64L167.52,364l-3,.61Zm-17.16.67,8.18-1.67.56,2.73-5.18,1.06,1,5,4.11-.84.56,2.72-4.11.85,1.2,5.86,5.18-1.06.55,2.72L147.92,368Zm-9.38,1.92,7.93-1.62.56,2.73-4.93,1,1.09,5.31,3.87-.79.56,2.73-3.88.79,1.71,8.31-3,.62Zm-2.73,13.86-3.27-9.16h0l.62,9.7ZM126,352.63l4.06-.83,7,18.44-3,.62-1.32-3.68v.05l-3.4.7.22,3.85-2.78.57Zm-4.57,21.1a4.26,4.26,0,0,1-3.53-.56,5,5,0,0,1-1.85-3.23L114,359.69a5,5,0,0,1,.44-3.69,4.27,4.27,0,0,1,3-1.9,4.4,4.4,0,0,1,3.55.55,5.14,5.14,0,0,1,1.83,3.24l.41,2-2.84.58-.45-2.2c-.24-1.18-.85-1.68-1.86-1.47s-1.38.91-1.14,2.08l2.18,10.66c.24,1.17.85,1.64,1.86,1.44s1.38-.88,1.14-2.05l-.59-2.92,2.83-.58.55,2.7a5.06,5.06,0,0,1-.41,3.69,4.37,4.37,0,0,1-3,1.9"/>
        <path class="cls-2" d="M192,342l-3.14.64-.56-2.73,9.27-1.9.56,2.73-3.14.64,3.35,16.36-3,.61Zm-5.19,18.38a4.2,4.2,0,0,1-3.55-.58,5.18,5.18,0,0,1-1.85-3.31l-.22-1.09,2.84-.58.26,1.31c.26,1.22.9,1.74,1.94,1.53a1.5,1.5,0,0,0,1.07-.7,2.23,2.23,0,0,0,.09-1.52,4.4,4.4,0,0,0-1-2,10.23,10.23,0,0,0-2.46-1.77,12.14,12.14,0,0,1-3.2-2.44,6,6,0,0,1-1.35-2.82,5.19,5.19,0,0,1,.43-3.75,4.47,4.47,0,0,1,3.07-1.91,4.29,4.29,0,0,1,3.53.56,5.32,5.32,0,0,1,1.82,3.35l.16.79-2.84.58-.2-1a2.35,2.35,0,0,0-.67-1.37,1.4,1.4,0,0,0-1.21-.21c-1,.21-1.38.91-1.13,2.14a3.72,3.72,0,0,0,1,1.82,10.14,10.14,0,0,0,2.47,1.76,11.29,11.29,0,0,1,3.19,2.44,6.8,6.8,0,0,1,1.35,3,5.3,5.3,0,0,1-.4,3.84,4.51,4.51,0,0,1-3.13,1.94m-11-.58c1-.21,1.42-.95,1.17-2.2l-2.14-10.41c-.25-1.26-.9-1.78-1.93-1.57s-1.43.95-1.17,2.2l2.13,10.42c.25,1.25.9,1.77,1.94,1.56m.55,2.73a4.44,4.44,0,0,1-3.63-.57,5,5,0,0,1-1.9-3.3l-2-10a5.09,5.09,0,0,1,.44-3.79,5.31,5.31,0,0,1,6.76-1.38,5,5,0,0,1,1.9,3.3l2.06,10a5.07,5.07,0,0,1-.45,3.78A4.5,4.5,0,0,1,176.38,362.49Z"/>
        <path class="cls-2" d="M309.16,332.47c1-.21,1.42-1,1.16-2.2l-2.13-10.41c-.25-1.26-.9-1.78-1.94-1.57s-1.42.95-1.16,2.2l2.13,10.41c.25,1.26.9,1.78,1.94,1.57m.55,2.72a4.44,4.44,0,0,1-3.63-.56,5,5,0,0,1-1.9-3.3l-2.05-10a5.09,5.09,0,0,1,.44-3.79,4.49,4.49,0,0,1,3.13-1.94,4.44,4.44,0,0,1,3.63.56,5,5,0,0,1,1.9,3.3l2,10a5,5,0,0,1-.44,3.79A4.49,4.49,0,0,1,309.71,335.19Zm-11.49-.77a1.48,1.48,0,0,0,1.06-.67,2.29,2.29,0,0,0,.09-1.49l-2-9.93a2.28,2.28,0,0,0-.67-1.34,1.53,1.53,0,0,0-1.24-.2l-1.52.31,2.79,13.63ZM290.35,319l4.58-.94a4.5,4.5,0,0,1,3.6.52,5.09,5.09,0,0,1,1.84,3.29l2,9.65a5,5,0,0,1-.4,3.74,4.45,4.45,0,0,1-3.1,1.89l-4.58.93Zm-5.23,1.07,3-.61L292,338.53l-3,.62ZM275.74,322l3-.61,3.35,16.36,4.93-1,.56,2.73-7.94,1.62Zm-3.17,18c1-.22,1.43-.95,1.17-2.2l-2.13-10.42c-.26-1.25-.9-1.77-1.94-1.56s-1.42,1-1.17,2.2l2.13,10.41c.26,1.26.91,1.78,1.94,1.57m.56,2.72a4.5,4.5,0,0,1-3.64-.56,5.07,5.07,0,0,1-1.89-3.3l-2.06-10A5.07,5.07,0,0,1,266,325a4.5,4.5,0,0,1,3.12-1.95,4.45,4.45,0,0,1,3.64.57,5.05,5.05,0,0,1,1.9,3.3l2.05,10a5.09,5.09,0,0,1-.45,3.79A4.47,4.47,0,0,1,273.13,342.68Zm-23-15.46,4.28-.88,4.7,13.27h.06l-.89-14.05,4.28-.88,3.91,19.08-2.84.58-3-14.44h0l.78,14.89-2.51.52-5.14-14-.06,0,3,14.44-2.62.54ZM240.06,340.7l-5.87-10.21,3.19-.66,3.48,6.59h.06l.61-7.42,2.91-.6-1.38,11.7,1.66,8.12-3,.62Zm-12.52,8.47c1-.21,1.42-.94,1.17-2.19l-2.13-10.42c-.26-1.25-.91-1.77-1.94-1.56s-1.43.94-1.17,2.2l2.13,10.41c.26,1.26.9,1.78,1.94,1.56m.56,2.73a4.5,4.5,0,0,1-3.64-.56,5.12,5.12,0,0,1-1.9-3.31l-2.05-10a5.07,5.07,0,0,1,.45-3.78,5.27,5.27,0,0,1,6.76-1.38,5,5,0,0,1,1.89,3.3l2.06,10a5.05,5.05,0,0,1-.45,3.78A4.46,4.46,0,0,1,228.1,351.9Zm-11.49-.77a1.49,1.49,0,0,0,1-.67,2.19,2.19,0,0,0,.09-1.5l-2-9.92a2.22,2.22,0,0,0-.67-1.34,1.5,1.5,0,0,0-1.23-.2l-1.53.31,2.79,13.63Zm-7.88-15.43,4.58-.94a4.46,4.46,0,0,1,3.6.51,5.11,5.11,0,0,1,1.84,3.29l2,9.65a5.12,5.12,0,0,1-.39,3.75,4.46,4.46,0,0,1-3.11,1.88l-4.58.94ZM206,349.55l-3.26-9.16h-.06l.62,9.7Zm-5.88-12.09,4.06-.83,7,18.45-3,.61L206.88,352v.06l-3.41.69.22,3.85-2.78.57Z"/>
        <path class="cls-2" d="M161.18,348.27l-3.14.64-.55-2.72,9.26-1.9.56,2.73-3.13.64L167.52,364l-3,.61ZM144,349l8.18-1.68.55,2.73-5.17,1.06,1,5,4.11-.84.56,2.72-4.11.85,1.19,5.86,5.18-1.06.56,2.72L147.92,368Zm-9.38,1.91,7.93-1.62.56,2.73-4.93,1,1.09,5.31,3.87-.79.55,2.73-3.87.79,1.71,8.31-3,.62Zm-2.73,13.86-3.27-9.16h0l.62,9.7ZM126,352.63l4.06-.83,7,18.44-3,.62-1.32-3.68v.05l-3.4.7.22,3.85-2.78.57Zm-4.57,21.1a4.26,4.26,0,0,1-3.53-.56,5,5,0,0,1-1.85-3.23L114,359.69a5,5,0,0,1,.44-3.69,4.27,4.27,0,0,1,3-1.9,4.4,4.4,0,0,1,3.55.55,5.09,5.09,0,0,1,1.82,3.24l.42,2-2.84.58-.45-2.2c-.24-1.18-.85-1.68-1.86-1.47s-1.38.91-1.14,2.08l2.18,10.66c.24,1.17.85,1.64,1.86,1.44s1.38-.88,1.14-2.05l-.6-2.92,2.84-.58.55,2.7a5.06,5.06,0,0,1-.41,3.69,4.37,4.37,0,0,1-3,1.9"/>
        <path class="cls-2" d="M192,342l-3.14.64-.56-2.73,9.27-1.9.56,2.73-3.14.64,3.35,16.36-3,.61Zm-5.19,18.38a4.2,4.2,0,0,1-3.55-.58,5.18,5.18,0,0,1-1.85-3.31l-.22-1.09,2.84-.58.26,1.31c.26,1.22.9,1.74,1.94,1.53a1.5,1.5,0,0,0,1.07-.7,2.23,2.23,0,0,0,.09-1.52,4.4,4.4,0,0,0-1-2,10.23,10.23,0,0,0-2.46-1.77,12.14,12.14,0,0,1-3.2-2.44,6,6,0,0,1-1.35-2.82,5.19,5.19,0,0,1,.43-3.75,4.47,4.47,0,0,1,3.07-1.91,4.29,4.29,0,0,1,3.53.56,5.32,5.32,0,0,1,1.82,3.35l.16.79-2.84.58-.2-1a2.35,2.35,0,0,0-.67-1.37,1.4,1.4,0,0,0-1.21-.21c-1,.21-1.38.91-1.13,2.14a3.72,3.72,0,0,0,1,1.82,10.14,10.14,0,0,0,2.47,1.76,11.29,11.29,0,0,1,3.19,2.44,6.8,6.8,0,0,1,1.35,3,5.3,5.3,0,0,1-.4,3.84,4.51,4.51,0,0,1-3.13,1.94m-11-.58c1-.21,1.42-.95,1.17-2.2l-2.14-10.41c-.25-1.26-.9-1.78-1.93-1.57s-1.43.95-1.17,2.2l2.13,10.42c.25,1.25.9,1.77,1.94,1.56m.55,2.73a4.44,4.44,0,0,1-3.63-.57,5,5,0,0,1-1.9-3.3l-2-10a5.09,5.09,0,0,1,.44-3.79,5.31,5.31,0,0,1,6.76-1.38,5,5,0,0,1,1.9,3.3l2.06,10a5.07,5.07,0,0,1-.45,3.78A4.5,4.5,0,0,1,176.38,362.49Z"/>
        <path class="cls-2" d="M309.16,332.47c1-.21,1.42-1,1.16-2.2l-2.13-10.41c-.25-1.26-.9-1.78-1.94-1.57s-1.42.95-1.16,2.2l2.13,10.41c.25,1.26.9,1.78,1.94,1.57m.55,2.72a4.44,4.44,0,0,1-3.63-.56,5,5,0,0,1-1.9-3.3l-2.05-10a5.09,5.09,0,0,1,.44-3.79,4.49,4.49,0,0,1,3.13-1.94,4.44,4.44,0,0,1,3.63.56,5,5,0,0,1,1.9,3.3l2,10a5,5,0,0,1-.44,3.79A4.49,4.49,0,0,1,309.71,335.19Zm-11.49-.77a1.48,1.48,0,0,0,1.06-.67,2.29,2.29,0,0,0,.09-1.49l-2-9.93a2.28,2.28,0,0,0-.67-1.34,1.53,1.53,0,0,0-1.24-.2l-1.52.31,2.79,13.63ZM290.35,319l4.58-.94a4.5,4.5,0,0,1,3.6.52,5.09,5.09,0,0,1,1.84,3.29l2,9.65a5,5,0,0,1-.4,3.74,4.45,4.45,0,0,1-3.1,1.89l-4.58.93Zm-5.23,1.07,3-.61L292,338.53l-3,.62ZM275.74,322l3-.61,3.35,16.36,4.93-1,.56,2.73-7.94,1.62Zm-3.17,18c1-.22,1.43-.95,1.17-2.2l-2.13-10.42c-.26-1.25-.9-1.77-1.94-1.56s-1.42,1-1.17,2.2l2.13,10.41c.26,1.26.91,1.78,1.94,1.57m.56,2.72a4.5,4.5,0,0,1-3.64-.56,5.07,5.07,0,0,1-1.89-3.3l-2.06-10A5.07,5.07,0,0,1,266,325a4.5,4.5,0,0,1,3.12-1.95,4.45,4.45,0,0,1,3.64.57,5.05,5.05,0,0,1,1.9,3.3l2.05,10a5.09,5.09,0,0,1-.45,3.79A4.47,4.47,0,0,1,273.13,342.68Zm-23-15.46,4.28-.88,4.7,13.27h.06l-.89-14.05,4.28-.88,3.91,19.08-2.84.58-3-14.44h0l.78,14.89-2.51.52-5.14-14-.06,0,3,14.44-2.62.54ZM240.06,340.7l-5.87-10.21,3.19-.66,3.48,6.59h.06l.61-7.42,2.91-.6-1.38,11.7,1.66,8.12-3,.62Zm-12.52,8.47c1-.21,1.42-.94,1.17-2.19l-2.13-10.42c-.26-1.25-.91-1.77-1.94-1.56s-1.43.94-1.17,2.2l2.13,10.41c.26,1.26.9,1.78,1.94,1.56m.56,2.73a4.5,4.5,0,0,1-3.64-.56,5.12,5.12,0,0,1-1.9-3.31l-2.05-10a5.07,5.07,0,0,1,.45-3.78,5.27,5.27,0,0,1,6.76-1.38,5,5,0,0,1,1.89,3.3l2.06,10a5.05,5.05,0,0,1-.45,3.78A4.46,4.46,0,0,1,228.1,351.9Zm-11.49-.77a1.49,1.49,0,0,0,1-.67,2.19,2.19,0,0,0,.09-1.5l-2-9.92a2.22,2.22,0,0,0-.67-1.34,1.5,1.5,0,0,0-1.23-.2l-1.53.31,2.79,13.63Zm-7.88-15.43,4.58-.94a4.46,4.46,0,0,1,3.6.51,5.11,5.11,0,0,1,1.84,3.29l2,9.65a5.12,5.12,0,0,1-.39,3.75,4.46,4.46,0,0,1-3.11,1.88l-4.58.94ZM206,349.55l-3.26-9.16h-.06l.62,9.7Zm-5.88-12.09,4.06-.83,7,18.45-3,.61L206.88,352v.06l-3.41.69.22,3.85-2.78.57Z"/>
      </g>
    </g>
  </g>
</svg>
