<svg xmlns="http://www.w3.org/2000/svg" viewBox="0 0 389.43 345.01">
  <defs>
    <style>
      .cls-1, .cls-2 {
        fill: #541f10;
      }

      .cls-1 {
        fill-rule: evenodd;
      }
    </style>
  </defs>
  <g id="Capa_2" data-name="Capa 2">
    <g id="Capa_1-2" data-name="Capa 1">
      <path class="cls-1" d="M268.29,99.07c-1.23,1.94-2.86,3.39-1.16,6.37,1.11,2,3.72,2.71,6.18,1.44,3.18-1.63,3.87-9.88-5-7.81"/>
      <path class="cls-1" d="M77.27,136.2,78.48,146l30.52-.52c-2.73-19.08-1.48-7.5-1-23.33,2,16.78,5.59,28.08,15.87,40.72a71,71,0,0,0,109.61.48c11.59-13.93,16.84-27.87,16.19-52.51l.57.88c1.87,3.72,2.63,11,2.63,20.26l30-5.47L282.27,116c4.65-1.58,5.11,1,4-9.18C278.21,29.82,193-15.6,123,25.69c-12.09,7.13-24.17,18.84-30.29,27.6C88.13,59.86,86,62.17,82.08,70.52c-8.54,18.38-12.46,36-10.65,56.82,1,11.12.9,8.1,5.84,8.86m-2.34-2.71c-3.86-12.2,0-36.31,3.35-46.76,27.9-88.37,147.92-101.09,193.33-19,6.18,11.18,12.73,30.13,12.51,44.78-2.93,1.76-17.6,4.06-22.15,4.88-.69-14.14-3.32-25.92-9.29-37.36a85.77,85.77,0,0,0-25.11-29.29,86.21,86.21,0,0,0-20.95-10.86c-32.2-11.23-65.85-2.11-88.79,21.9-1.67,1.76-2.8,3.86-4.48,5.7-5.6,6.14-11.4,18.06-14.23,28.09-3.46,12.22-3.83,24.18-1.69,38.05ZM129.6,54.74c8.64-7.6,23-14.05,37.27-16.21,16.59-2.51,29.4.11,42.72,5.14,21.69,8.18,43.71,32.51,47.54,55.65l-9.36,1.5c-5.28-23.83-24.65-41.7-41.61-48.29l-15.58-5.92c-5.88-1-14.85-.19-21,.45A230.57,230.57,0,0,0,129.6,54.74ZM98.7,114.12c-.19-10.86,4.06-23.34,8.08-31.62a65.24,65.24,0,0,1,8-12.78c2.32-2.68,6.6-8.85,9.74-10.61-.29,1.92-.26,6.91-.61,8.21-.52,1.89-2.38,2.3-3.2,5.61-1.38,5.58,1.24,1.3-2.26,7-1,1.68-1.64,3.94-2.76,6-3.89,7.12-7.06,18.17-7.53,28.13Zm27-45.25c-.61-11.16.21-11.78,10.66-14.56,12.83-3.41,34.12-6.51,47.32-6.57,10-.05,12.74.28,14.24,10.33,2.4.56,2.89.89,4,3,1.81,3.37.14,1.77,3.73,3.55a13.93,13.93,0,0,1,6.9,7.06c3.16,6.26,6.93,12.22,9.79,19,2.23,5.32,1.68,6.81,2.58,12.34.56,3.47,2.32,7.9,3.59,11.07,4.19,10.42,2.92,14.85,9.43,19.09.14-2.54-1.08-2.6-2.63-4.46-1.42-1.7-1.42-2.85-2.08-5.62a82.55,82.55,0,0,0-3.77-10.81c-6.71-17.1,1.7-11.14-16.52-43.12-2.73-4.81-3.42-3.87-7.52-6.34-2.73-1.64-1.05-1.9-3.2-4.18-1.5-1.58-2.52-1.13-3.18-3.34,9.18.85,23.18,12.24,29.52,19.05C255.13,103,249.21,153.06,213,174.65c-48.3,28.8-108.12-11.54-99.2-67.6.28-1.73.61-3.22,1-4.74L116.51,98c.45,1.22,2.36,4.8,2.37,4.85.31,1.43-.89,2.83-.94,4.88-.15,6.09,4,7.23,3.3,9.89-3.62,14.8,2.7,9,1,16.22-2.67,11.3,18.17,21.13,20.28,27.26,1.18,3.44,1.61,7.65,2.87,11.2,7.84,3.59,21.21-.12,30.39.71,5.26.48,26.09,2.13,30.23.35-2.62-1.43-23.63-1.28-29-1.76-10.24-.91-19.45,1.13-30.21-.2-1.09-3.37-2-11.2-4-13.33-.31-.33-1.66-1.12-2.42-1.77l-6-5.51c-6.64-6.61-13.94-11.62-9.48-18.94-4.73-7.15-4-8.39-1.28-15.84-3.64-1.88-5.76-7.7-2.08-13.56-3.76-3.61-5.43-6.31-2.37-13.64,1.6-3.82-2.1-4.31.5-8.36,1.75-2.71,1.62,0,2.13-3.78C122.41,72.15,122.25,70.44,125.66,68.87Zm-27.18,48,5.49-.28c-.19,1.65-1.74,3.07-2.63,5s-1.21,3.71-2.28,5.79ZM259,112.37c-1.2-1.68-1.87-3.48-3.14-5.26-2.46-3.45-3.16-2.46-3.42-4.46l5.53-.66Zm-153,30.34-25.29.69-.87-7.32,20.26,0c1.13-3.51,1.33-13.43,5.7-17.14C104.86,128.27,104.21,132.74,105.93,142.71Zm145.12-37.35c5.07,2.86,5.85,10.08,8.84,14.94l19.8-3.94.8,8.08-25,4.51a73.37,73.37,0,0,0-1.22-12.38C253.41,112.34,251.92,109.09,251.05,105.36Z"/>
      <path class="cls-1" d="M142.11,141.05l6.8,27.66c9,1.74,46.92-1.65,53.18-6.79,1.33-1.72-.48-30.22-3.51-36.42l.94,33.46c-1.05,3.09-21.4,5.44-23.26,5.66-6.3.75-19.07,2.24-24.77,1.09l-5.11-21.4Z"/>
      <path class="cls-1" d="M202.28,65.84c-.42,2.79-.57,5.27-3.15,6.36-3,1.28-5.67-.09-7.45-1.34-9.6-6.73-4.68-6-5.36-11.57-6.29-1.16-4.69,9-4.25,10.39,1.79,5.49,12,10.06,16.51,13.64,3.37,2.71,4.85,4.9,7.83,6.89l-4.25-1.27c.79,3.77,1.83,7.45,2.1,11.39.51,7.62-.7,10.28,4.85,19.27,2.62,4.22,2.73,3.7,5.38,6.42-3,2.11-5.45,2.21-9.2,1.46,2,15.7,2.24,8.32,12.2,16.61l-11.11-1c.53,5,1.67,10.47.92,15.25-1,6.08-2.61,5.64-6.68,8.43l.81.45c.15.06.68.3.86.36l1.43.35c5.67.86,13.24-9.16,15.78-13.1l-.79,3.41,3.8,1.5c3.33-3.75,7.85-9,10.11-14.32A20.59,20.59,0,0,0,228,141.1c.92-3.54,3-4.64,2.47-9.95-1.63-16.67-6.84-17.57-8.16-32-.56-6.24-5.35-14.5-8-19.47-3.52-6.53-5-12.2-12-13.85"/>
      <path class="cls-1" d="M128.73,60.19l-.25,10c-2.86,3.13-3.57,1.31-3.77,7.14-.21,6.19-4.25,2.45-2.59,8.22,6.23-1.8-4.78-1.61,11.58-6.33C149.12,74.74,176.32,72,178,71.52c0,0-.41,1.08,1.94-1-1.28-2,1.11-1.16-2.71-1.22-.43,0-3,.39-3.64.47l-21,3A248.59,248.59,0,0,0,126.94,79c-.34-7.12,1.7-6.09,8.23-7.93,15.06-4.23,28.22-5.87,43.9-7.33l2.11-4.63c1.56-2.94.94-2,.65-6.11a31.59,31.59,0,0,1,5.24-.07,24.71,24.71,0,0,1,2.62.26c5.45,1.23.06,6.1,5.57,7.56-1.07-9.51-1.27-10-10.75-10.07-15.08-.13-43.41,3.94-55.78,9.56m36.69-6,.82,8.46-20.58,3.46-.19-8.86Zm-34.57,15.7c-.12-1.45-.45-6.32,0-7.49.62-1.74,3-2.09,5-2.56l.57,8.53Z"/>
      <path class="cls-1" d="M147.88,110.51c6.12-.88,7.86-11.75-1.33-12.92s-11.46,0-19.2,3.46c-9.11,4.1-5,13.94-1.17,13.45,4.67-.58,10.9-2.89,21.7-4m2.09-5.45c-.76,4.18-3.13,5.94-8.05,4.9-3.09-.65-6.9-3.11-6.33-7C136.26,98.32,152,94,150,105.06Z"/>
      <path class="cls-1" d="M146.25,113.43c9.34.18,8.73,1,6.93,10.37-3.34,1.08-9.12,1.21-11.55-.72-1.27-1-2.09-3.86-1.56-6,.47-1.92,4.3-2.63,5.77-3.66l-6.43.31c-4.52.55-11,1.36-13.75,4.16-2.94,3-1.93,8.68.63,11.75,9.06-4.58,14.21-3.43,24.34-4.17,7.56.94,13.44-15.23-4.38-12"/>
      <path class="cls-1" d="M134.75,133.26a5.49,5.49,0,0,0,6.65.89c1.94-1.12,1.42-3.29,2.21-5.3,1.39,2.57.44,4.35-.33,6.62-6.33,1.12-13.71.58-7.59-5.9a9.73,9.73,0,0,0-9.72,5.76c.24,5.92,11.82,15.8,15.19,16.65a19,19,0,0,0-2-9.07c-3.8-.43-5.53-.15-5.91-3.57,6.47,2.84,16.07-3.37,12.3-10.18-3.51-2-10.09.11-10.8,4.1"/>
      <path class="cls-1" d="M132.79,96.61c4.06-14.76-17.72-13-11.67,3.08,3.62.7,8.08-1.87,11.67-3.08M122,91.21c3.13-5.37,10.19-1.21,6.71,4.27-1.21,1.89-4,2.38-6.7,2.41l-.66-4.43,1.73,3.14c4-.76,6.06-2.34,4-6.12A7.88,7.88,0,0,0,122,91.21Z"/>
      <path class="cls-1" d="M200.63,64.77c-3.36-.54-10.61-4.23-12.48-3.89-1.43,4.38.12,5.76,4.68,8.58,5.55,3.43,7.2.88,7.8-4.69"/>
      <path class="cls-1" d="M137,103.26c1.09,7.13,14.6,8.15,10.91-2.7-4-1.62-8.64-.41-10.91,2.7"/>
      <path class="cls-1" d="M152.64,115.72c-2.79-1.44-7.47-.69-10.31.48-2.41,6.16,4.25,8,9.22,6.18Z"/>
      <path class="cls-1" d="M81.57,119.07c1.08,5.19,9.94,4.05,8.75-2-1-5.38-10.09-4.48-8.75,2"/>
      <path class="cls-1" d="M133,75.78c3.58-.07,12.19-1.81,14.5-3.53-4.22-.16-12,.54-14.5,3.53"/>
      <path class="cls-1" d="M165.82,69.3c2.63.26,11.58.45,13.55-1.71-.74-.66.22-1-3-.75-2.54.21-8.71,1.33-10.57,2.46"/>
      <path class="cls-1" d="M165.3,67.18l11-.79c.27,0,1.53-.26,1.73-.34,1.3-.5.53-.21,1.27-.88a2.25,2.25,0,0,0-1.39-.43l-9.43,1.15a5.82,5.82,0,0,0-3.22,1.29"/>
      <path class="cls-1" d="M232.31,136.62c1.15.76,2.36,1.55,3.47,2.34l1.27-3.11L233.83,133Z"/>
      <path class="cls-1" d="M133.81,72.45a52,52,0,0,0,7.25-.88c3.12-.56,5.52-.65,7.07-2.31a56.46,56.46,0,0,0-14.32,3.19"/>
      <path class="cls-1" d="M211.62,169.65c2.07-1.86,4.23-3.15,6.3-5.4l-2-1.08c-1.64,2.27-3.26,4.12-4.33,6.48"/>
      <path class="cls-1" d="M199.63,92.19c2.88-.31,2.88,8,3.07,9.24.59,3.84,1.59,11.56.89,11.56a210.25,210.25,0,0,0-44.22,4.36c.6-7.57-5.54-5.34-5.82-5.7l-1.75-2.29c4.68.39,3.14-11.44.61-12.84,1.9-2.84,37.28-3.26,47.22-4.33"/>
      <path class="cls-1" d="M158.8,1.88C97.28,12.88,51,71,62.8,138.53,73.46,199.62,132.26,246,199.5,234.19c61.25-10.73,107.38-69.68,95.6-136.72C284.44,36.77,225.66-10.09,158.8,1.88M67.38,135.64C57.5,71.56,102,15.8,161.67,6.45c63.65-10,119.48,34.69,128.83,93.86,10.09,63.81-34.5,120.13-93.92,129.3A113,113,0,0,1,67.38,135.64Z"/>
      <path class="cls-2" d="M258.06,81.76l.88,1.94,12-5.4-.76-1.68L263,79.85l6.31-5.17-1.06-2.37-12,5.4.77,1.7,8.69-3.91ZM264,60l-2.45.19.82,1.12,2.82.33Zm-12.32,4.8c-1.7,1.23-2,2.84-.84,4.48s2.82,1.84,4.53.61l5.54-4c1.71-1.23,2-2.83.84-4.48s-2.81-1.84-4.52-.6Zm6.87-2.42c.76-.55,1.29-.42,1.68.11s.34,1.08-.42,1.63L254,68.24c-.76.55-1.3.42-1.68-.11s-.34-1.08.42-1.63Zm-15-2.79,1.34,1.58,10-8.5L253.51,51Zm-3-9.91L239.19,51c-.62.71-1.16.69-1.65.25s-.58-1,0-1.67l4.71-5.32c.62-.71,1.17-.7,1.66-.27s.57,1,0,1.69L243,46.77l1.47,1.3.84-1c1.4-1.58,1.41-3.18-.12-4.52s-3.1-1.14-4.5.44l-4.53,5.13c-1.39,1.58-1.4,3.17.12,4.52s3.11,1.14,4.5-.44l1.16-1.31Zm-8.73-14.1-2.78,6.13-1.68-1.08Zm2.62-1.08-2.54-1.64-8.92,9.9,1.59,1,1.6-1.81,2.13,1.38-1,2.2,1.75,1.13Zm-18.55-6.34c-1.51,3.44,2,5.53.9,8-.38.86-.89,1-1.49.74s-.85-.74-.47-1.6l.38-.86-1.79-.79-.33.74c-.85,1.93-.36,3.45,1.5,4.27s3.3.14,4.15-1.79c1.51-3.45-2-5.53-.9-8,.38-.86.87-1,1.47-.78s.8.75.42,1.61l-.22.5,1.8.78.16-.38c.85-1.93.38-3.44-1.46-4.25S216.62,26.18,215.77,28.11Zm-12.48,6.2,2,.57,3.55-12.67-1.78-.5L205,29.3l.08-8.16-2.5-.7L199,33.12l1.8.5,2.56-9.18ZM189.86,20.22l3.55.37.19-1.87L188,18.14l-1.35,13.09,5.61.58.19-1.87-3.55-.37.4-3.83,2.82.29.19-1.87-2.82-.29ZM173.44,21c.11,3.76,4.16,4.16,4.24,6.86,0,.94-.38,1.29-1,1.31s-1.09-.31-1.11-1.25l0-.94-2,.06,0,.81c.06,2.1,1.15,3.28,3.18,3.22s3-1.29,3-3.4c-.1-3.76-4.16-4.15-4.24-6.86,0-.94.34-1.3,1-1.32s1,.32,1.07,1.26l0,.55,1.95-.06v-.41c-.06-2.1-1.13-3.28-3.14-3.22S173.38,18.93,173.44,21Zm-17.09,9.89-.3-1.18c-.29-1.18,0-1.72.91-1.95l.77-.2.74,3c.16.81-.16,1.22-.76,1.37S156.58,31.84,156.35,30.92Zm-2.29-.62.33,1.29c.47,1.88,1.48,2.73,3,2.36a2,2,0,0,0,1.57-1.62,3.28,3.28,0,0,0,.43,1l2.05-.51a3.85,3.85,0,0,1-.61-1.5l-1.06-4.19.53-.14-.46-1.82-.53.14-.36-1.43-2,.51.36,1.42-.88.22c-.75.19-1.29,0-1.54-1l-.2-.78c-.23-.91.07-1.34.71-1.5l2.26-.57-.46-1.82-2.3.58c-2,.51-2.71,1.86-2.19,3.91l.06.23c.34,1.37,1,2.12,2,2.28A2.72,2.72,0,0,0,154.06,30.3Zm-18.89.26,3.89,5.49-1.78.9Zm.39-2.81-2.7,1.37,4.06,12.69,1.69-.86-.75-2.29,2.26-1.14,1.4,2,1.86-.94Zm-13.73,4.69.09,2.44,1.16-.76.45-2.8Zm7.77,14,1.72-1.14-7.25-11-1.73,1.14Zm-11.28,1.9.72-.6,1.56,1.85c.61.72.51,1.24,0,1.67s-1,.43-1.64-.29l-4.58-5.43c-.61-.72-.52-1.26,0-1.68s1-.42,1.66.3l.91,1.07L118.42,44l-.82-1c-1.36-1.61-2.94-1.85-4.49-.55s-1.59,2.91-.23,4.52l4.41,5.23c1.36,1.61,2.94,1.86,4.5.55s1.58-2.91.22-4.52L119.32,45l-2.22,1.86ZM104.09,54.4c.48-.55,1-.51,1.71.11l1,.86c.79.7.73,1.27.22,1.85l-.54.61-3-2.68Zm10.68,5a3.76,3.76,0,0,1-1.35-.89l-1.52-1.34c-1-.91-2-1.32-3-.83a2.62,2.62,0,0,0-1.1-2.78l-.78-.69c-1.52-1.34-2.88-1.31-4.3.3l-2.06,2.34,9.86,8.71,1.37-1.55-4-3.55.48-.53c.62-.71,1.23-.72,2.15.09L112,60a4,4,0,0,0,1.33.93ZM95,66.89l1.88-3-1.59-1-3,4.79,11.19,6.94,3-4.79-1.6-1-1.88,3-3.27-2,1.49-2.41-1.6-1-1.49,2.41Zm4.37,16,.85-1.95L88.18,75.62l-.74,1.69,7.22,3.16-8.07-1.21-1,2.37,12.06,5.28.74-1.7-8.73-3.83ZM83.56,94.26l.83-3.47-1.83-.44-1.32,5.48L94,98.91l1.32-5.48L93.53,93l-.83,3.47L89,95.56l.66-2.76-1.82-.44-.67,2.76Z"/>
      <path class="cls-1" d="M234.38,198.65a3.78,3.78,0,0,0,5.58.55c1.95-1.49,2.09-3.33.49-5.16s-3.41-4-5.14-5.92a3.76,3.76,0,0,0-5.59-.53c-2,1.49-2.14,3.35-.56,5.16,1.71,2,3.44,3.94,5.22,5.9m-3.28-7.54c-.72-.82-.59-1.43.07-1.91a1.33,1.33,0,0,1,2,.33c1.78,2,3.54,4.1,5.34,6.14.72.82.6,1.43,0,1.91s-1.32.48-2-.33C234.64,195.21,232.88,193.15,231.1,191.11ZM231,205l2.25-1.28c-1.39-2.1-2.81-4.19-4.18-6.29s-2.66-4.21-4-6.32l-2,1.12q1.17,1.89,2.37,3.77t2.47,3.77c-2.43-2.08-4.79-4.17-7.13-6.25L218,195.1q2,3.15,4.1,6.29c1.4,2.09,2.8,4.19,4.18,6.29l2-1.12-3-4.56c-1-1.52-2-3-3-4.56,1.42,1.26,2.91,2.52,4.37,3.78Zm-17.55-4.94,4.33,6.38-2.27.92c-.34-1.22-.68-2.43-1-3.65S213.81,201.28,213.46,200.07Zm.77-3.15-3.47,1.4q.94,3.63,1.94,7.25c.65,2.41,1.3,4.83,2,7.24l2.16-.87c-.25-.87-.51-1.74-.75-2.62l2.89-1.16,1.56,2.29,2.38-.95-4.38-6.29C217.08,201.12,215.64,199,214.23,196.92Zm-5.72,17.86,2.43-.75c-.82-2.33-1.66-4.66-2.48-7s-1.63-4.65-2.45-7l-2.44.76q1.25,3.49,2.46,7T208.51,214.78Zm-9.16-4,1.13-.24c.21.88.44,1.76.66,2.64.24,1-.16,1.5-.95,1.67a1.26,1.26,0,0,1-1.65-1.11c-.32-1.28-.64-2.57-.95-3.86s-.62-2.58-.94-3.88c-.24-1,.14-1.51.94-1.69a1.27,1.27,0,0,1,1.65,1.13c.12.51.24,1,.37,1.53l2.35-.51-.33-1.4c-.56-2.29-2.16-3.32-4.61-2.78s-3.4,2.13-2.83,4.42c.3,1.24.61,2.48.91,3.72s.61,2.48.92,3.73c.57,2.29,2.15,3.32,4.6,2.79s3.41-2.13,2.84-4.42c-.37-1.51-.75-3-1.12-4.55l-3.49.77C199,209.44,199.18,210.12,199.35,210.8Zm-11.91-4.23c.32,1.22.65,2.43,1,3.65s.65,2.42,1,3.64l-2.45.24c.07-1.26.15-2.51.22-3.76S187.35,207.83,187.44,206.57Zm1.72-2.79-3.72.37c-.2,2.48-.39,5-.57,7.44l-.57,7.46,2.34-.23c.05-.91.11-1.81.18-2.71l3.12-.3c.23.87.46,1.74.7,2.62l2.57-.26c-.67-2.4-1.35-4.79-2-7.19S189.85,206.18,189.16,203.78Zm-15.34.43-3.55-.11c-.1,2.47-.21,4.94-.31,7.4s-.21,4.94-.32,7.41l2.24.05c.06-1.74.14-3.49.21-5.23s.15-3.49.23-5.23c.24,1.75.49,3.5.73,5.25s.48,3.5.73,5.25l2.41.05c.37-1.76.72-3.52,1.09-5.27s.75-3.51,1.13-5.27c-.08,1.76-.17,3.53-.24,5.29s-.15,3.53-.22,5.29l2.42,0c.1-2.45.22-4.91.32-7.36s.22-4.91.32-7.37l-3.56-.09c-.36,1.74-.74,3.48-1.1,5.22s-.74,3.47-1.09,5.21c-.25-1.75-.5-3.51-.73-5.26S174.05,206,173.82,204.21Zm-15.18,6.32,4.54.89c.16-.69.33-1.39.5-2.08l-4.55-.89C159,209.15,158.79,209.84,158.64,210.53Zm-14.88,2.28,6.33,2.16c.28-.67.55-1.34.82-2L147,211.61q1.22-3,2.44-6c.82-2,1.67-4,2.51-6-.81-.27-1.6-.55-2.39-.84-1,2.34-1.95,4.69-2.92,7S144.72,210.45,143.76,212.81Zm-1.29-14.36c-1,2.43-1.92,4.85-2.86,7.27l-2.18-1.08C139.1,202.57,140.77,200.52,142.47,198.45Zm3.15-1.46-3.3-1.65c-1.7,2-3.39,4-5.07,6.08s-3.34,4.07-5,6.1c.67.35,1.37.69,2.06,1,.6-.74,1.18-1.49,1.78-2.23l2.78,1.36c-.34.87-.68,1.74-1,2.62l2.26,1.12c.92-2.41,1.82-4.82,2.73-7.22S144.69,199.39,145.62,197Zm123.3-59.92c4.92-3.39,9.69,4.61,4.92,7.51A4.49,4.49,0,1,1,268.92,137.07Zm-179,17.67c4.78-3.47,9.87,4.3,4.81,7.43C90,165.07,84.59,158.61,89.92,154.74ZM81.71,161c1.8,6.64,13.94,22.11,18,26.27,49.63,51.51,135.64,44.22,172.06-19.2,2.72-4.74,12.55-22.91,10.73-30.42a10.39,10.39,0,0,0-13.86-7c-5.63,2.15-6.19,7.65-8.21,13.18a89.64,89.64,0,0,1-21.17,32.32c-32.68,31.38-84.28,32.27-116.86,4.31-22.69-19.47-19.58-35.34-33.08-32.47A10.33,10.33,0,0,0,81.71,161Z"/>
      <path class="cls-2" d="M147.55,261.46l8-1.64,8.92,43.58,13.15-2.69L179.1,308,158,312.3Zm-7.27,36.9L131.57,274l-.14,0,1.65,25.85Zm-15.68-32.2,10.82-2.22,18.69,49.15-8,1.63-3.52-9.79,0,.14-9.08,1.86.59,10.25-7.41,1.51Zm-44.16,9,21.79-4.46,1.49,7.26-13.8,2.82,2.75,13.44,11-2.24,1.48,7.26-11,2.24,3.19,15.62,13.8-2.82,1.49,7.26L90.85,326Zm-25,5.11L76.59,276l1.49,7.26-13.15,2.69,2.9,14.16L78.15,298l1.48,7.26-10.31,2.11,4.53,22.16-8,1.63Zm-7.28,36.91-8.7-24.41-.15,0L41,318.69ZM32.51,285l10.82-2.22L62,331.94l-8,1.64-3.52-9.8,0,.14-9.08,1.86L42,336l-7.41,1.52ZM20.33,341.23q-5.77,1.18-9.39-1.48C8.46,338,6.82,335.14,6,331.15L.42,303.84c-.82-4-.43-7.26,1.16-9.85s4.2-4.27,8-5.05,7-.3,9.46,1.47S23.13,295,24,299l1.1,5.38-7.56,1.54-1.2-5.88c-.64-3.12-2.27-4.45-5-3.9s-3.67,2.41-3,5.53l5.81,28.4c.64,3.13,2.26,4.38,4.95,3.83s3.68-2.34,3-5.46l-1.59-7.77,7.56-1.55,1.47,7.19c.82,4,.42,7.25-1.09,9.83s-4.27,4.28-8.12,5.07"/>
      <path class="cls-2" d="M247.77,276.36l-8.7-24.4-.15,0,1.66,25.84Zm-15.68-32.21,10.83-2.21,18.68,49.15-8,1.63-3.52-9.8,0,.15-9.07,1.86.58,10.24-7.41,1.52Zm-45.24,9.27,11.4-2.34,12.53,35.35.15,0L208.56,249l11.4-2.33,10.41,50.84L222.82,299l-7.88-38.49-.15,0,2.07,39.68-6.68,1.37-13.69-37.3-.14,0,7.88,38.49-7,1.43Zm-16.32,26,16-3.27,1.49,7.26-16,3.27Z"/>
      <path class="cls-2" d="M378,260.45q4.14-.85,3.11-5.86l-5.68-27.74c-.68-3.35-2.4-4.73-5.16-4.17s-3.8,2.52-3.12,5.86l5.68,27.75c.69,3.34,2.41,4.72,5.17,4.16m1.49,7.26c-3.93.81-7.13.33-9.69-1.5s-4.23-4.73-5.06-8.8l-5.47-26.73c-.83-4.06-.46-7.39,1.19-10.08s4.4-4.38,8.32-5.18,7.12-.32,9.69,1.5,4.22,4.73,5.06,8.8L389,252.45c.83,4.06.45,7.4-1.19,10.08S383.41,266.91,379.49,267.71Zm-53.12-42.85,10-2.05,14,28.84.15,0-6.23-30.44,7.12-1.45,10.4,50.84-8.2,1.68L336.44,237.1l-.14,0,7.59,37.11-7.11,1.46Zm-7.28,36.9-8.7-24.4-.15,0,1.66,25.84Zm-15.67-32.21,10.82-2.21,18.69,49.15-8,1.63-3.52-9.8,0,.15-9.08,1.86.58,10.24-7.41,1.52Zm-20.12,4.12,8-1.63,10.41,50.84-8,1.63Zm-6.51,55.06c-3.85.79-7.05.31-9.55-1.52s-4.13-4.68-5-8.82l-5.47-26.73c-.85-4.14-.47-7.47,1.1-10.14s4.34-4.29,8.19-5.08,7.05-.31,9.53,1.46,4.15,4.75,5,8.89l.89,4.35L274,252.69l-1-4.87q-1-5-5.16-4.16c-2.76.56-3.8,2.52-3.12,5.86l5.7,27.82c.67,3.26,2.39,4.65,5.15,4.09s3.8-2.52,3.13-5.79l-2-9.95-4,.82-1.49-7.27,11.55-2.36,3.4,16.63c.85,4.14.47,7.47-1.12,10.07s-4.32,4.37-8.17,5.15"/>
      <path class="cls-2" d="M147.55,261.46l8-1.64,8.92,43.58,13.15-2.69L179.1,308,158,312.3Zm-7.27,36.9L131.57,274l-.14,0,1.65,25.85Zm-15.68-32.2,10.82-2.22,18.69,49.15-8,1.63-3.52-9.79,0,.14-9.08,1.86.59,10.25-7.41,1.51Zm-44.16,9,21.79-4.46,1.49,7.26-13.8,2.82,2.75,13.44,11-2.24,1.48,7.26-11,2.24,3.19,15.62,13.8-2.82,1.49,7.26L90.85,326Zm-25,5.11L76.59,276l1.49,7.26-13.15,2.69,2.9,14.16L78.15,298l1.48,7.26-10.31,2.11,4.53,22.16-8,1.63Zm-7.28,36.91-8.7-24.41-.15,0L41,318.69ZM32.51,285l10.82-2.22L62,331.94l-8,1.64-3.52-9.8,0,.14-9.08,1.86L42,336l-7.41,1.52ZM20.33,341.23q-5.77,1.18-9.39-1.48C8.46,338,6.82,335.14,6,331.15L.42,303.84c-.82-4-.43-7.26,1.16-9.85s4.2-4.27,8-5.05,7-.3,9.46,1.47S23.13,295,24,299l1.1,5.38-7.56,1.54-1.2-5.88c-.64-3.12-2.27-4.45-5-3.9s-3.67,2.41-3,5.53l5.81,28.4c.64,3.13,2.26,4.38,4.95,3.83s3.68-2.34,3-5.46l-1.59-7.77,7.56-1.55,1.47,7.19c.82,4,.42,7.25-1.09,9.83s-4.27,4.28-8.12,5.07"/>
      <path class="cls-2" d="M247.77,276.36l-8.7-24.4-.15,0,1.66,25.84Zm-15.68-32.21,10.83-2.21,18.68,49.15-8,1.63-3.52-9.8,0,.15-9.07,1.86.58,10.24-7.41,1.52Zm-45.24,9.27,11.4-2.34,12.53,35.35.15,0L208.56,249l11.4-2.33,10.41,50.84L222.82,299l-7.88-38.49-.15,0,2.07,39.68-6.68,1.37-13.69-37.3-.14,0,7.88,38.49-7,1.43Zm-16.32,26,16-3.27,1.49,7.26-16,3.27Z"/>
      <path class="cls-2" d="M378,260.45q4.14-.85,3.11-5.86l-5.68-27.74c-.68-3.35-2.4-4.73-5.16-4.17s-3.8,2.52-3.12,5.86l5.68,27.75c.69,3.34,2.41,4.72,5.17,4.16m1.49,7.26c-3.93.81-7.13.33-9.69-1.5s-4.23-4.73-5.06-8.8l-5.47-26.73c-.83-4.06-.46-7.39,1.19-10.08s4.4-4.38,8.32-5.18,7.12-.32,9.69,1.5,4.22,4.73,5.06,8.8L389,252.45c.83,4.06.45,7.4-1.19,10.08S383.41,266.91,379.49,267.71Zm-53.12-42.85,10-2.05,14,28.84.15,0-6.23-30.44,7.12-1.45,10.4,50.84-8.2,1.68L336.44,237.1l-.14,0,7.59,37.11-7.11,1.46Zm-7.28,36.9-8.7-24.4-.15,0,1.66,25.84Zm-15.67-32.21,10.82-2.21,18.69,49.15-8,1.63-3.52-9.8,0,.15-9.08,1.86.58,10.24-7.41,1.52Zm-20.12,4.12,8-1.63,10.41,50.84-8,1.63Zm-6.51,55.06c-3.85.79-7.05.31-9.55-1.52s-4.13-4.68-5-8.82l-5.47-26.73c-.85-4.14-.47-7.47,1.1-10.14s4.34-4.29,8.19-5.08,7.05-.31,9.53,1.46,4.15,4.75,5,8.89l.89,4.35L274,252.69l-1-4.87q-1-5-5.16-4.16c-2.76.56-3.8,2.52-3.12,5.86l5.7,27.82c.67,3.26,2.39,4.65,5.15,4.09s3.8-2.52,3.13-5.79l-2-9.95-4,.82-1.49-7.27,11.55-2.36,3.4,16.63c.85,4.14.47,7.47-1.12,10.07s-4.32,4.37-8.17,5.15"/>
      <path class="cls-2" d="M147.55,261.46l8-1.64,8.92,43.58,13.15-2.69,1.48,7.26L158,312.3Zm-7.28,36.9-8.7-24.4-.14,0,1.65,25.85Zm-15.67-32.2,10.82-2.22,18.69,49.15-8,1.63-3.52-9.79,0,.14-9.08,1.86.59,10.25-7.41,1.51Zm-44.16,9,21.79-4.46,1.49,7.26-13.8,2.82,2.75,13.44,11-2.24,1.48,7.26-11,2.24,3.19,15.62,13.8-2.82,1.49,7.26L90.85,326Zm-25,5.11L76.59,276l1.49,7.26-13.15,2.69,2.9,14.16L78.15,298l1.48,7.26-10.31,2.12,4.53,22.15-8,1.63Zm-7.28,36.91-8.7-24.4-.15,0L41,318.69ZM32.51,285l10.82-2.22L62,331.94l-8,1.64-3.52-9.8,0,.14-9.08,1.86L42,336l-7.41,1.52ZM20.33,341.23q-5.77,1.18-9.39-1.48C8.46,338,6.82,335.14,6,331.15L.41,303.84c-.81-4-.42-7.26,1.17-9.85s4.19-4.27,8-5.05,7-.3,9.46,1.47S23.13,295,24,299l1.1,5.38-7.56,1.54-1.2-5.88c-.64-3.12-2.27-4.45-5-3.9s-3.67,2.41-3,5.53l5.81,28.4c.64,3.13,2.26,4.38,4.95,3.83s3.68-2.34,3-5.46l-1.59-7.77,7.56-1.55,1.47,7.19c.82,4,.42,7.25-1.09,9.83s-4.27,4.28-8.12,5.07"/>
      <path class="cls-2" d="M247.77,276.36,239.06,252l-.14,0,1.66,25.84Zm-15.68-32.21,10.83-2.21,18.68,49.15-8,1.63-3.52-9.8,0,.15-9.07,1.86.58,10.24-7.41,1.52Zm-45.24,9.27,11.4-2.34,12.53,35.35.15,0L208.56,249l11.4-2.33,10.41,50.84L222.82,299l-7.88-38.49-.15,0,2.07,39.68-6.68,1.37-13.69-37.3-.14,0,7.88,38.49-7,1.43Zm-16.32,26,16-3.27,1.49,7.26-16,3.27Z"/>
      <path class="cls-2" d="M378,260.45q4.14-.85,3.11-5.86l-5.68-27.74c-.68-3.35-2.4-4.73-5.16-4.17s-3.8,2.52-3.12,5.86l5.68,27.75c.69,3.34,2.41,4.72,5.17,4.16m1.49,7.26c-3.93.81-7.13.33-9.69-1.5s-4.23-4.73-5.06-8.8l-5.47-26.73c-.83-4.06-.46-7.39,1.19-10.08s4.4-4.38,8.32-5.18,7.12-.32,9.69,1.5,4.22,4.73,5.06,8.8L389,252.45c.83,4.06.45,7.4-1.19,10.08S383.41,266.91,379.49,267.71Zm-53.12-42.85,10-2.05,14,28.84.15,0-6.23-30.44,7.12-1.45,10.4,50.84-8.2,1.68L336.44,237.1l-.14,0,7.59,37.11-7.11,1.46Zm-7.28,36.9-8.7-24.4-.15,0,1.66,25.84Zm-15.67-32.2,10.82-2.22,18.69,49.15-8,1.63-3.52-9.8,0,.15-9.08,1.86.58,10.24-7.41,1.52Zm-20.12,4.11,8-1.63,10.4,50.84-8,1.63Zm-6.51,55.06c-3.85.79-7.05.31-9.55-1.52s-4.13-4.68-5-8.82l-5.47-26.73c-.85-4.14-.47-7.47,1.1-10.14s4.34-4.29,8.19-5.08,7.05-.31,9.53,1.46,4.15,4.75,5,8.89l.89,4.35L274,252.69l-1-4.87q-1-5-5.16-4.16c-2.76.56-3.8,2.52-3.12,5.86l5.7,27.82c.67,3.26,2.39,4.65,5.15,4.09s3.8-2.52,3.13-5.79l-2-9.95-4,.82-1.48-7.27,11.55-2.36,3.4,16.63c.85,4.14.47,7.47-1.12,10.07s-4.32,4.37-8.17,5.15"/>
      <path class="cls-2" d="M148.74,321.4l-2.89.59-.52-2.52,8.55-1.75.52,2.52-2.89.59,3.09,15.09-2.77.57ZM132.9,322l7.55-1.55L141,323l-4.78,1,.95,4.66,3.8-.78.51,2.52-3.8.77,1.11,5.41,4.78-1,.52,2.52-7.55,1.54Zm-8.65,1.77,7.32-1.5.52,2.51-4.56.94,1,4.9,3.57-.73.51,2.52-3.57.73,1.57,7.67-2.76.57Zm-2.52,12.78-3-8.45h0l.57,8.95Zm-5.43-11.16,3.75-.76,6.47,17-2.77.57-1.21-3.4v.05l-3.15.65.2,3.55-2.56.52Zm-4.22,19.48a3.93,3.93,0,0,1-3.25-.52,4.59,4.59,0,0,1-1.71-3l-1.93-9.45a4.57,4.57,0,0,1,.4-3.42,4,4,0,0,1,2.79-1.75,4,4,0,0,1,3.27.51,4.76,4.76,0,0,1,1.69,3l.38,1.86-2.62.53-.42-2c-.22-1.09-.78-1.55-1.71-1.36s-1.27.84-1,1.92l2,9.84c.22,1.08.78,1.52,1.71,1.33s1.28-.82,1.06-1.9l-.55-2.69,2.61-.53.51,2.49a4.67,4.67,0,0,1-.37,3.4,4.06,4.06,0,0,1-2.82,1.76"/>
      <path class="cls-2" d="M177.22,315.57l-2.9.59-.51-2.52,8.55-1.75.52,2.52L180,315l3.09,15.09-2.76.57Zm-4.79,17a3.9,3.9,0,0,1-3.28-.53,4.84,4.84,0,0,1-1.7-3.06l-.21-1,2.62-.53.25,1.21c.23,1.13.83,1.61,1.78,1.41a1.4,1.4,0,0,0,1-.65A2.14,2.14,0,0,0,173,328a4,4,0,0,0-.91-1.86,9.13,9.13,0,0,0-2.27-1.63,11.47,11.47,0,0,1-2.95-2.25,5.62,5.62,0,0,1-1.24-2.61,4.7,4.7,0,0,1,.39-3.46,4.07,4.07,0,0,1,2.84-1.76,4,4,0,0,1,3.25.51,5,5,0,0,1,1.68,3.09l.15.73-2.62.54-.19-.91a2.16,2.16,0,0,0-.62-1.26,1.29,1.29,0,0,0-1.11-.19c-.94.19-1.27.84-1,2a3.4,3.4,0,0,0,.89,1.68,9.67,9.67,0,0,0,2.27,1.63,10.34,10.34,0,0,1,3,2.25,6.43,6.43,0,0,1,1.24,2.76,4.88,4.88,0,0,1-.37,3.54,4.13,4.13,0,0,1-2.89,1.79M162.26,332c1-.2,1.31-.88,1.08-2l-2-9.61c-.24-1.16-.83-1.64-1.79-1.45s-1.32.88-1.08,2l2,9.61c.24,1.16.83,1.64,1.79,1.45m.51,2.51a4.11,4.11,0,0,1-3.35-.52,4.69,4.69,0,0,1-1.76-3.05l-1.89-9.25a4.69,4.69,0,0,1,.41-3.5,4.89,4.89,0,0,1,6.24-1.27,4.68,4.68,0,0,1,1.75,3.05l1.9,9.25a4.69,4.69,0,0,1-.42,3.5A4.13,4.13,0,0,1,162.77,334.51Z"/>
      <path class="cls-2" d="M285.3,306.81c.95-.2,1.31-.87,1.08-2l-2-9.61c-.24-1.16-.83-1.64-1.79-1.44s-1.32.87-1.08,2l2,9.61c.23,1.15.83,1.64,1.79,1.44m.51,2.52a4.14,4.14,0,0,1-3.35-.52,4.69,4.69,0,0,1-1.76-3.05l-1.89-9.26a4.67,4.67,0,0,1,.41-3.49,4.87,4.87,0,0,1,6.24-1.28,4.68,4.68,0,0,1,1.75,3l1.9,9.26a4.66,4.66,0,0,1-.42,3.49A4.13,4.13,0,0,1,285.81,309.33Zm-10.6-.72a1.35,1.35,0,0,0,1-.62,2.08,2.08,0,0,0,.09-1.38l-1.88-9.15a2,2,0,0,0-.62-1.24,1.4,1.4,0,0,0-1.14-.19l-1.41.29,2.58,12.58Zm-7.27-14.24,4.23-.86a4.14,4.14,0,0,1,3.32.47,4.73,4.73,0,0,1,1.7,3l1.82,8.9a4.73,4.73,0,0,1-.37,3.46,4.13,4.13,0,0,1-2.87,1.74l-4.22.86Zm-4.83,1,2.77-.56,3.6,17.61-2.76.56Zm-8.65,1.77,2.77-.56,3.09,15.09,4.55-.93.51,2.51-7.32,1.5Zm-2.92,16.59c1-.2,1.31-.87,1.08-2l-2-9.61c-.24-1.16-.83-1.64-1.79-1.44s-1.32.87-1.08,2l2,9.61c.24,1.15.83,1.64,1.79,1.44m.51,2.52a4.15,4.15,0,0,1-3.35-.52,4.69,4.69,0,0,1-1.76-3.05l-1.89-9.26a4.67,4.67,0,0,1,.41-3.49,4.87,4.87,0,0,1,6.24-1.28,4.68,4.68,0,0,1,1.75,3.05l1.9,9.26a4.66,4.66,0,0,1-.42,3.49A4.11,4.11,0,0,1,252.05,316.24ZM230.86,302l3.95-.8,4.34,12.24h0l-.82-13,4-.8,3.61,17.61-2.62.53-2.73-13.33h-.05l.72,13.74-2.32.48-4.74-12.92h0l2.73,13.33-2.41.49Zm-9.32,12.45L216.12,305l2.94-.6,3.21,6.08h0l.57-6.85,2.69-.56-1.28,10.8,1.54,7.5-2.77.57ZM210,322.23c1-.2,1.31-.88,1.08-2l-2-9.61c-.24-1.16-.83-1.64-1.79-1.44s-1.31.87-1.08,2l2,9.61c.24,1.16.83,1.64,1.79,1.45m.51,2.51a4.11,4.11,0,0,1-3.35-.52,4.64,4.64,0,0,1-1.75-3l-1.9-9.26a4.67,4.67,0,0,1,.41-3.49,4.88,4.88,0,0,1,6.24-1.28,4.64,4.64,0,0,1,1.75,3.05l1.9,9.26a4.67,4.67,0,0,1-.41,3.49A4.14,4.14,0,0,1,210.49,324.74Zm-10.6-.71a1.35,1.35,0,0,0,1-.62A2.09,2.09,0,0,0,201,322l-1.88-9.16a2,2,0,0,0-.62-1.23,1.34,1.34,0,0,0-1.13-.19l-1.41.29,2.57,12.58Zm-7.27-14.24,4.23-.86a4.1,4.1,0,0,1,3.32.47,4.73,4.73,0,0,1,1.7,3l1.82,8.91a4.73,4.73,0,0,1-.37,3.46,4.16,4.16,0,0,1-2.86,1.74l-4.23.86Zm-2.52,12.78-3-8.45H187l.57,8.95Zm-5.43-11.15,3.75-.77,6.48,17-2.77.57-1.22-3.39v0l-3.14.64.2,3.55-2.57.52Z"/>
      <path class="cls-2" d="M148.74,321.4l-2.89.59-.52-2.52,8.55-1.75.52,2.52-2.89.59,3.09,15.09-2.77.57ZM132.9,322l7.55-1.55L141,323l-4.78,1,.95,4.66,3.8-.78.51,2.52-3.8.77,1.11,5.41,4.78-1,.52,2.52-7.55,1.54Zm-8.65,1.77,7.32-1.5.52,2.51-4.56.94,1,4.9,3.57-.73.51,2.52-3.57.73,1.57,7.67-2.76.57Zm-2.52,12.78-3-8.45h0l.57,8.95Zm-5.43-11.16,3.75-.76,6.47,17-2.77.57-1.21-3.4v.05l-3.15.65.2,3.55-2.56.52Zm-4.22,19.48a3.93,3.93,0,0,1-3.25-.52,4.59,4.59,0,0,1-1.71-3l-1.93-9.45a4.57,4.57,0,0,1,.4-3.42,4,4,0,0,1,2.79-1.75,4,4,0,0,1,3.27.51,4.76,4.76,0,0,1,1.69,3l.38,1.86-2.62.53-.42-2c-.22-1.09-.78-1.55-1.71-1.36s-1.27.84-1,1.92l2,9.84c.22,1.08.78,1.52,1.71,1.33s1.28-.82,1.06-1.9l-.55-2.69,2.61-.53.51,2.49a4.67,4.67,0,0,1-.37,3.4,4.06,4.06,0,0,1-2.82,1.76"/>
      <path class="cls-2" d="M177.22,315.57l-2.9.59-.51-2.52,8.55-1.75.52,2.52L180,315l3.09,15.09-2.76.57Zm-4.79,17a3.9,3.9,0,0,1-3.28-.53,4.84,4.84,0,0,1-1.7-3.06l-.21-1,2.62-.53.25,1.21c.23,1.13.83,1.61,1.78,1.41a1.4,1.4,0,0,0,1-.65A2.14,2.14,0,0,0,173,328a4,4,0,0,0-.91-1.86,9.13,9.13,0,0,0-2.27-1.63,11.47,11.47,0,0,1-2.95-2.25,5.62,5.62,0,0,1-1.24-2.61,4.7,4.7,0,0,1,.39-3.46,4.07,4.07,0,0,1,2.84-1.76,4,4,0,0,1,3.25.51,5,5,0,0,1,1.68,3.09l.15.73-2.62.54-.19-.91a2.16,2.16,0,0,0-.62-1.26,1.29,1.29,0,0,0-1.11-.19c-.94.19-1.27.84-1,2a3.4,3.4,0,0,0,.89,1.68,9.67,9.67,0,0,0,2.27,1.63,10.34,10.34,0,0,1,3,2.25,6.43,6.43,0,0,1,1.24,2.76,4.88,4.88,0,0,1-.37,3.54,4.13,4.13,0,0,1-2.89,1.79M162.26,332c1-.2,1.31-.88,1.08-2l-2-9.61c-.24-1.16-.83-1.64-1.79-1.45s-1.32.88-1.08,2l2,9.61c.24,1.16.83,1.64,1.79,1.45m.51,2.51a4.11,4.11,0,0,1-3.35-.52,4.69,4.69,0,0,1-1.76-3.05l-1.89-9.25a4.69,4.69,0,0,1,.41-3.5,4.89,4.89,0,0,1,6.24-1.27,4.68,4.68,0,0,1,1.75,3.05l1.9,9.25a4.69,4.69,0,0,1-.42,3.5A4.13,4.13,0,0,1,162.77,334.51Z"/>
      <path class="cls-2" d="M285.3,306.81c.95-.2,1.31-.87,1.08-2l-2-9.61c-.24-1.16-.83-1.64-1.79-1.44s-1.32.87-1.08,2l2,9.61c.23,1.15.83,1.64,1.79,1.44m.51,2.52a4.14,4.14,0,0,1-3.35-.52,4.69,4.69,0,0,1-1.76-3.05l-1.89-9.26a4.67,4.67,0,0,1,.41-3.49,4.87,4.87,0,0,1,6.24-1.28,4.68,4.68,0,0,1,1.75,3l1.9,9.26a4.66,4.66,0,0,1-.42,3.49A4.13,4.13,0,0,1,285.81,309.33Zm-10.6-.72a1.35,1.35,0,0,0,1-.62,2.08,2.08,0,0,0,.09-1.38l-1.88-9.15a2,2,0,0,0-.62-1.24,1.4,1.4,0,0,0-1.14-.19l-1.41.29,2.58,12.58Zm-7.27-14.24,4.23-.86a4.14,4.14,0,0,1,3.32.47,4.73,4.73,0,0,1,1.7,3l1.82,8.9a4.73,4.73,0,0,1-.37,3.46,4.13,4.13,0,0,1-2.87,1.74l-4.22.86Zm-4.83,1,2.77-.56,3.6,17.61-2.76.56Zm-8.65,1.77,2.77-.56,3.09,15.09,4.55-.93.51,2.51-7.32,1.5Zm-2.92,16.59c1-.2,1.31-.87,1.08-2l-2-9.61c-.24-1.16-.83-1.64-1.79-1.44s-1.32.87-1.08,2l2,9.61c.24,1.15.83,1.64,1.79,1.44m.51,2.52a4.15,4.15,0,0,1-3.35-.52,4.69,4.69,0,0,1-1.76-3.05l-1.89-9.26a4.67,4.67,0,0,1,.41-3.49,4.87,4.87,0,0,1,6.24-1.28,4.68,4.68,0,0,1,1.75,3.05l1.9,9.26a4.66,4.66,0,0,1-.42,3.49A4.11,4.11,0,0,1,252.05,316.24ZM230.86,302l3.95-.8,4.34,12.24h0l-.82-13,4-.8,3.61,17.61-2.62.53-2.73-13.33h-.05l.72,13.74-2.32.48-4.74-12.92h0l2.73,13.33-2.41.49Zm-9.32,12.45L216.12,305l2.94-.6,3.21,6.08h0l.57-6.85,2.69-.56-1.28,10.8,1.54,7.5-2.77.57ZM210,322.23c1-.2,1.31-.88,1.08-2l-2-9.61c-.24-1.16-.83-1.64-1.79-1.44s-1.31.87-1.08,2l2,9.61c.24,1.16.83,1.64,1.79,1.45m.51,2.51a4.11,4.11,0,0,1-3.35-.52,4.64,4.64,0,0,1-1.75-3l-1.9-9.26a4.67,4.67,0,0,1,.41-3.49,4.88,4.88,0,0,1,6.24-1.28,4.64,4.64,0,0,1,1.75,3.05l1.9,9.26a4.67,4.67,0,0,1-.41,3.49A4.14,4.14,0,0,1,210.49,324.74Zm-10.6-.71a1.35,1.35,0,0,0,1-.62A2.09,2.09,0,0,0,201,322l-1.88-9.16a2,2,0,0,0-.62-1.23,1.34,1.34,0,0,0-1.13-.19l-1.41.29,2.57,12.58Zm-7.27-14.24,4.23-.86a4.1,4.1,0,0,1,3.32.47,4.73,4.73,0,0,1,1.7,3l1.82,8.91a4.73,4.73,0,0,1-.37,3.46,4.16,4.16,0,0,1-2.86,1.74l-4.23.86Zm-2.52,12.78-3-8.45H187l.57,8.95Zm-5.43-11.15,3.75-.77,6.48,17-2.77.57-1.22-3.39v0l-3.14.64.2,3.55-2.57.52Z"/>
      <path class="cls-2" d="M148.74,321.4l-2.89.59-.52-2.52,8.55-1.75.52,2.52-2.89.59,3.09,15.09-2.77.57ZM132.9,322l7.55-1.55L141,323l-4.78,1,.95,4.66,3.8-.78.51,2.52-3.8.77,1.11,5.41,4.78-1,.52,2.52-7.55,1.55Zm-8.65,1.77,7.32-1.5.52,2.51-4.56.94,1,4.9,3.57-.73.51,2.52-3.57.73,1.57,7.67-2.77.57Zm-2.52,12.78-3-8.45h0l.58,8.95Zm-5.43-11.16,3.75-.76,6.47,17-2.77.57-1.21-3.4v.05l-3.15.65.2,3.55-2.56.52Zm-4.22,19.48a3.93,3.93,0,0,1-3.25-.52,4.59,4.59,0,0,1-1.71-3l-1.93-9.45a4.57,4.57,0,0,1,.4-3.42,4,4,0,0,1,2.79-1.75,4,4,0,0,1,3.27.51,4.76,4.76,0,0,1,1.69,3l.38,1.86-2.62.53-.42-2c-.22-1.09-.78-1.55-1.71-1.36s-1.27.84-1,1.92l2,9.84c.22,1.08.78,1.52,1.71,1.33s1.28-.82,1.06-1.9l-.55-2.69,2.61-.53.51,2.49a4.62,4.62,0,0,1-.38,3.4,4,4,0,0,1-2.81,1.76"/>
      <path class="cls-2" d="M177.22,315.57l-2.9.59-.51-2.52,8.55-1.75.52,2.52L180,315l3.09,15.09-2.76.57Zm-4.79,17a3.9,3.9,0,0,1-3.28-.53,4.84,4.84,0,0,1-1.7-3.06l-.21-1,2.62-.53.25,1.21c.23,1.13.83,1.61,1.78,1.41a1.4,1.4,0,0,0,1-.65A2.14,2.14,0,0,0,173,328a4,4,0,0,0-.91-1.86,9.13,9.13,0,0,0-2.27-1.63,11.47,11.47,0,0,1-2.95-2.25,5.62,5.62,0,0,1-1.24-2.61,4.7,4.7,0,0,1,.39-3.46,4.07,4.07,0,0,1,2.84-1.76,4,4,0,0,1,3.25.51,5,5,0,0,1,1.68,3.09l.15.73-2.62.54-.19-.91a2.16,2.16,0,0,0-.62-1.26,1.29,1.29,0,0,0-1.11-.19c-.94.19-1.27.84-1,2a3.4,3.4,0,0,0,.89,1.68,9.67,9.67,0,0,0,2.27,1.63,10.34,10.34,0,0,1,3,2.25,6.43,6.43,0,0,1,1.24,2.76,4.88,4.88,0,0,1-.37,3.54,4.13,4.13,0,0,1-2.89,1.79M162.26,332c1-.2,1.31-.88,1.08-2l-2-9.61c-.24-1.16-.83-1.64-1.79-1.45s-1.32.88-1.08,2l2,9.61c.24,1.16.83,1.64,1.79,1.45m.51,2.51a4.11,4.11,0,0,1-3.35-.52,4.69,4.69,0,0,1-1.76-3.05l-1.89-9.25a4.69,4.69,0,0,1,.41-3.5,4.89,4.89,0,0,1,6.24-1.27,4.68,4.68,0,0,1,1.75,3.05l1.9,9.25a4.69,4.69,0,0,1-.42,3.5A4.13,4.13,0,0,1,162.77,334.51Z"/>
      <path class="cls-2" d="M285.3,306.81c.95-.2,1.31-.87,1.08-2l-2-9.61c-.24-1.16-.83-1.64-1.79-1.44s-1.32.87-1.08,2l2,9.61c.23,1.15.83,1.64,1.79,1.44m.51,2.52a4.14,4.14,0,0,1-3.35-.52,4.69,4.69,0,0,1-1.76-3.05l-1.89-9.26a4.67,4.67,0,0,1,.41-3.49,4.87,4.87,0,0,1,6.24-1.28,4.68,4.68,0,0,1,1.75,3l1.9,9.26a4.66,4.66,0,0,1-.42,3.49A4.13,4.13,0,0,1,285.81,309.33Zm-10.6-.72a1.35,1.35,0,0,0,1-.62,2.08,2.08,0,0,0,.09-1.38l-1.88-9.15a2,2,0,0,0-.62-1.24,1.4,1.4,0,0,0-1.14-.19l-1.41.29,2.58,12.58Zm-7.27-14.24,4.23-.86a4.14,4.14,0,0,1,3.32.47,4.73,4.73,0,0,1,1.7,3l1.82,8.9a4.73,4.73,0,0,1-.37,3.46,4.13,4.13,0,0,1-2.87,1.74l-4.22.86Zm-4.83,1,2.77-.56,3.6,17.61-2.76.56Zm-8.65,1.77,2.77-.56,3.09,15.09,4.55-.93.51,2.51-7.32,1.5Zm-2.92,16.59c1-.2,1.31-.87,1.08-2l-2-9.61c-.24-1.16-.83-1.64-1.79-1.44s-1.32.87-1.08,2l2,9.61c.24,1.15.83,1.64,1.79,1.44m.51,2.52a4.15,4.15,0,0,1-3.35-.52,4.69,4.69,0,0,1-1.76-3.05l-1.89-9.26a4.67,4.67,0,0,1,.41-3.49,4.87,4.87,0,0,1,6.24-1.28,4.68,4.68,0,0,1,1.75,3.05l1.9,9.26a4.66,4.66,0,0,1-.42,3.49A4.11,4.11,0,0,1,252.05,316.24ZM230.86,302l3.95-.8,4.34,12.24h0l-.82-13,4-.8,3.61,17.61-2.62.53-2.73-13.33h-.05l.72,13.74-2.32.48-4.74-12.92h0l2.73,13.33-2.41.49Zm-9.32,12.45L216.12,305l2.94-.6,3.21,6.08h0l.57-6.85,2.69-.56-1.28,10.8,1.54,7.5-2.77.57ZM210,322.23c1-.2,1.31-.88,1.08-2l-2-9.61c-.24-1.16-.83-1.64-1.79-1.44s-1.31.87-1.08,2l2,9.61c.24,1.16.83,1.64,1.79,1.45m.51,2.51a4.11,4.11,0,0,1-3.35-.52,4.64,4.64,0,0,1-1.75-3l-1.9-9.26a4.67,4.67,0,0,1,.41-3.49,4.88,4.88,0,0,1,6.24-1.28,4.64,4.64,0,0,1,1.75,3.05l1.9,9.26a4.67,4.67,0,0,1-.41,3.49A4.14,4.14,0,0,1,210.49,324.74Zm-10.6-.71a1.35,1.35,0,0,0,1-.62A2.09,2.09,0,0,0,201,322l-1.88-9.16a2,2,0,0,0-.62-1.23,1.34,1.34,0,0,0-1.13-.19l-1.41.29,2.57,12.58Zm-7.27-14.24,4.23-.86a4.1,4.1,0,0,1,3.32.47,4.73,4.73,0,0,1,1.7,3l1.82,8.91a4.73,4.73,0,0,1-.37,3.46,4.16,4.16,0,0,1-2.86,1.74l-4.23.86Zm-2.52,12.78-3-8.45H187l.57,8.95Zm-5.43-11.15,3.75-.77,6.48,17-2.77.57-1.22-3.39v0l-3.14.64.2,3.55-2.57.52Z"/>
    </g>
  </g>
</svg>
